<svg xmlns="http://www.w3.org/2000/svg" width="317" height="155"><path d="M316 103H1m315 51H1M316 52H1M316 1H1" fill="none" stroke="#fff" stroke-linecap="square" stroke-width="2" stroke-dasharray="4 8"/><path d="M7.734 26.26v.64H5.718a10.23 10.23 0 01-1.2-.056v1.26a9.218 9.218 0 011.2-.056h1.946a5.644 5.644 0 01-.086.662h-2.42a8.394 8.394 0 01-1.33-.07v1.386a13.456 13.456 0 011.344-.07h2a2.878 2.878 0 01-1.064 1.022 6.551 6.551 0 01-2.646.826 4.336 4.336 0 01.646 1.386 7.342 7.342 0 003.024-1.246 4.6 4.6 0 001.3-1.442 7.982 7.982 0 004.606 2.716 6.073 6.073 0 01.588-1.484 7.907 7.907 0 01-2.282-.6 4.979 4.979 0 01-1.692-1.178h2.366a9.59 9.59 0 011.344.084v-1.4a10.192 10.192 0 01-1.33.07h-3.01c.042-.28.056-.378.084-.658h2.352a10.541 10.541 0 011.2.056v-1.26a9.929 9.929 0 01-1.2.056h-2.3l.028-.644h2.66a10.287 10.287 0 011.19.056v-1.3a9.256 9.256 0 01-1.19.056h-1.102a11.4 11.4 0 00.546-1.12h.938a10.287 10.287 0 011.19.056v-1.43a8.3 8.3 0 01-1.19.07h-2v-1.134a5.577 5.577 0 01.082-1.232H8.896a9.255 9.255 0 01.056 1.246v1.12h-.756v-1.134a8.14 8.14 0 01.056-1.232h-1.4a9.214 9.214 0 01.07 1.246v1.12H5.13a7.138 7.138 0 01-1.19-.07v1.428a11.2 11.2 0 011.2-.056h.6a8.661 8.661 0 01.5 1.12h-.956a9.683 9.683 0 01-1.19-.056v1.3a11.2 11.2 0 011.2-.056zm0-1.19a9.893 9.893 0 00-.462-1.12h2.464a6.689 6.689 0 01-.5 1.12zm-5.922 6.454a12.021 12.021 0 01-.084 1.666h1.61a15.127 15.127 0 01-.07-1.708V23.67a18.22 18.22 0 00.91-2.408c.1-.322.126-.362.182-.518l-1.526-.588a8.175 8.175 0 01-.462 1.75 11.061 11.061 0 01-2.128 3.71 7.172 7.172 0 01.634 1.722 10.32 10.32 0 00.98-1.47c-.042.56-.042.84-.042 1.778zM4.528 20.9a7.561 7.561 0 01.882 1.68l1.19-.518a8.364 8.364 0 00-.952-1.696zm7.126-.478a6.736 6.736 0 01-.966 1.778l1.246.406a9.569 9.569 0 001.036-1.694zm11.536 2.6a3.06 3.06 0 011.414.42 3.468 3.468 0 011.722 3.108 3.92 3.92 0 01-1.946 3.5 7.44 7.44 0 01-2.786.77 4.466 4.466 0 01.854 1.638 9.153 9.153 0 002.2-.588 5.393 5.393 0 003.4-5.222c0-3.15-2.184-5.194-5.544-5.194a6.285 6.285 0 00-4.816 1.96 6.014 6.014 0 00-1.54 4.074c0 2.254 1.148 3.878 2.744 3.878 1.148 0 2.044-.826 2.842-2.632a20.254 20.254 0 001.456-5.708zm-1.712.018a18.451 18.451 0 01-1.162 4.732c-.5 1.2-.98 1.792-1.442 1.792-.616 0-1.106-.91-1.106-2.058a4.687 4.687 0 011.9-3.78 3.564 3.564 0 011.81-.686zm19.642-.658v8.666c0 .308-.112.364-.784.364a12.385 12.385 0 01-1.718-.112 4.261 4.261 0 01.392 1.568h.518c.294.014.518.014.616.014a5.58 5.58 0 001.834-.2c.42-.168.63-.574.63-1.26v-9.04c.476.014.658.014 1.036.056v-1.526a13.847 13.847 0 01-1.582.088H36.77a13.167 13.167 0 01-1.61-.084v1.54a15.642 15.642 0 011.624-.07zm-7.238 1.33a28.9 28.9 0 001.222-3.112l-1.54-.542a10 10 0 01-.742 2.366 12.055 12.055 0 01-2.268 3.444 6.808 6.808 0 01.784 1.568 11.451 11.451 0 001.106-1.554c-.028.574-.042.882-.042 1.568v3.906a17.024 17.024 0 01-.084 1.806h1.638c-.042-.518-.07-1.05-.07-1.806zM39.85 24.9a10.633 10.633 0 01.042-1.092 9.612 9.612 0 01-1.078.042h-2.436a7.976 7.976 0 01-1.12-.05 8.732 8.732 0 01.056 1.134v4.28a6.891 6.891 0 01-.07 1.106h1.47v-1.008h2.1a9.612 9.612 0 011.078.042 10.633 10.633 0 01-.042-1.092zm-3.136.266h1.764v2.816h-1.764zm19.6-2.466a14.558 14.558 0 011.75.084v-1.648a11.333 11.333 0 01-1.75.1H49.86c.364-.742.364-.742.49-.98L48.67 20a2.564 2.564 0 01-.308.882 10.174 10.174 0 01-2.534 3.166 5.76 5.76 0 011.092 1.092 13.1 13.1 0 002.086-2.44zm-1.568 8.918a49.194 49.194 0 00-2.436-2.03 11.562 11.562 0 00.91-1.162c.308-.42.462-.63.6-.784l-1.5-.714a5.113 5.113 0 01-1.218 1.792 33.16 33.16 0 00-2.478-1.554l-1.022.938a24.59 24.59 0 012.436 1.6 15.633 15.633 0 01-3.878 2.128 5.369 5.369 0 011.05 1.316 17.138 17.138 0 004.046-2.52 30.7 30.7 0 012.436 2.156zm.322-4.844a12.967 12.967 0 00.644 4.522c.392 1.064 1.106 1.792 1.736 1.792.854 0 1.288-.9 1.512-3.094a4.188 4.188 0 01-1.2-.84 4.617 4.617 0 01-.336 2.072 1.807 1.807 0 01-.49-.952 13.772 13.772 0 01-.392-3.6 9.584 9.584 0 01.07-1.274 14.339 14.339 0 01-1.638.056h-7.116a6.917 6.917 0 01-1.2-.07v1.47a11.81 11.81 0 011.61-.084zM48.6 24.692a11.634 11.634 0 011.33-.056h5.586a10.448 10.448 0 011.484.07V23.32a11.717 11.717 0 01-1.484.07H49.65a8.82 8.82 0 01-1.05-.056zm16.128-4.298a14.3 14.3 0 01-.42 2.436c-.308.014-.546.014-.714.014a9.721 9.721 0 01-1.89-.126v1.6l.742.014c.294.014.378.014.56.014s.252 0 .882-.014a21.538 21.538 0 01-1.316 3.3 12.744 12.744 0 01-1.358 2.24l1.61.9c.084-.168.084-.168.266-.5.532-.98.658-1.232.98-1.918a26.873 26.873 0 001.54-4.06c.868-.07 1.722-.168 2.226-.252a2.73 2.73 0 01.448-.07l-.042-1.61a12.008 12.008 0 01-2.24.392c.154-.616.224-.9.294-1.232a7.008 7.008 0 01.224-.938zm8.96 3.64a22.1 22.1 0 00-3.948-1.876l-.84 1.358a17.135 17.135 0 014.032 1.96zm-.056 6.314a2.507 2.507 0 01-.21-.2 5.162 5.162 0 00-.49-.378 8.747 8.747 0 00-2.212-1.288 14.864 14.864 0 01-.126-1.918 4.666 4.666 0 01.168-1.414l-1.624-.08a7.426 7.426 0 00-.112 1.414c0 .42.028.966.07 1.61a6.954 6.954 0 00-1.3-.126c-1.778 0-3.024.994-3.024 2.408s1.2 2.352 3.052 2.352a3.232 3.232 0 002.324-.784 2.237 2.237 0 00.6-1.484c0-.056-.014-.154-.028-.28a8.467 8.467 0 012.142 1.736zm-4.48-.77s.028.336.028.476c0 .784-.462 1.176-1.414 1.176-.868 0-1.372-.336-1.372-.91s.588-.966 1.5-.966a3.529 3.529 0 011.258.224zm7.926-7.868a6.69 6.69 0 01.056.9c.056 3.878.308 5.908.882 7.308.56 1.344 1.316 2.03 2.254 2.03 1.19 0 2-1.134 2.73-3.864a6.911 6.911 0 01-1.4-1.274 10.321 10.321 0 01-.742 2.534c-.168.392-.364.6-.574.6-.448 0-.9-.9-1.134-2.352a26.2 26.2 0 01-.272-3.754 16.275 16.275 0 01.112-2.128zm7.07 1.33a12.22 12.22 0 011.988 3.444 14.193 14.193 0 01.9 4.046l1.736-.658a13.958 13.958 0 00-3.15-7.532zm8.694 8.274a14.685 14.685 0 01-.084 1.694h1.666v-.84h6.51v.84h1.694a14.183 14.183 0 01-.084-1.694V22.27a12.65 12.65 0 01.07-1.428 11.265 11.265 0 01-1.512.07h-6.778a12.359 12.359 0 01-1.554-.07c.042.462.07.952.07 1.5zm1.58-8.914h6.51v3.244h-6.51zm0 4.718h6.51V30.7h-6.51zm17.57-4.984h-.994a10.277 10.277 0 00-1.12-1.768l-1.484.42a6.862 6.862 0 01.938 1.344h-1.176a11.971 11.971 0 01-1.372-.056 11.587 11.587 0 01.056 1.26v.924a8.109 8.109 0 01-.056 1.008h1.54v-1.82h9.044v1.848h1.54a5.634 5.634 0 01-.07-.994v-.91a10.913 10.913 0 01.056-1.316 11.989 11.989 0 01-1.5.056h-1.162c.224-.294.252-.336.658-.938a2.634 2.634 0 01.224-.35l-1.51-.434a8.19 8.19 0 01-1.026 1.722H113.5v-.854a6.964 6.964 0 01.078-1.008h-1.652a6.965 6.965 0 01.07 1.008zm-.028 5.292v.826h-3.038a11.308 11.308 0 01-1.288-.056 9.4 9.4 0 01.056 1.148V31.2a13.775 13.775 0 01-.07 1.442h1.654a9.065 9.065 0 01-.07-1.4v-1.65h2.758v2.128a11.453 11.453 0 01-.07 1.484h1.666a10.94 10.94 0 01-.07-1.484v-2.128h3.01v1.386c0 .238-.1.294-.5.294a10.258 10.258 0 01-1.344-.1 3.606 3.606 0 01.336 1.386c.686.042.756.042.938.042 1.722 0 2.086-.224 2.086-1.246v-1.9a9.359 9.359 0 01.056-1.26 10.5 10.5 0 01-1.372.056h-3.206v-.828h1.946c.532 0 .966.014 1.4.042a10.849 10.849 0 01-.042-1.176v-.994c0-.518.014-.812.042-1.134-.364.028-.756.042-1.33.042h-5.284c-.5 0-.966-.014-1.344-.042.028.294.042.658.042 1.12v1.008a11.4 11.4 0 01-.042 1.176 17.07 17.07 0 011.33-.042zm3.36-2.086v.938h-4.928v-.942zm8.554 3.02a2.373 2.373 0 102.366 2.366 2.372 2.372 0 00-2.366-2.366zm0 1.092a1.281 1.281 0 11-1.274 1.274 1.279 1.279 0 011.274-1.274zM4.164 73.33a7.827 7.827 0 01.9-.084 34.571 34.571 0 003.906-.308 26.959 26.959 0 01-4.3 3.444 7.3 7.3 0 01-.8.112c-.28.042-.462.056-.532.07a12.78 12.78 0 01-1.2.084 1.547 1.547 0 01-.228-.014l.168 1.708a4.778 4.778 0 01.644-.14 93.38 93.38 0 012.254-.308c.392-.056.91-.112 1.54-.2a26.37 26.37 0 001.722-.266A4.8 4.8 0 006.74 78.5a2.677 2.677 0 00-.756 1.82 2.624 2.624 0 001.974 2.45 9.138 9.138 0 002.6.392h.182c.392-.014.616-.014.714-.014.2 0 .364 0 .518.014l-.07-1.778a5.433 5.433 0 01-1.33.126c-1.806 0-2.814-.5-2.814-1.414 0-.756.77-1.61 1.9-2.128a9.458 9.458 0 013.892-.686h.42l-.1-1.638a2.319 2.319 0 01-.462.056c-.126.014-.49.042-.994.1-.322.028-.966.07-1.848.14-1.694.14-2.7.238-3.4.336a40.155 40.155 0 003.85-3.052 5.987 5.987 0 01.812-.686l-.902-1.168a4.823 4.823 0 01-1.316.224c-1.092.084-2.9.154-4.158.154a9.451 9.451 0 01-1.372-.07zm20.048.2a3.06 3.06 0 011.414.42 3.468 3.468 0 011.722 3.108 3.92 3.92 0 01-1.946 3.5 7.44 7.44 0 01-2.786.77 4.466 4.466 0 01.854 1.638 9.153 9.153 0 002.2-.588 5.393 5.393 0 003.4-5.222c0-3.15-2.184-5.194-5.544-5.194a6.285 6.285 0 00-4.816 1.96 6.014 6.014 0 00-1.54 4.074c0 2.254 1.148 3.878 2.744 3.878 1.148 0 2.044-.826 2.842-2.632a20.254 20.254 0 001.456-5.716zm-1.712.01a18.451 18.451 0 01-1.162 4.732c-.5 1.2-.98 1.792-1.442 1.792-.616 0-1.106-.91-1.106-2.058a4.687 4.687 0 011.9-3.78 3.564 3.564 0 011.81-.686zm14.854-.448h-3.678a10.787 10.787 0 01-1.26-.056 10.96 10.96 0 01.056 1.218v4.284a10.492 10.492 0 01-.07 1.4h1.652V79.1h3.3v2.84a11.737 11.737 0 01-.1 1.736h1.792a11.013 11.013 0 01-.1-1.736V79.1h3.472v.84h1.652a9.635 9.635 0 01-.07-1.4v-4.272a10.278 10.278 0 01.056-1.232 10.012 10.012 0 01-1.274.056h-3.828v-.91a10.265 10.265 0 01.084-1.47h-1.764a9.076 9.076 0 01.084 1.526zm0 1.484v3.038h-3.3v-3.038zm1.6 3.038v-3.038h3.472v3.038zm11.1 5.222c-.014-.182-.014-.294-.014-.378a11.493 11.493 0 011.246-4.242l-1.12-.5a14.278 14.278 0 00-.726 1.844c.014-.35.028-.462.028-.77a23.375 23.375 0 01.21-3.094 19.3 19.3 0 01.882-4.186l-1.848-.2a9.16 9.16 0 01-.21 1.3 26.877 26.877 0 00-.574 5.474 24.42 24.42 0 00.364 4.186c.042.322.056.406.07.658zm1.934-8.386a16.619 16.619 0 002.52.154 25.077 25.077 0 003-.168c.672-.084.882-.112.994-.126l-.084-1.694a15.438 15.438 0 01-3.808.378 10.094 10.094 0 01-2.59-.224zm.966 2.31a4.573 4.573 0 00-1.288 2.884 2.345 2.345 0 00.42 1.372c.616.826 1.736 1.218 3.472 1.218a17.264 17.264 0 002.9-.266 4.679 4.679 0 01.574-.084l-.14-1.778a9.839 9.839 0 01-3.332.532c-1.456 0-2.226-.42-2.226-1.218a3.167 3.167 0 01.992-2.02zm17.276-2.478a5.251 5.251 0 01-.28 1.064 3.964 3.964 0 00-.532-.028 7.747 7.747 0 00-1.932.182c.014-.294.028-.742.07-1.344a44.915 44.915 0 004.928-.49c.294-.042.35-.042.546-.056L72.96 72a25.369 25.369 0 01-5.306.742 8.242 8.242 0 01.252-1.722l-1.736-.084a.788.788 0 01.03.224c0 .266-.014.616-.028.8-.042.56-.042.56-.056.84h-.308a12.386 12.386 0 01-2.618-.21v1.566c.154-.014.28-.014.322-.014h.266c1.358.042 2.114.056 2.268.056-.028.672-.056 1.232-.056 1.68a5.786 5.786 0 00-1.918 1.26 4.4 4.4 0 00-1.386 3.136 2.211 2.211 0 002.184 2.45 5.35 5.35 0 003.668-2.016 12.356 12.356 0 002.436-3.724 2.053 2.053 0 011.566 1.932A2.351 2.351 0 0170.9 81.1a5.8 5.8 0 01-2.674.56 4.51 4.51 0 01.742 1.582 7.8 7.8 0 002.858-.742 3.806 3.806 0 002.408-3.5 3.123 3.123 0 00-1.334-2.646 3.77 3.77 0 00-1.456-.686c.042-.126.056-.14.2-.532a3.233 3.233 0 01.168-.406zm-4.214 3.192a15.356 15.356 0 00.252 3.164 1.929 1.929 0 01-1.218.532c-.49 0-.8-.392-.8-1.022a2.776 2.776 0 01.63-1.708 4.164 4.164 0 011.136-.966zm1.584 2.114a.574.574 0 01-.014-.154.74.74 0 00-.014-.182 23.281 23.281 0 01-.1-2.408 5.143 5.143 0 011.68-.252 3.288 3.288 0 01.364.014 10.651 10.651 0 01-1.736 2.8 1.293 1.293 0 00-.154.2zm14.518-2.9a5.5 5.5 0 00.574-.364c.28-.182 1.288-.938 1.54-1.148.476-.406 1.5-1.316 2.2-1.96a3 3 0 01.728-.574l-.872-1.23a2.063 2.063 0 01-.868.182c-1.358.1-3.066.168-4.256.168a12.661 12.661 0 01-1.652-.084l.07 1.68a4.723 4.723 0 01.672-.07c2.534-.112 3.43-.168 3.962-.238l.014.014-.252.252a46.746 46.746 0 01-4.186 3.64 12.591 12.591 0 01-1.974 1.316l.952 1.512a8.626 8.626 0 015.768-2.352c1.694 0 2.772.714 2.772 1.806 0 .994-.5 1.6-1.666 2.03a3.765 3.765 0 00-.644-1.26 3.013 3.013 0 00-2.422-1.148 2.155 2.155 0 00-2.408 2 2 2 0 00.84 1.61 4.736 4.736 0 002.716.644 6.927 6.927 0 003.388-.8 3.421 3.421 0 001.9-3.094c0-1.918-1.54-3.15-3.934-3.15a6.834 6.834 0 00-2.94.644zm2.016 4.984a3.789 3.789 0 01-.728.056c-1.036 0-1.666-.322-1.666-.882 0-.392.322-.644.826-.644.782-.002 1.314.506 1.566 1.472zM92.21 80.4a15.068 15.068 0 013.038 3.192l1.3-1.218a16.364 16.364 0 00-3.15-3.08zm16.058-5.768h.112c.112 0 .252 0 .448.014.742.056 1.372.084 2.114.1a31.7 31.7 0 01-1.176 3.108 9.412 9.412 0 01-.658 1.26l1.692.586a2.374 2.374 0 011.022-.812 7.078 7.078 0 013.01-.686c1.512 0 2.352.476 2.352 1.344 0 1.12-1.316 1.834-3.346 1.834a10.653 10.653 0 01-3.612-.672 7.968 7.968 0 01.14 1.778 12.79 12.79 0 003.57.49c3.066 0 5.068-1.344 5.068-3.416 0-1.778-1.47-2.842-3.934-2.842a6.511 6.511 0 00-3.528.91V77.6a18.616 18.616 0 001.106-2.842c1.75-.042 2.982-.14 5.012-.364.364-.042.49-.056.812-.07l-.082-1.694a9.551 9.551 0 01-1.792.322c-.924.112-2.506.224-3.57.252.084-.266.084-.266.336-1.316a7.823 7.823 0 01.224-.812l-1.876-.154a12.011 12.011 0 01-.392 2.31 12.877 12.877 0 01-3.024-.238zm21.308.35a9.473 9.473 0 01.1-1.68l-1.638-.028a6.88 6.88 0 01.056 1.036c.028 2.562.028 2.562.14 4.732a1.588 1.588 0 00.028.266 4.038 4.038 0 00-.882-.1c-1.848 0-3.01.826-3.01 2.142a1.807 1.807 0 00.63 1.4 3.3 3.3 0 002.128.616 2.631 2.631 0 002.38-.938 1.865 1.865 0 00.252-1.078v-.294c.084.042.084.042.1.056a1.806 1.806 0 00.224.126 7.89 7.89 0 012.282 1.666l.938-1.4c-.154-.1-.224-.154-.364-.238a10.54 10.54 0 00-3.192-1.722c-.042-.406-.1-1.47-.126-2.45.952-.028 1.54-.07 2.52-.182.616-.07.616-.07.826-.084l-.112-1.47a13.326 13.326 0 01-3.276.378v-.754zm-1.3 5.628a2.192 2.192 0 01.028.406c0 .714-.322.98-1.218.98-.756 0-1.162-.238-1.162-.686 0-.49.532-.812 1.358-.812a3.867 3.867 0 01.992.112zm11.172-2.8a8.842 8.842 0 011.624-.476 15.689 15.689 0 013.682-.546c1.484 0 2.3.588 2.3 1.68a2.249 2.249 0 01-.994 1.89 4.937 4.937 0 01-2.338.952 12.337 12.337 0 01-1.988.21h-.21a4.426 4.426 0 01.6 1.6 13.763 13.763 0 003.038-.532c2.226-.7 3.542-2.212 3.542-4.074a3.175 3.175 0 00-.518-1.806 3.606 3.606 0 00-3.3-1.428 19.78 19.78 0 00-4.326.588 7.463 7.463 0 01-1.456.266zm16.924-6.524a5.949 5.949 0 01.224.91 35.672 35.672 0 00.938 3.794 8.641 8.641 0 00-1.9 1.2 3.288 3.288 0 00-1.25 2.51 2.65 2.65 0 001.218 2.338 7.84 7.84 0 004.06.77 29.586 29.586 0 003.276-.21 8.727 8.727 0 011.134-.1l-.154-1.918a15.327 15.327 0 01-4.522.574c-2.254 0-3.206-.434-3.206-1.456s1.022-1.9 3.066-2.66a34.207 34.207 0 014.62-1.344l-.6-1.764a3.832 3.832 0 01-.532.21c-2.716.9-2.716.9-3.626 1.232a23.513 23.513 0 01-.924-4.382zm13.8.028a6.964 6.964 0 01.056.952c0 .2 0 .49-.014.91-.084 3.514-.112 4.914-.112 5.642 0 1.876.406 2.954 1.372 3.6a4.564 4.564 0 002.45.616 5.3 5.3 0 004.2-1.778 8.624 8.624 0 001.666-3.57 6.046 6.046 0 01-1.69-1.08 9.385 9.385 0 01-.644 2.352 3.6 3.6 0 01-3.388 2.394 2.217 2.217 0 01-1.876-.728 3.891 3.891 0 01-.364-2.254c0-.994.084-3.836.14-5.138a12.8 12.8 0 01.168-1.89zm13.566 3.514a2.09 2.09 0 01.266-.014c.112 0 .308 0 .56.014s.378.014.448.014h.812a1.185 1.185 0 00.182-.014 29.911 29.911 0 01-2.506 7.532l1.764.686a47.463 47.463 0 001.568-4.634c.364-1.274.714-2.758.868-3.626a19.085 19.085 0 002.3-.294c.336-.056.336-.056.448-.07l-.07-1.61a11.619 11.619 0 01-2.394.42c.056-.322.07-.406.14-.8a7.957 7.957 0 01.266-1.342l-1.848-.168a1.9 1.9 0 01.014.252 16.994 16.994 0 01-.266 2.142c-.322.014-.476.014-.644.014a11.139 11.139 0 01-1.876-.13zm11.1.308c-.882-.014-1.008-.014-1.386-.014a17.967 17.967 0 00-4.172.448l.126 1.54a15.109 15.109 0 013.7-.406 14.575 14.575 0 011.764.1zm-5.516 2.94a3.948 3.948 0 00-1.03 2.424 2.023 2.023 0 00.994 1.722 5.685 5.685 0 002.814.56 16.292 16.292 0 002.6-.224c.322-.056.434-.07.686-.1l-.126-1.722a10.714 10.714 0 01-3.178.518c-1.4 0-2.1-.364-2.1-1.078a2.323 2.323 0 01.728-1.54zm12.166-6.062v.2a10.273 10.273 0 01-.126 1.358 17.026 17.026 0 01-1.316 4.8 9.434 9.434 0 01-2 2.982 6.137 6.137 0 011.6 1.2 13.366 13.366 0 002.478-4.326 25.047 25.047 0 001.106-4.788 5.927 5.927 0 01.182-1.078zm4.158.336a6.976 6.976 0 01.2 1.008 21.929 21.929 0 001.33 5.1 14.707 14.707 0 002.38 4.116 6.034 6.034 0 011.54-1.288 13.541 13.541 0 01-3.122-6.048 18.122 18.122 0 01-.588-3.22zm9.834-.868a6.811 6.811 0 01.07 1.442l-.056 7.56a4.937 4.937 0 01-.126 1.442l.9 1.078a4.011 4.011 0 01.84-.238 12.762 12.762 0 005.1-1.918 10.437 10.437 0 003.122-3.262 6.576 6.576 0 01-1.33-1.428 8.273 8.273 0 01-2.856 3.206 10.069 10.069 0 01-3.822 1.54l.07-7.994a10.835 10.835 0 01.076-1.41zm20.412 2.044a3.06 3.06 0 011.414.42 3.468 3.468 0 011.722 3.108 3.92 3.92 0 01-1.946 3.5 7.44 7.44 0 01-2.786.77 4.466 4.466 0 01.854 1.638 9.153 9.153 0 002.2-.588 5.393 5.393 0 003.4-5.222c0-3.15-2.184-5.194-5.544-5.194a6.285 6.285 0 00-4.816 1.96 6.014 6.014 0 00-1.54 4.074c0 2.254 1.148 3.878 2.744 3.878 1.148 0 2.044-.826 2.842-2.632a20.253 20.253 0 001.456-5.712zm-1.708.014a18.451 18.451 0 01-1.162 4.732c-.5 1.2-.98 1.792-1.442 1.792-.616 0-1.106-.91-1.106-2.058a4.687 4.687 0 011.9-3.78 3.564 3.564 0 011.81-.686zm17.738 4.69v2.128h-.154a5.7 5.7 0 01-.826-.042v1.414a7.364 7.364 0 011.134-.07h1.61v.8a11.247 11.247 0 01-.07 1.274h1.428a8.922 8.922 0 01-.07-1.288v-.786h.182a9.486 9.486 0 011.176.07V80.3a8.262 8.262 0 01-1.162.056h-.2V78.23h.14a5.349 5.349 0 01.9.056v-1.33a7.506 7.506 0 01-.9.042h-.14v-.406h1.316a7.057 7.057 0 01-.042-.854v-.644a8.209 8.209 0 01.042-.924 9.966 9.966 0 01-1.106.056h-.336a11.687 11.687 0 00.994-1.638l-1.442-.35a8.225 8.225 0 01-.98 1.988h-.6a6.357 6.357 0 00-.644-1.6l-1.232.35a5.784 5.784 0 01.56 1.246h-1.09a6.685 6.685 0 00-.742-1.442l-1.232.406a4.877 4.877 0 01.63 1.036h-.434a6.417 6.417 0 01-.9-.056 5.98 5.98 0 01.042.756v1.04a8.954 8.954 0 01-.042.9h1.246a5.988 5.988 0 01-1.568 2.086v-6.374c0-.616.014-1.05.042-1.344-.266.014-.616.028-1.12.028h-1.484c-.406 0-.728-.014-1.036-.028.028.238.056.8.056 1.4v9.044a11.84 11.84 0 01-.056 1.316h1.33v-1.218h1.036v.546h1.274c-.028-.35-.042-.588-.042-1.134v-1.932a4.114 4.114 0 01.6.8 5.376 5.376 0 00.56-.532 11.2 11.2 0 01.784.924 6.723 6.723 0 01-2.324 2.254 4.056 4.056 0 01.938 1.008 9.468 9.468 0 003.668-5.474zm-.07-1.232l-.462-.518a5.384 5.384 0 01-.826.056h-.2c.07-.154.07-.154.224-.546l-1.26-.266a5.132 5.132 0 01-.28.966v-1.176h5.824v.406h-1.242a6.02 6.02 0 01.056.938V77zm-1.3.728a7.192 7.192 0 01-.552 1.568 7.107 7.107 0 00-.742-.672c.224-.336.308-.476.546-.9zm2.576.5h.56v2.132h-.56zm-7.98-5.614h1.036v1.698h-1.036zm0 2.926h1.036v1.712h-1.036zm0 2.94h1.036V80.4h-1.036zm9.884-7.8a23.725 23.725 0 01-6.86.868h-.406a5.664 5.664 0 01.518 1.232 44.117 44.117 0 007.35-.84 3.95 3.95 0 01.448-.1zm12.8 7.252c0-.546.014-.9.042-1.26a11.259 11.259 0 01-1.3.056h-3.122a11.415 11.415 0 01-1.3-.056c.028.378.042.77.042 1.26v3.416a9.651 9.651 0 01-.1 1.4h1.484v-.784h2.968c.112 0 .378 0 .784.014a5.317 5.317 0 01.364 1.442c.714.042.77.042.966.042a4.264 4.264 0 001.582-.168c.5-.21.672-.574.672-1.414v-9.164c0-.7.014-1.05.056-1.554a12.558 12.558 0 01-1.442.056h-2.688a11.978 11.978 0 01-1.44-.056c.028.434.042.826.042 1.3v2.14c0 .6-.014.868-.042 1.274.35-.028.8-.042 1.288-.042h2.758v5.852c0 .28-.126.378-.518.378-.252 0-.756-.042-1.064-.07a14.511 14.511 0 01-.042-1.218zm-.994-5.586h2.618v.7h-2.618zm0 1.694h2.618v.714h-2.618zm-3.268 3.87h2.856v.84h-2.856zm0 1.974h2.856v.91h-2.856zm-2.926-4.046h2.534c.49 0 .924.014 1.288.042-.028-.308-.042-.63-.042-1.274v-2.142c0-.546.014-.854.042-1.3a11.829 11.829 0 01-1.428.056h-2.478a12.715 12.715 0 01-1.442-.058 15.524 15.524 0 01.056 1.568v9.142a12.515 12.515 0 01-.084 1.736h1.638a12.144 12.144 0 01-.084-1.722zm0-3.486h2.408v.7h-2.408zm0 1.694h2.408v.714h-2.408zM276.1 78.86a2.373 2.373 0 102.366 2.366 2.372 2.372 0 00-2.366-2.366zm0 1.092a1.281 1.281 0 11-1.274 1.274 1.279 1.279 0 011.274-1.274zM12.416 131.2v2.4c0 .364-.1.434-.588.434a9.3 9.3 0 01-1.442-.154 4.774 4.774 0 01.378 1.582c.378.014.882.028 1.12.028 1.624 0 2.044-.322 2.044-1.568v-9.11a13.426 13.426 0 01.056-1.54 13.331 13.331 0 01-1.512.056H9.448a15.57 15.57 0 01-1.554-.056c.07.588.1 1.624.1 3.486a16.142 16.142 0 01-.516 5.054 5.21 5.21 0 01-2 2.786 4.407 4.407 0 011.232 1.134 6.7 6.7 0 001.73-2.282 9.235 9.235 0 00.728-2.25zm0-3.318v1.942h-3.08c.07-.672.112-1.274.126-1.946zm0-1.316H9.49v-1.838h2.926zm-10.318 4.952a13.361 13.361 0 01-.084 1.666h1.54v-1.036h1.974v.518H6.97a28.206 28.206 0 01-.028-1.428v-6.356c0-.658.014-.938.042-1.274-.364.028-.63.042-1.2.042H3.568c-.8 0-1.134-.014-1.526-.042a13.362 13.362 0 01.056 1.442zm1.442-6.5h1.988v2.118H3.54zm0 3.416h1.988v2.366H3.54zm14.7 5.376a14.685 14.685 0 01-.084 1.694h1.666v-.84h6.51v.84h1.694a14.183 14.183 0 01-.084-1.694v-9.04a12.65 12.65 0 01.07-1.428 11.265 11.265 0 01-1.512.07h-6.776a12.359 12.359 0 01-1.554-.07c.042.462.07.952.07 1.5zm1.582-8.91h6.51v3.244h-6.51zm0 4.718h6.51v3.582h-6.51zm16.408-2.16a.246.246 0 01.084-.014.643.643 0 01.14.014 2.085 2.085 0 01.238.014c.07 0 .224.014.42.014.658.056 1.218.07 1.736.07.364 0 .7-.014 1.26-.028.056 1.946.07 2.632.112 2.982a3.328 3.328 0 00-1.242-.196c-1.694 0-2.884.952-2.884 2.31 0 1.428 1.12 2.3 2.954 2.3 1.358 0 2.338-.49 2.66-1.316a2.449 2.449 0 00.112-.784v-.2c.084.056.406.266.882.574a5.245 5.245 0 011.05.9l.668-1.698a2.664 2.664 0 01-.392-.238 11.162 11.162 0 00-2.2-1.274c-.14-2.352-.14-2.38-.14-3.164v-.308c.742-.084 1.47-.21 1.946-.308a2.419 2.419 0 01.406-.07l-.056-1.582-.112.028c-.224.084-.224.084-.308.112a14.075 14.075 0 01-1.89.336v-.644a13.7 13.7 0 01.104-2.058l-1.75.042a3.916 3.916 0 01.042.672c0 .574.014 1.274.014 2.1-.49.028-.8.028-1.288.028a10.089 10.089 0 01-2.534-.224zm4.018 4.48v.378a1.175 1.175 0 01-.182.756 1.376 1.376 0 01-1.134.434c-.784 0-1.288-.35-1.288-.868 0-.574.56-.924 1.456-.924a2.931 2.931 0 011.148.224zm-5.47 2.982a2.743 2.743 0 01-.028-.378 11.681 11.681 0 011.386-4.284l-1.166-.518a2.668 2.668 0 01-.168.434c-.14.336-.14.336-.266.63-.07.224-.14.378-.168.476-.1.252-.1.252-.168.406h-.014a2.383 2.383 0 00.014-.294v-.224c0-.224 0-.224.014-.728a22.5 22.5 0 011.12-7.028l-1.89-.2v.06a7.515 7.515 0 01-.154 1.036c-.312 1.582-.312 1.582-.378 2.002a25.024 25.024 0 00-.266 3.71 26.549 26.549 0 00.378 4.452 5.109 5.109 0 01.07.546zm12.05-2.52a15.068 15.068 0 013.038 3.192l1.3-1.218a16.364 16.364 0 00-3.15-3.08zm18.676-8.974a7.557 7.557 0 01.224.924 34.7 34.7 0 00.938 3.794 8.655 8.655 0 00-1.9 1.19 3.332 3.332 0 00-1.25 2.506 2.633 2.633 0 001.218 2.338 7.84 7.84 0 004.06.77 29.586 29.586 0 003.276-.21c.742-.07.84-.084 1.134-.1l-.154-1.9a15.869 15.869 0 01-4.522.56c-2.254 0-3.206-.434-3.206-1.456s1.022-1.89 3.066-2.646a32.279 32.279 0 014.62-1.346l-.6-1.764a5.177 5.177 0 01-.994.364c-1.764.56-2.3.742-3.164 1.078a24.211 24.211 0 01-.926-4.382zm5.488.21a9.449 9.449 0 011.47 2.086l.98-.518a9.073 9.073 0 00-1.47-2.058zm4.116.658a8.1 8.1 0 00-1.456-1.974l-.938.49a10.315 10.315 0 011.428 2.03zm5.838 5.012c.308-.658.924-2.184 1.722-4.228a13.489 13.489 0 01.686-1.61l-1.89-.476c-.1.574-.1.574-3.318 9.52-.448 1.218-.574 1.554-.77 1.96l1.806.588a16.06 16.06 0 011.176-3.206c.686-1.26 1.47-1.96 2.226-1.96a.693.693 0 01.63.322 1.911 1.911 0 01.112.826c0 .14 0 .476-.014.98v.14a4.057 4.057 0 00.238 1.554 2.191 2.191 0 002.2 1.218c2.114 0 3.486-1.456 4.088-4.354a4.378 4.378 0 01-1.54-1.05 8.774 8.774 0 01-.532 2.226c-.406.98-1.008 1.5-1.75 1.5a1.176 1.176 0 01-.742-.2c-.252-.21-.308-.49-.308-1.5 0-1.61-.07-2.114-.35-2.562a1.9 1.9 0 00-1.568-.8 2.619 2.619 0 00-1.806.826l-.264.314zm15.022-6.412a14.3 14.3 0 01-.42 2.436c-.308.014-.546.014-.714.014a9.721 9.721 0 01-1.89-.126v1.6l.742.014c.294.014.378.014.56.014s.252 0 .882-.014a21.537 21.537 0 01-1.316 3.3 12.743 12.743 0 01-1.358 2.24l1.61.9c.084-.168.084-.168.266-.5.532-.98.658-1.232.98-1.918a26.873 26.873 0 001.54-4.06c.868-.07 1.722-.168 2.226-.252a2.73 2.73 0 01.448-.07l-.046-1.618a12.008 12.008 0 01-2.24.392c.154-.616.224-.9.294-1.232a7.008 7.008 0 01.224-.938zm8.96 3.64a22.1 22.1 0 00-3.95-1.876l-.84 1.358a17.135 17.135 0 014.032 1.96zm-.056 6.314a2.509 2.509 0 01-.21-.2 5.162 5.162 0 00-.49-.378 8.747 8.747 0 00-2.212-1.288 14.864 14.864 0 01-.126-1.918 4.666 4.666 0 01.168-1.414l-1.624-.08a7.426 7.426 0 00-.112 1.414c0 .42.028.966.07 1.61a6.954 6.954 0 00-1.3-.126c-1.778 0-3.024.994-3.024 2.408s1.2 2.352 3.052 2.352a3.232 3.232 0 002.324-.784 2.237 2.237 0 00.6-1.484c0-.056-.014-.154-.028-.28a8.467 8.467 0 012.142 1.736zm-4.48-.77s.028.336.028.476c0 .784-.462 1.176-1.414 1.176-.868 0-1.372-.336-1.372-.91s.588-.966 1.5-.966a3.529 3.529 0 011.258.224zm12.572-4.662v.574h-3.962a11.576 11.576 0 01-1.47-.084v1.288c.462-.042.924-.07 1.47-.07h9.688c.56 0 1.036.028 1.484.07v-1.288a11.2 11.2 0 01-1.484.084h-4.228v-.574h3.066c.5 0 .9.014 1.288.042a9.356 9.356 0 01-.056-1.2v-1.978a9.218 9.218 0 01.056-1.2 14.759 14.759 0 01-1.484.056h-7.014a14.02 14.02 0 01-1.5-.056 9.638 9.638 0 01.056 1.2v1.974a10.177 10.177 0 01-.056 1.218 14.219 14.219 0 011.442-.056zm-2.646-3.216h7v.616h-7zm0 1.568h7v.63h-7zm2.842 6.632v1.526c0 .322-.1.392-.518.392a9.914 9.914 0 01-1.386-.1 3.9 3.9 0 01.308 1.358c.5.014.924.028 1.106.028 1.638 0 2-.238 2-1.26V132.4h2.352c.588 0 .98.014 1.484.056a6.858 6.858 0 01-.056-1.022v-.8a7.742 7.742 0 01.056-1.064 15.12 15.12 0 01-1.484.056h-6.37c-.6 0-1.05-.014-1.484-.056a8.145 8.145 0 01.056 1.064v.756a7.613 7.613 0 01-.056 1.064c.462-.042.924-.056 1.484-.056zm3.836-1.736v.672h-6.328v-.672zm-1.2 2.548a10.788 10.788 0 003.416 2.352 4.6 4.6 0 01.966-1.26 8.565 8.565 0 01-3.29-1.9zm-5.142-.812a7.552 7.552 0 01-3.164 1.946 4.132 4.132 0 01.98 1.19 10.947 10.947 0 003.416-2.394zm19.88-5.978c.294-.322.77-.9 1.2-1.442a5.952 5.952 0 01.56-.672l-.924-.756a5.023 5.023 0 01-1.372.084h-2.31a3.271 3.271 0 00.19-.308c.168-.28.21-.336.308-.476l-1.708-.308a4.865 4.865 0 01-.91 1.582 9.752 9.752 0 01-3.234 2.786 3.718 3.718 0 01.84 1.33 10.959 10.959 0 00.91-.616v6.048c0 .84.21 1.162.882 1.358a21.575 21.575 0 004.648.28c2.618 0 3.85-.1 4.494-.378.686-.28.9-.84 1.036-2.716a5.445 5.445 0 01-1.61-.532c-.014 1.2-.112 1.75-.35 1.918-.294.21-1.316.294-3.612.294a25.873 25.873 0 01-3.4-.112c-.42-.07-.532-.182-.532-.574v-2.226h7.364c.378 0 .742.014 1.232.056a8.2 8.2 0 01-.056-1.05V127.4a7.786 7.786 0 01.056-1.05 8.755 8.755 0 01-1.26.07zm-5.054 0a8.859 8.859 0 001.33-1.484h3.136a10.659 10.659 0 01-1.316 1.484zm4.228 1.358h2.94v1.862h-2.94zm-1.43 1.862h-2.646v-1.862h2.646zm12.474 5.194c-.014-.182-.014-.294-.014-.378a11.494 11.494 0 011.246-4.242l-1.12-.5a14.276 14.276 0 00-.728 1.848c.014-.35.028-.462.028-.77a23.374 23.374 0 01.214-3.094 19.3 19.3 0 01.882-4.186l-1.848-.2a9.16 9.16 0 01-.21 1.3 26.877 26.877 0 00-.574 5.474 24.419 24.419 0 00.364 4.186c.042.322.056.406.07.658zm1.932-8.386a16.619 16.619 0 002.52.154 25.077 25.077 0 003-.168c.672-.084.882-.112.994-.126l-.084-1.694a15.438 15.438 0 01-3.808.378 10.094 10.094 0 01-2.59-.224zm.966 2.31a4.573 4.573 0 00-1.288 2.884 2.345 2.345 0 00.42 1.372c.616.826 1.736 1.218 3.472 1.218a17.264 17.264 0 002.9-.266 4.679 4.679 0 01.574-.084l-.14-1.778a9.839 9.839 0 01-3.332.532c-1.456 0-2.226-.42-2.226-1.218a3.167 3.167 0 01.994-2.016zm14.644-1.5h-2.772v-2.266a8.236 8.236 0 01.056-1.12h-1.68a7.8 7.8 0 01.07 1.232v2.772c0 .322-.014.588-.042.9.336-.028.63-.042 1.008-.042h3.36v4.592h-3.29v-2.272a6.918 6.918 0 01.07-1.2h-1.696a11.634 11.634 0 01.07 1.344v2.968a10.158 10.158 0 01-.084 1.4h1.638v-.728h8.33v.728h1.646a8.84 8.84 0 01-.084-1.4v-3.028a11.2 11.2 0 01.07-1.33h-1.694a7.45 7.45 0 01.07 1.19v2.324h-3.462v-4.592h3.612c.336 0 .672.014.98.042a7.667 7.667 0 01-.042-.9v-2.782a8.048 8.048 0 01.07-1.218h-1.68a8.409 8.409 0 01.06 1.106v2.282h-3V124.2a9.01 9.01 0 01.084-1.39h-1.75a8.4 8.4 0 01.084 1.386zm12.462 1.14a11.2 11.2 0 011.2-.056h4.676a10.635 10.635 0 011.26.056v-1.1a14.928 14.928 0 002.394 1.274 6.234 6.234 0 01.77-1.568 14.8 14.8 0 01-3.6-1.89 8.5 8.5 0 01-2.36-2.316h-1.666a9.219 9.219 0 01-2.212 2.352 13.064 13.064 0 01-3.514 1.946 6.5 6.5 0 01.812 1.428 13.173 13.173 0 002.24-1.2zm1.222-1.516c-.252 0-.336 0-.574-.014a11.952 11.952 0 002.912-2.716 11.4 11.4 0 002.922 2.716c-.266.014-.392.014-.616.014zm.14 4.046a14.5 14.5 0 01-1.5 2.8c-.714.042-1.134.056-1.232.056-.2 0-.434-.014-.812-.042l.224 1.708a16.648 16.648 0 011.806-.2c.56-.042 3.332-.294 4.718-.42.518-.056 1.358-.154 2.52-.308.238.336.378.532.84 1.218l1.344-.882a28.651 28.651 0 00-3.234-3.738l-1.386.616a65.083 65.083 0 011.47 1.554c-1.96.21-1.96.21-4.438.35a15.218 15.218 0 001.456-2.716h4.816a13.026 13.026 0 011.638.084v-1.62a13.182 13.182 0 01-1.638.084h-8.722a13.751 13.751 0 01-1.652-.084v1.624a13.116 13.116 0 011.652-.084zm13.86-6.356a25.96 25.96 0 005.81.826l.266-1.568a20.085 20.085 0 01-5.576-.784zm-1.134 3.78c.462-.056.56-.07 1.078-.112.462-.042.462-.042.728-.07 1.218-.1 1.218-.1 1.414-.112.658-.056 1.022-.112 1.82-.238q-1.071 1.008-1.638 1.554a79.575 79.575 0 01-1.624 1.54 27.715 27.715 0 01-3.248 2.8l1.288 1.456c.5-.588 1.26-1.4 1.974-2.086 1.134-1.092 1.764-1.484 2.422-1.484a.647.647 0 01.588.294 2.276 2.276 0 01.14.9c.07 1.106.182 1.442.574 1.806a2.674 2.674 0 001.96.532 12.3 12.3 0 001.96-.168c.91-.14.994-.154 1.232-.168l-.21-1.736a7.444 7.444 0 01-2.758.532c-.924 0-1.106-.2-1.2-1.3a2.279 2.279 0 00-.316-1.294 1.261 1.261 0 00-1.162-.588 2.154 2.154 0 00-.854.168c.434-.336 1.638-1.414 2.394-2.142a9.247 9.247 0 011.19-1.05l-.938-1.2a3.484 3.484 0 01-1.12.224 48.082 48.082 0 01-4.97.308 5.921 5.921 0 01-.826-.042zm17.654.336a5.494 5.494 0 00.574-.364c.28-.182 1.288-.938 1.54-1.148.476-.406 1.5-1.316 2.2-1.96a3 3 0 01.728-.574l-.874-1.232a2.063 2.063 0 01-.868.182c-1.358.1-3.066.168-4.256.168a12.661 12.661 0 01-1.652-.084l.07 1.68a4.723 4.723 0 01.672-.07c2.534-.112 3.43-.168 3.962-.238l.014.014-.252.252a46.748 46.748 0 01-4.186 3.64 12.591 12.591 0 01-1.974 1.316l.952 1.512a8.626 8.626 0 015.768-2.352c1.694 0 2.772.714 2.772 1.806 0 .994-.5 1.6-1.666 2.03a3.765 3.765 0 00-.644-1.26 3.013 3.013 0 00-2.422-1.148 2.155 2.155 0 00-2.408 2 2 2 0 00.84 1.61 4.736 4.736 0 002.716.644 6.927 6.927 0 003.388-.8 3.421 3.421 0 001.9-3.094c0-1.918-1.54-3.15-3.934-3.15a6.834 6.834 0 00-2.94.644zm2.016 4.984a3.789 3.789 0 01-.728.056c-1.036 0-1.666-.322-1.666-.882 0-.392.322-.644.826-.644.78-.004 1.312.504 1.564 1.47zm8.778-6.72a2.09 2.09 0 01.266-.014c.112 0 .364 0 .56.014h.994l.308.014h.14a30.189 30.189 0 01-2.506 7.5l1.764.686a46.56 46.56 0 002.436-8.246 19.028 19.028 0 002.3-.294l.322-.056a.615.615 0 00.126-.014l-.07-1.61a12.764 12.764 0 01-2.394.42c.042-.252.07-.364.084-.434.042-.252.07-.448.1-.616a9.488 9.488 0 01.224-1.092l-1.858-.164a1.9 1.9 0 01.014.252 16.994 16.994 0 01-.266 2.142c-.322.014-.476.014-.644.014a11.139 11.139 0 01-1.876-.126zm7.84-3.038a9.449 9.449 0 011.466 2.084l.98-.518a9.072 9.072 0 00-1.47-2.056zm3.262 3.332c-.644-.014-.966-.014-1.386-.014a17.893 17.893 0 00-4.172.448l.126 1.554a16.293 16.293 0 015.46-.322zm-5.516 2.94a4.01 4.01 0 00-1.036 2.436 2.023 2.023 0 00.994 1.722 5.685 5.685 0 002.814.56 15 15 0 002.6-.238c.364-.056.434-.07.686-.1l-.126-1.708a10.714 10.714 0 01-3.178.518c-1.4 0-2.1-.364-2.1-1.078 0-.5.168-.84.728-1.554zm6.37-5.614a8.1 8.1 0 00-1.46-1.974l-.938.49a10.315 10.315 0 011.428 2.03zm7.8 4.41l-.042-.014a22.448 22.448 0 002.24-1.918 20.579 20.579 0 012.422-2.24l-.9-1.274a2.017 2.017 0 01-.77.154 46.88 46.88 0 01-3.976.168 11.149 11.149 0 01-1.9-.1l.056 1.666a8.228 8.228 0 011.148-.084c1.2-.028 2.912-.126 3.472-.21a.273.273 0 01.112-.014l.014.014a.83.83 0 01-.112.112 1.266 1.266 0 00-.14.154 46.943 46.943 0 01-4.172 3.892 12.34 12.34 0 01-1.834 1.316l1.078 1.456a8.449 8.449 0 015.432-2.338c1.554 0 2.478.6 2.478 1.61 0 1.232-1.358 2.058-3.388 2.058a9.322 9.322 0 01-3.556-.784 6.955 6.955 0 01.252 1.848 11.116 11.116 0 003.374.518 6.722 6.722 0 003.486-.826 3.322 3.322 0 001.638-2.842c0-1.806-1.47-2.982-3.738-2.982a5.059 5.059 0 00-2.562.6zm12.81-4.27a31.022 31.022 0 006.538.882l.238-1.722h-.392a19.192 19.192 0 01-5.844-.812zm-1.238 4.676a19.575 19.575 0 015.544-.966c1.456 0 2.2.532 2.2 1.582a2.894 2.894 0 01-1.708 2.464 9.772 9.772 0 01-4.214 1.064 4 4 0 01.728 1.75 11.459 11.459 0 004.41-1.316 4.712 4.712 0 002.66-4.018 2.882 2.882 0 00-1.362-2.562 5.051 5.051 0 00-2.646-.574 24.426 24.426 0 00-4.4.476 9.53 9.53 0 01-1.624.238zm17.08-6.384v.266a21.543 21.543 0 01-.364 2.828c-.77.112-2.464.28-2.982.28l.168 1.652a25.1 25.1 0 012.506-.448 23.751 23.751 0 01-1.358 3.962 15.3 15.3 0 01-1.456 2.632l1.624.9c.07-.14.07-.154.112-.238l.21-.42a30.023 30.023 0 001.68-3.934 29.607 29.607 0 00.854-3.038c.322-.028.532-.042.812-.042 1.106 0 1.428.378 1.428 1.666a12.44 12.44 0 01-.364 3.192c-.21.686-.434.952-.84.952a5.792 5.792 0 01-2.044-.546 5.259 5.259 0 01.14 1.19c0 .14-.014.336-.028.616a6.792 6.792 0 002.156.406 1.773 1.773 0 001.554-.63c.672-.77 1.078-2.688 1.078-5.1a3.4 3.4 0 00-.658-2.478 2.712 2.712 0 00-2.072-.742c-.266 0-.462.014-.868.042.042-.182.042-.21.1-.518.2-1.05.2-1.05.238-1.344.042-.224.056-.294.084-.476a3.251 3.251 0 01.11-.436zm5.012 2.688a9.061 9.061 0 011.61 2.394 12.586 12.586 0 011.12 3.178l1.6-.812a13.589 13.589 0 00-2.884-5.46zm8.806 5.166a2.373 2.373 0 102.366 2.366 2.372 2.372 0 00-2.366-2.366zm0 1.092a1.281 1.281 0 11-1.274 1.274 1.279 1.279 0 011.274-1.274z" fill="#fff"/></svg>