<svg xmlns="http://www.w3.org/2000/svg" width="54.288" height="177.149"><defs><style>.a{fill:#00a2e9}</style></defs><path class="a" d="M13.751 32.724a53.844 53.844 0 009.444-9.33 71.364 71.364 0 007.862-12.339 34.374 34.374 0 002.952-7.042c.1-.662-.194-1.082-1.082-1.566a.465.465 0 01-.339-.541c.047-.3.472-.722 1.26-1.144a4.944 4.944 0 012.12-.481 4.805 4.805 0 013.278 1.384c1.184.9 1.7 1.865 1.568 2.709-.084.542-.37.842-1 1.384a5.236 5.236 0 00-1.579 2.047 34.555 34.555 0 01-2.423 4.394c1.764-.122 2.685-.241 5.009-.482 2.515-.3 3.745-.481 5.148-.6a4.663 4.663 0 002.417-.841 2.927 2.927 0 011.4-.482c.783 0 1.866.783 2.925 2.106a4.034 4.034 0 011.271 3.071 2.03 2.03 0 01-1 1.384 3.37 3.37 0 00-1.361 1.806 70.011 70.011 0 01-13.5 19.983 49.648 49.648 0 01-23.938 13.182c-.25.061-.334-.18-.127-.36a62.568 62.568 0 0020.928-15.891 66.643 66.643 0 0011.359-18.238 7.123 7.123 0 00.63-1.745c.056-.362-.215-.542-.938-.542-1.084 0-2.617.18-5.671.481-2.685.241-4.649.482-6.611.722a46.12 46.12 0 01-8.949 10.413 38.1 38.1 0 01-10.928 6.862c-.181.056-.334-.124-.125-.304z"/><path class="a" d="M14.118 51.612a.435.435 0 01-.422-.279.536.536 0 01.186-.583.281.281 0 01.063-.041 65.638 65.638 0 0011.414-6.923 60.752 60.752 0 009.422-8.9 66.586 66.586 0 0011.313-18.162v-.005a6.861 6.861 0 00.61-1.675.128.128 0 00-.01-.1c-.017-.02-.131-.122-.651-.122-.86 0-2.055.12-4.035.319l-1.608.16c-2.625.236-4.586.475-6.478.706a46.327 46.327 0 01-8.926 10.362 38.25 38.25 0 01-11.006 6.91l-.021.007a.526.526 0 01-.159.025.434.434 0 01-.416-.275.476.476 0 01.172-.53l.013-.011a53.835 53.835 0 009.395-9.281 71.257 71.257 0 007.832-12.292v-.005a34.193 34.193 0 002.922-6.951c.07-.456-.057-.794-.928-1.27a.742.742 0 01-.494-.836c.089-.566.918-1.088 1.4-1.349l.015-.007a5.23 5.23 0 012.238-.507 5.061 5.061 0 013.457 1.449c1.224.937 1.816 1.99 1.666 2.968a2.529 2.529 0 01-1.09 1.554l-.011.009a4.976 4.976 0 00-1.5 1.956 38.257 38.257 0 01-2.125 3.943c1.026-.078 1.8-.161 2.964-.285.429-.046.909-.1 1.47-.155.831-.1 1.522-.186 2.131-.262 1.208-.151 2.08-.26 3.022-.341a4.4 4.4 0 002.3-.8 3.151 3.151 0 011.54-.521c.873 0 2.018.8 3.142 2.209a4.312 4.312 0 011.332 3.292 2.3 2.3 0 01-1.112 1.571c-.618.44-.742.577-1.267 1.695A83.336 83.336 0 0145.76 29.21a60.87 60.87 0 01-7.434 9.13 48.27 48.27 0 01-10.847 8.174 53.836 53.836 0 01-13.221 5.082.6.6 0 01-.14.016zm32.494-34.67a67.153 67.153 0 01-11.409 18.314 61.305 61.305 0 01-9.507 8.977 65.909 65.909 0 01-10.727 6.6 52.726 52.726 0 0012.239-4.813 47.716 47.716 0 0010.722-8.08 60.307 60.307 0 007.364-9.046 82.772 82.772 0 006.076-10.858 3.644 3.644 0 011.452-1.915 1.768 1.768 0 00.881-1.2 3.868 3.868 0 00-1.208-2.847v-.006c-.987-1.234-2.024-2-2.706-2a2.653 2.653 0 00-1.259.445 4.923 4.923 0 01-2.527.877c-.935.081-1.8.19-3.005.34-.61.076-1.3.162-2.138.263l-1.473.155a84.607 84.607 0 01-3.55.328.281.281 0 01-.262-.14.28.28 0 01.011-.3 34.252 34.252 0 002.4-4.36l.008-.015a5.516 5.516 0 011.646-2.126c.625-.541.83-.779.9-1.211.117-.767-.4-1.634-1.461-2.443l-.017-.014A4.532 4.532 0 0035.971.555a4.678 4.678 0 00-1.995.452c-.83.447-1.088.808-1.108.937-.012.08-.024.156.171.239l.025.012c.837.455 1.365.945 1.225 1.855a34.051 34.051 0 01-2.986 7.134 71.8 71.8 0 01-7.892 12.385 54.872 54.872 0 01-8.817 8.853 38.217 38.217 0 0010.035-6.473 46.075 46.075 0 008.9-10.357.28.28 0 01.2-.121l.07-.009c1.914-.234 3.892-.476 6.55-.714l1.6-.16c2.066-.208 3.2-.322 4.092-.322a1.348 1.348 0 011.077.318.654.654 0 01.138.547 7.31 7.31 0 01-.644 1.811zM11.915 75.455a2.221 2.221 0 002.485 1.444 54.24 54.24 0 006.421-.661c4.124-.6 7.74-1.024 11.5-1.566a13.665 13.665 0 004.968-1.384 4.136 4.136 0 011.787-.662c.842 0 2.31 1.024 3.693 2.588a3.643 3.643 0 011.087 2.709 1.743 1.743 0 01-.927 1.325c-.736.481-.885.661-1.627 2.347a54.383 54.383 0 01-12.85 17.756 44.689 44.689 0 01-20.286 10.172c-.309.061-.374-.3-.116-.421A49.581 49.581 0 0026.144 95.98a57.836 57.836 0 009.362-15.048 16.96 16.96 0 00.969-2.769c.055-.36-.1-.481-.467-.481a21.969 21.969 0 00-3.125.36 144.713 144.713 0 00-14.259 2.709 19.051 19.051 0 01-4.394.783 3.537 3.537 0 01-3.512-4.153 4.219 4.219 0 01.9-1.926c.144-.181.205-.181.297 0zm5.152-12.339a5.128 5.128 0 003.14.722 64.435 64.435 0 0010.323-1.384c3.293-.662 3.733-.783 5.205-1.746a3.738 3.738 0 011.819-.481 7.6 7.6 0 013.31.783 2.022 2.022 0 011.179 2.106c-.251 1.625-1.289 2.106-5.714 2.709-1.043.119-2.335.3-4.047.481-2.152.3-3.754.543-6.027.844a30.966 30.966 0 01-4.219.421 5 5 0 01-5.178-4.273c-.031-.182.098-.241.209-.182z"/><path class="a" d="M37.554 59.947a7.841 7.841 0 013.437.813l.02.011a2.283 2.283 0 011.309 2.387 2.318 2.318 0 01-1.449 1.949 16.624 16.624 0 01-4.5 1h-.006c-.378.043-.8.1-1.245.152-.8.1-1.711.214-2.8.329-.753.105-1.442.2-2.109.3-1.253.179-2.437.349-3.913.544a30.05 30.05 0 01-4.258.424 5.573 5.573 0 01-3.681-1.279 5.292 5.292 0 01-1.774-3.23.466.466 0 01.09-.386.4.4 0 01.31-.143.458.458 0 01.216.056l.014.008a4.9 4.9 0 002.993.68 64.047 64.047 0 0010.27-1.383c3.252-.654 3.658-.758 5.107-1.706l.019-.011a4.03 4.03 0 011.95-.515zm3.173 1.308a7.371 7.371 0 00-3.173-.747 3.474 3.474 0 00-1.675.441c-1.522.995-2.007 1.119-5.294 1.78a64.574 64.574 0 01-10.378 1.39 5.607 5.607 0 01-3.023-.609 4.712 4.712 0 004.853 3.781 31.4 31.4 0 004.177-.418h.005c1.474-.2 2.657-.364 3.909-.543.669-.1 1.36-.195 2.115-.3h.009c1.086-.114 1.993-.228 2.794-.328.446-.056.867-.109 1.248-.152 4.516-.615 5.26-1.106 5.471-2.473a1.731 1.731 0 00-1.038-1.822zm-1.656 11.091c.93 0 2.462 1.053 3.9 2.683a3.9 3.9 0 011.15 2.933 2.02 2.02 0 01-1.042 1.51l-.009.006c-.677.443-.792.563-1.523 2.226v.008A54.749 54.749 0 0128.63 99.557a42.93 42.93 0 01-9.278 6.3 48.833 48.833 0 01-11.131 3.936h-.009a.628.628 0 01-.121.012.475.475 0 01-.478-.371.531.531 0 01.311-.592h.006a49.4 49.4 0 0017.994-13.049 57.7 57.7 0 009.315-14.974 17.439 17.439 0 00.951-2.7.344.344 0 000-.132.47.47 0 00-.193-.026 21.955 21.955 0 00-3.079.356h-.011a143.93 143.93 0 00-14.233 2.7 19.052 19.052 0 01-4.456.79 3.828 3.828 0 01-2.916-1.32 3.916 3.916 0 01-.873-3.156 4.451 4.451 0 01.953-2.053l.006-.008a.528.528 0 01.389-.239.443.443 0 01.377.286c.6 1.1.936 1.294 2.237 1.294a52.627 52.627 0 006.382-.658c2.18-.319 4.23-.588 6.212-.849 1.807-.237 3.514-.462 5.282-.717a13.445 13.445 0 004.874-1.353 4.393 4.393 0 011.93-.688zm3.481 3.052c-1.3-1.467-2.729-2.491-3.481-2.491a3.959 3.959 0 00-1.657.63 13.872 13.872 0 01-5.055 1.413 406.3 406.3 0 01-5.292.718c-1.98.26-4.028.529-6.206.848a52.984 52.984 0 01-6.461.664 2.443 2.443 0 01-2.648-1.44 3.8 3.8 0 00-.761 1.684 3.356 3.356 0 00.744 2.705 3.225 3.225 0 002.491 1.125 18.78 18.78 0 004.329-.775 144.469 144.469 0 0114.282-2.713 22.422 22.422 0 013.167-.363.788.788 0 01.62.22.69.69 0 01.125.583 17.176 17.176 0 01-.987 2.832v.007a58.26 58.26 0 01-9.408 15.121 49.767 49.767 0 01-17.6 12.931 47.817 47.817 0 0010.353-3.736 42.375 42.375 0 009.158-6.219 54.2 54.2 0 0012.781-17.663c.739-1.679.917-1.935 1.723-2.462.644-.459.741-.7.808-1.136a3.38 3.38 0 00-1.025-2.483zm-2.304 59.818a62.839 62.839 0 01-21.327 19.261c-5.608 3.19-11.937 5.6-14.705 5.6a3.733 3.733 0 01-3.934-3.371 24.721 24.721 0 01.406-3.791c.439-3.251.816-6.079 1.3-9.209.5-3.251.891-5.778 1.424-8.849.4-2.227.79-4.333 1.351-7.584.2-1.264.1-1.444-.856-1.866-.564-.24-.778-.421-.739-.661a3.97 3.97 0 011.323-1.566 3.9 3.9 0 012.238-.842 4.85 4.85 0 013.34 1.746 3.7 3.7 0 011.2 2.769 2.176 2.176 0 01-.754 1.384 2.462 2.462 0 00-.968 1.986c-1.287 6.381-1.889 9.511-3.058 17.095a47.271 47.271 0 00-.675 5.537c-.046 1.084.216 1.325.939 1.325 1.986 0 8.375-2.408 13.807-5.236a77.815 77.815 0 0019.366-13.963c.216-.244.488-.065.322.235z"/><path class="a" d="M6.728 122.058a5.085 5.085 0 013.543 1.832l.011.013a3.945 3.945 0 011.261 2.993 2.452 2.452 0 01-.829 1.535l-.01.01-.022.021c-.594.563-.685.65-.862 1.8v.013c-1.3 6.439-1.9 9.58-3.056 17.082a46.012 46.012 0 00-.672 5.5v.006c-.021.49.026.787.143.909.082.085.241.123.516.123 1.961 0 8.353-2.432 13.677-5.2a77.4 77.4 0 0019.294-13.909.569.569 0 01.415-.2.435.435 0 01.38.215.551.551 0 01-.022.554l-.013.021a58.979 58.979 0 01-9.3 10.652 69.252 69.252 0 01-12.12 8.7c-5.648 3.212-12.029 5.635-14.844 5.635a4.018 4.018 0 01-4.214-3.641v-.017a25.068 25.068 0 01.409-3.825l.074-.551c.413-3.062.77-5.707 1.226-8.661.494-3.208.885-5.742 1.425-8.854l.144-.791c.351-1.931.713-3.928 1.207-6.792a2.294 2.294 0 00.027-1.083c-.071-.154-.246-.271-.72-.479s-.983-.463-.9-.962a4.144 4.144 0 011.427-1.742l.008-.006a4.186 4.186 0 012.397-.901zm3.132 2.214a4.549 4.549 0 00-3.132-1.653 3.635 3.635 0 00-2.069.786 3.943 3.943 0 00-1.215 1.385c0 .013 0 .117.572.36 1.094.482 1.237.785 1.024 2.167a690.892 690.892 0 01-1.209 6.8l-.143.789c-.539 3.1-.929 5.636-1.423 8.841-.455 2.949-.812 5.591-1.224 8.651l-.075.553v.005a24.692 24.692 0 00-.4 3.746 3.463 3.463 0 003.654 3.093c2.73 0 8.993-2.391 14.567-5.561a68.691 68.691 0 0012.016-8.618 58.585 58.585 0 008.749-9.877 78 78 0 01-18.868 13.458c-5.482 2.855-11.864 5.267-13.934 5.267a1.232 1.232 0 01-.921-.3 1.723 1.723 0 01-.3-1.318 46.4 46.4 0 01.678-5.571c1.158-7.511 1.759-10.657 3.059-17.1a2.712 2.712 0 011.029-2.119l.017-.016a1.9 1.9 0 00.675-1.228 3.458 3.458 0 00-1.128-2.54zm30.781 45.072a9.048 9.048 0 01-8.623 7.524 6.293 6.293 0 01-6.363-7.524 9.046 9.046 0 018.675-7.463 6.21 6.21 0 016.311 7.463zm-13 0a4.563 4.563 0 004.682 5.537 6.57 6.57 0 006.331-5.537 4.538 4.538 0 00-4.631-5.478 6.568 6.568 0 00-6.381 5.478z"/><path class="a" d="M34.33 161.601a6.626 6.626 0 015.14 2.242 6.774 6.774 0 011.448 5.545 9.216 9.216 0 01-3.087 5.488 8.879 8.879 0 01-5.812 2.274 6.664 6.664 0 01-5.165-2.271 6.816 6.816 0 01-1.476-5.576 9.072 9.072 0 013.115-5.459 9.017 9.017 0 015.837-2.243zm-2.311 14.987a8.319 8.319 0 005.443-2.135 8.655 8.655 0 002.9-5.151 6.222 6.222 0 00-1.32-5.094 6.074 6.074 0 00-4.712-2.047 8.457 8.457 0 00-5.472 2.107 8.512 8.512 0 00-2.926 5.119 6.264 6.264 0 001.347 5.126 6.112 6.112 0 004.739 2.075zm2.006-13a4.944 4.944 0 013.837 1.663 5.055 5.055 0 011.071 4.138 6.862 6.862 0 01-2.288 4.111 6.6 6.6 0 01-4.32 1.664 5.007 5.007 0 01-3.89-1.671 5.116 5.116 0 01-1.069-4.19 6.737 6.737 0 012.289-4.06 6.721 6.721 0 014.369-1.657zm-1.7 11.015a6.3 6.3 0 006.054-5.3 4.5 4.5 0 00-.942-3.687 4.392 4.392 0 00-3.412-1.467 6.3 6.3 0 00-6.105 5.24 4.565 4.565 0 00.941 3.739 4.456 4.456 0 003.463 1.473z"/></svg>