<svg xmlns="http://www.w3.org/2000/svg" width="102.152" height="34.222"><path d="M.066 21.448A35.607 35.607 0 006.31 15.28a47.233 47.233 0 005.2-8.157 22.665 22.665 0 001.95-4.655c.068-.438-.128-.716-.715-1.035a.31.31 0 01-.224-.358c.031-.2.313-.477.833-.756A3.266 3.266 0 0114.756 0a3.176 3.176 0 012.167.915c.784.6 1.124 1.234 1.037 1.792-.055.358-.245.556-.658.915a3.465 3.465 0 00-1.045 1.353 23.067 23.067 0 01-1.6 2.905c1.166-.08 1.775-.16 3.312-.319 1.663-.2 2.476-.319 3.4-.4a3.094 3.094 0 001.6-.557 1.938 1.938 0 01.924-.318 3.129 3.129 0 011.935 1.394 2.672 2.672 0 01.841 2.029 1.347 1.347 0 01-.659.916 2.231 2.231 0 00-.9 1.194 46.282 46.282 0 01-8.923 13.211A32.834 32.834 0 01.358 33.744c-.165.04-.22-.12-.083-.24A41.36 41.36 0 0014.113 23a44.032 44.032 0 007.511-12.057 4.79 4.79 0 00.417-1.154c.036-.239-.145-.359-.621-.359-.717 0-1.73.12-3.75.319-1.775.16-3.073.319-4.371.477a30.52 30.52 0 01-5.917 6.884 25.2 25.2 0 01-7.228 4.537c-.125.04-.225-.079-.088-.199zm35.719-9.947a1.47 1.47 0 001.644.955 35.882 35.882 0 004.245-.437c2.728-.4 5.118-.676 7.6-1.035a9.032 9.032 0 003.285-.915 2.733 2.733 0 011.183-.435 4.519 4.519 0 012.443 1.712 2.408 2.408 0 01.719 1.791 1.156 1.156 0 01-.613.875c-.487.319-.585.437-1.075 1.552a35.963 35.963 0 01-8.5 11.739 29.543 29.543 0 01-13.411 6.72c-.205.04-.248-.2-.076-.278a32.8 32.8 0 0011.963-8.676 38.247 38.247 0 006.19-9.947 11.325 11.325 0 00.641-1.831c.036-.239-.071-.319-.309-.319a14.415 14.415 0 00-2.067.24 95.342 95.342 0 00-9.425 1.79 12.614 12.614 0 01-2.905.517 2.338 2.338 0 01-2.325-2.745 2.791 2.791 0 01.594-1.273c.098-.119.136-.119.199 0zm3.407-8.157a3.388 3.388 0 002.076.477 42.677 42.677 0 006.826-.915c2.177-.437 2.468-.517 3.442-1.153a2.467 2.467 0 011.203-.319 5.023 5.023 0 012.183.517 1.335 1.335 0 01.78 1.392c-.16 1.075-.847 1.391-3.773 1.791-.689.08-1.543.2-2.676.319-1.424.2-2.482.358-3.985.557a20.343 20.343 0 01-2.789.279 3.306 3.306 0 01-3.424-2.826c-.021-.119.067-.159.137-.119zm55.322 10.265a41.528 41.528 0 01-14.1 12.733c-3.708 2.109-7.893 3.7-9.723 3.7a2.469 2.469 0 01-2.603-2.227 16.493 16.493 0 01.267-2.507c.292-2.149.54-4.019.86-6.088.332-2.149.589-3.82.942-5.849.267-1.472.522-2.865.893-5.014.128-.835.067-.955-.566-1.233-.374-.159-.515-.278-.49-.437a2.629 2.629 0 01.877-1.036 2.575 2.575 0 011.479-.557 3.21 3.21 0 012.21 1.154 2.45 2.45 0 01.792 1.831 1.453 1.453 0 01-.5.915 1.625 1.625 0 00-.64 1.313c-.85 4.218-1.249 6.287-2.024 11.301a31.208 31.208 0 00-.446 3.661c-.031.716.143.876.62.876 1.313 0 5.539-1.592 9.13-3.462a51.49 51.49 0 0012.809-9.233c.144-.156.325-.039.213.159zm7.577 15.639a5.982 5.982 0 01-5.7 4.974 4.16 4.16 0 01-4.209-4.974 5.98 5.98 0 015.741-4.934 4.106 4.106 0 014.168 4.934zm-8.6 0a3.018 3.018 0 003.1 3.661 4.345 4.345 0 004.187-3.661 3 3 0 00-3.062-3.622 4.343 4.343 0 00-4.22 3.622z" fill="#00a2e9"/></svg>