<svg xmlns="http://www.w3.org/2000/svg" width="129.057" height="47.076"><path d="M.147 37.751c7.592-4.179 11.956-8.295 16.016-14.6a28.655 28.655 0 004.551-10.74c.2-1.286.056-1.608-1.172-1.993-.548-.194-.786-.321-.737-.642a2.267 2.267 0 011.109-1.351 4.924 4.924 0 012.37-.772c2.7 0 4.974 3.6 4.43 7.137-.456 2.958-3.214 7.91-6.575 11.77C15.352 32.154 9.776 35.37.28 38.136a.205.205 0 11-.133-.385zm37.43-34.984c6.187 1.993 10.54 5.465 13.358 10.546a25.944 25.944 0 012.882 15.5c-.465 3.023-2.4 5.146-4.652 5.146a1.959 1.959 0 01-2.131-1.609 8.83 8.83 0 01.012-3.407c.63-6.174.266-11.319-1.384-15.627a21.419 21.419 0 00-8.337-10.16c-.229-.196-.06-.453.252-.389zm76.058 10.995a67.117 67.117 0 01-22.79 20.579c-5.992 3.409-12.756 5.982-15.714 5.982a3.991 3.991 0 01-4.2-3.6 26.649 26.649 0 01.432-4.051c.471-3.473.874-6.495 1.39-9.839.536-3.473.952-6.174 1.522-9.453.431-2.379.844-4.631 1.444-8.1.207-1.349.11-1.543-.914-1.993-.6-.257-.832-.449-.791-.707A4.23 4.23 0 0175.428.908a4.164 4.164 0 012.391-.9 5.189 5.189 0 013.571 1.866c.979 1.157 1.409 2.122 1.28 2.959a2.349 2.349 0 01-.808 1.479 2.627 2.627 0 00-1.034 2.122c-1.373 6.816-2.019 10.16-3.268 18.263a50.445 50.445 0 00-.72 5.917c-.05 1.157.231 1.416 1 1.416 2.122 0 8.952-2.573 14.755-5.594a83.218 83.218 0 0020.7-14.922c.226-.268.52-.068.34.248zm.998 18.973a.7.7 0 01.668-.579c3.913.9 7.939 2.315 10.57 4.437 2.468 1.93 3.472 4.18 3.115 6.5a4.512 4.512 0 01-4.478 3.987c-1.8 0-2.612-1.415-2.963-2.894a17.875 17.875 0 00-6.566-10.8.676.676 0 01-.346-.651z" fill="#fff"/></svg>