<svg xmlns="http://www.w3.org/2000/svg" width="99.642" height="16.457"><path d="M2.8 11.14c-1.017.531-1.439 1.008-1.555 1.758-.152.989.534 1.649 1.743 1.649a3.7 3.7 0 001.225-.218 1.379 1.379 0 01.49-.092c.531 0 1 .422.933.843-.09.586-1.22 1.025-2.595 1.025-2.034 0-3.247-1.044-3.012-2.564.189-1.228 1.146-2.089 2.744-2.473.074-.002.087.034.027.072zM7 4.709a5.357 5.357 0 002.132.788 1.25 1.25 0 00.413-.073 2.117 2.117 0 01.281-.036.543.543 0 01.6.623c-.1.659-1.107 1.355-2.795 1.96a7.026 7.026 0 00.4.971c.648 1.264.724 1.484.625 2.125a2.041 2.041 0 01-1.8 1.667c-.256 0-.336-.073-.468-.532-.085-.274-.178-.385-.566-.6a7.837 7.837 0 00-1.3-.586c-.053-.019-.026-.074.03-.074a17.165 17.165 0 001.856.2c.459 0 .7-.165.761-.531a2.317 2.317 0 00-.231-1.118c-.111-.348-.288-.86-.385-1.191a14.12 14.12 0 01-3.569.567c-1.52 0-2.5-.787-2.458-2 .008-.055.046-.055.076-.019a1.922 1.922 0 001.919.861 13.873 13.873 0 003.747-.642A21.279 21.279 0 016 4.856a5.521 5.521 0 01-1.77.311c-1.228 0-2.079-.659-2.109-1.649.006-.036.023-.036.058-.019a2.015 2.015 0 001.412.587 6.84 6.84 0 002.361-.568c0-.476 0-.586-.02-1.3C5.92 1.246 5.7.898 5.075.898a1.061 1.061 0 00-.6.183c-.04.019-.073 0-.05-.036A1.8 1.8 0 016.019.129c.916 0 1.336.6 1.174 1.777-.051.33-.078.623-.142 1.154a1.765 1.765 0 011.025-.348c.513 0 .756.2.7.586-.088.568-.854.9-1.787 1.246zm1.513 1.465A22.127 22.127 0 007 4.929a8.1 8.1 0 00.248 1.832 4.932 4.932 0 001.265-.587zm5.563 2.675a.62.62 0 00.483.311c.256 0 .552-.128 1.608-.678a31.527 31.527 0 012.978-1.374 8.1 8.1 0 013.014-.659 3.3 3.3 0 013.3 4.048c-.426 2.752-2.931 4.489-6.754 4.691-.388.019-.7.019-1.154 0-.052-.019-.044-.073.014-.091a11.152 11.152 0 003.171-.953 5.17 5.17 0 003.153-3.811c.287-1.869-.504-3.151-1.97-3.151-.88 0-1.719.33-3.524 1.575-.736.5-1.39.934-1.936 1.264a2.758 2.758 0 01-1.352.568 1.227 1.227 0 01-1.235-1.374 1.5 1.5 0 01.13-.366c.024-.037.043-.037.074 0zM33.083.036c.125.257.19.312.88.586a1.906 1.906 0 011.339 2.492c-.022.147-.111.6-.212 1.136-.152.75-.259 1.319-.3 1.612-.2 1.319-.1 1.722.467 1.722a2.665 2.665 0 001.243-.475 1.68 1.68 0 01.93-.33.869.869 0 01.919.934c-.059.385-.3.6-.834.769a11.482 11.482 0 01-1.163.293 8.944 8.944 0 00-1.44.422 9.345 9.345 0 00-2.888 1.612 2.8 2.8 0 00-1.107 1.722c-.177 1.154.695 1.8 2.417 1.8a11.159 11.159 0 002.773-.4 3.176 3.176 0 01.733-.111c.567 0 .963.293.9.715-.119.769-1.685 1.3-3.774 1.3-2.842-.006-4.21-1.126-3.899-3.139.249-1.612 1.415-2.876 3.971-4.361-.677-.367-.854-.88-.7-1.887.048-.311.151-.861.308-1.52.247-1.008.351-1.447.425-1.924a1.867 1.867 0 00.019-.842c-.06-.2-.221-.348-.532-.586A1.3 1.3 0 0132.947.33a1.761 1.761 0 01.063-.294c.024-.036.06-.036.073 0zm12.092 10.717l-.169 1.1c-.074.476-.453.678-1.095.678-.586 0-.7-.2-.646-.568.162-1.044.433-2.327 1.088-6.563.252-1.631.486-3.261.648-4.91a12.657 12.657 0 011.735.989h2.435c.717-.728.882-.838 1.028-.838.183 0 .331.111.915.6.275.238.364.367.342.514s-.11.238-.567.586l-.23 1.487c-.61 3.958-.959 6.815-1.1 7.713-.073.476-.437.7-1.115.7-.5 0-.692-.147-.627-.567l.141-.917zm3.495-4.6h-2.785l-.645 4.177h2.785zm.656-4.253H46.54l-.587 3.834h2.782zm3.727 7.828a11.437 11.437 0 01-.96 2.18 10.855 10.855 0 01-5.262 4.544c-.1.037-.222-.11-.14-.164a12.122 12.122 0 003.968-4.618c.891-1.741 1.249-3.7 1.806-7.31.257-1.667.4-2.8.544-4.36a11.493 11.493 0 011.855 1.044h3.445c.776-.751.939-.861 1.086-.861.183 0 .313.11.943.659.272.256.362.384.34.531-.026.165-.089.22-.577.531l-.158 1.026c-1.524 9.875-1.57 10.534-1.726 11.542a1.776 1.776 0 01-.959 1.575 2.823 2.823 0 01-1.394.367c-.348 0-.395-.056-.4-.367-.013-.751-.416-.989-1.77-1.356-.089-.019-.058-.219.034-.219.981.055 1.675.072 2.389.072.256 0 .319-.054.359-.311l.7-4.506zm.969-4.14c-.229 1.245-.476 2.492-.83 3.719h4.048l.575-3.719zm4.428-4.122h-3.797l-.116.751a85.06 85.06 0 01-.455 2.949h3.793zm7.761 12.989l-.13.842c-.082.532-.479.733-1.212.733-.568 0-.763-.164-.695-.6.231-1.5.576-3.022 1.508-9.069.306-1.978.593-3.957.825-5.935a9.427 9.427 0 011.965 1.04h7.089c.9-.825 1.062-.934 1.209-.934.183 0 .313.11.968.733.284.293.375.422.352.567-.029.184-.176.312-.64.587l-.322 2.088c-.853 5.533-1.331 9.343-1.526 10.607-.082.531-.519.751-1.253.751-.586 0-.76-.183-.694-.6l.124-.806zm8.563-6.448h-7.568l-.93 6.027h7.568zm.944-6.12h-7.569l-.879 5.7h7.569zM85.867.257A1.18 1.18 0 0186.4.129a1.762 1.762 0 011.676 1.96 2.308 2.308 0 01-.343.916c-.236.459-.457.825-.669 1.246.651.055.97.366.888.9-.066.421-.2.567-.865.732a34.87 34.87 0 01-.853.184 96.853 96.853 0 00-1.265 3.332 4.182 4.182 0 00.967-.092 1.639 1.639 0 01.449-.055c.6 0 .91.275.842.715-.091.585-.969.933-2.313.97a3.306 3.306 0 01-.381-.018c-.108.458-.165.714-.216 1.044-.28 1.814.468 2.785 2.1 2.785a3.144 3.144 0 003.152-2.619c.24-1.558-.551-3.206-2.3-4.8a.061.061 0 01.07-.092c2.624 1.283 4.038 3.28 3.734 5.258a4.677 4.677 0 01-4.66 3.72c-2.4 0-3.534-1.447-3.138-4.013a10.958 10.958 0 01.309-1.41 1.927 1.927 0 01-1.126-2.218 2.287 2.287 0 01.22-.714.046.046 0 01.088.019c-.009.9.313 1.3 1.256 1.484.38-1.154.666-1.943 1.083-3.1a11.585 11.585 0 00-1.67.6c-.058.019-.088-.019-.046-.055a10.55 10.55 0 011.956-1.279 2.546 2.546 0 01-1.53-.532 1.247 1.247 0 01-.268-1.117 2.1 2.1 0 01.1-.4c.023-.037.043-.037.055 0a.827.827 0 00.508.623 4.134 4.134 0 001.613.148 14.3 14.3 0 00.7-2.29 1.382 1.382 0 00-.668-1.632c-.032-.017-.032-.053.012-.072zM95.531 12.2a.2.2 0 01.192-.164 7.784 7.784 0 013.008 1.264 1.948 1.948 0 01.887 1.851 1.285 1.285 0 01-1.27 1.136c-.514 0-.744-.4-.844-.825a5.1 5.1 0 00-1.873-3.078.193.193 0 01-.1-.184z" fill="#00a2e9"/></svg>