<svg xmlns="http://www.w3.org/2000/svg" width="79.854" height="29.128"><path d="M.093 23.357A24.945 24.945 0 0010 14.325a17.73 17.73 0 002.816-6.645c.123-.8.034-.995-.725-1.233-.339-.12-.487-.2-.456-.4a1.4 1.4 0 01.686-.836 3.047 3.047 0 011.469-.476c1.671 0 3.078 2.228 2.741 4.416-.282 1.831-1.989 4.895-4.068 7.283C9.5 19.896 6.051 21.885.175 23.597a.127.127 0 11-.082-.24zM23.25 1.711a13.752 13.752 0 018.265 6.525 16.053 16.053 0 011.783 9.59c-.288 1.871-1.485 3.184-2.878 3.184a1.212 1.212 0 01-1.319-1 5.463 5.463 0 01.007-2.108 21 21 0 00-.856-9.669 13.254 13.254 0 00-5.158-6.283c-.141-.12-.037-.279.156-.239zm47.062 6.804a41.529 41.529 0 01-14.1 12.733c-3.708 2.109-7.893 3.7-9.723 3.7a2.469 2.469 0 01-2.603-2.227 16.494 16.494 0 01.267-2.507c.292-2.149.541-4.019.86-6.088.332-2.149.589-3.82.942-5.849.266-1.472.522-2.865.893-5.014.128-.835.068-.955-.566-1.233-.373-.159-.515-.278-.489-.437a2.618 2.618 0 01.876-1.036A2.577 2.577 0 0148.148 0a3.211 3.211 0 012.21 1.154 2.45 2.45 0 01.792 1.831 1.454 1.454 0 01-.5.915 1.625 1.625 0 00-.64 1.313c-.85 4.218-1.249 6.287-2.024 11.301a31.218 31.218 0 00-.446 3.661c-.031.716.143.876.62.876 1.313 0 5.539-1.592 9.13-3.462a51.491 51.491 0 0012.809-9.233c.144-.156.325-.039.213.159zm.614 11.739a.431.431 0 01.418-.358 16.857 16.857 0 016.54 2.745 4.231 4.231 0 011.927 4.02 2.792 2.792 0 01-2.769 2.467c-1.116 0-1.616-.876-1.833-1.791a11.061 11.061 0 00-4.062-6.685.418.418 0 01-.221-.398z" fill="#00a2e9"/></svg>