<svg xmlns="http://www.w3.org/2000/svg" width="317" height="155" viewBox="0 0 317 155"><g transform="translate(-15079.022 -9445)"><g transform="translate(10 7)"><path d="M0,0V315" transform="translate(15385.022 9541) rotate(90)" fill="none" stroke="#fff" stroke-linecap="square" stroke-width="2" stroke-dasharray="4 8"/><path d="M0,0V315" transform="translate(15385.022 9592) rotate(90)" fill="none" stroke="#fff" stroke-linecap="square" stroke-width="2" stroke-dasharray="4 8"/><path d="M0,0V315" transform="translate(15385.022 9490) rotate(90)" fill="none" stroke="#fff" stroke-linecap="square" stroke-width="2" stroke-dasharray="4 8"/><path d="M0,0V315" transform="translate(15385.022 9439) rotate(90)" fill="none" stroke="#fff" stroke-linecap="square" stroke-width="2" stroke-dasharray="4 8"/></g><path d="M7.756,6.26V6.9H5.74a10.23,10.23,0,0,1-1.2-.056v1.26a9.218,9.218,0,0,1,1.2-.056H7.686A5.644,5.644,0,0,1,7.6,8.71H5.18a8.394,8.394,0,0,1-1.33-.07v1.386a13.456,13.456,0,0,1,1.344-.07h2a2.878,2.878,0,0,1-1.064,1.022,6.551,6.551,0,0,1-2.646.826A4.336,4.336,0,0,1,4.13,13.19a7.342,7.342,0,0,0,3.024-1.246,4.6,4.6,0,0,0,1.3-1.442,7.982,7.982,0,0,0,4.606,2.716,6.073,6.073,0,0,1,.588-1.484,7.907,7.907,0,0,1-2.282-.6A4.979,4.979,0,0,1,9.674,9.956H12.04a9.59,9.59,0,0,1,1.344.084V8.64a10.192,10.192,0,0,1-1.33.07H9.044c.042-.28.056-.378.084-.658H11.48a10.541,10.541,0,0,1,1.2.056V6.848a9.929,9.929,0,0,1-1.2.056h-2.3l.028-.644h2.66a10.287,10.287,0,0,1,1.19.056v-1.3a9.256,9.256,0,0,1-1.19.056H10.766a11.4,11.4,0,0,0,.546-1.12h.938a10.287,10.287,0,0,1,1.19.056V2.578a8.3,8.3,0,0,1-1.19.07h-2V1.514A5.577,5.577,0,0,1,10.332.282H8.918a9.255,9.255,0,0,1,.056,1.246v1.12H8.218V1.514A8.14,8.14,0,0,1,8.274.282h-1.4a9.214,9.214,0,0,1,.07,1.246v1.12H5.152a7.138,7.138,0,0,1-1.19-.07V4.006a11.2,11.2,0,0,1,1.2-.056h.6a8.661,8.661,0,0,1,.5,1.12H5.306a9.683,9.683,0,0,1-1.19-.056v1.3a11.2,11.2,0,0,1,1.2-.056Zm0-1.19a9.893,9.893,0,0,0-.462-1.12H9.758a6.689,6.689,0,0,1-.5,1.12ZM1.834,11.524A12.021,12.021,0,0,1,1.75,13.19H3.36a15.127,15.127,0,0,1-.07-1.708V3.67A18.22,18.22,0,0,0,4.2,1.262C4.3.94,4.326.9,4.382.744L2.856.156a8.175,8.175,0,0,1-.462,1.75A11.061,11.061,0,0,1,.266,5.616,7.172,7.172,0,0,1,.9,7.338a10.32,10.32,0,0,0,.98-1.47c-.042.56-.042.84-.042,1.778ZM4.55.9a7.561,7.561,0,0,1,.882,1.68l1.19-.518A8.364,8.364,0,0,0,5.67.366ZM11.676.422A6.736,6.736,0,0,1,10.71,2.2l1.246.406A9.569,9.569,0,0,0,12.992.912Zm11.536,2.6a3.06,3.06,0,0,1,1.414.42,3.468,3.468,0,0,1,1.722,3.108,3.92,3.92,0,0,1-1.946,3.5,7.44,7.44,0,0,1-2.786.77,4.466,4.466,0,0,1,.854,1.638,9.153,9.153,0,0,0,2.2-.588,5.393,5.393,0,0,0,3.4-5.222c0-3.15-2.184-5.194-5.544-5.194a6.285,6.285,0,0,0-4.816,1.96,6.014,6.014,0,0,0-1.54,4.074c0,2.254,1.148,3.878,2.744,3.878,1.148,0,2.044-.826,2.842-2.632A20.254,20.254,0,0,0,23.212,3.026ZM21.5,3.04a18.451,18.451,0,0,1-1.162,4.732c-.5,1.2-.98,1.792-1.442,1.792-.616,0-1.106-.91-1.106-2.058a4.687,4.687,0,0,1,1.9-3.78A3.564,3.564,0,0,1,21.5,3.04Zm19.642-.658v8.666c0,.308-.112.364-.784.364A12.385,12.385,0,0,1,38.64,11.3a4.261,4.261,0,0,1,.392,1.568h.518c.294.014.518.014.616.014a5.58,5.58,0,0,0,1.834-.2c.42-.168.63-.574.63-1.26V2.382c.476.014.658.014,1.036.056V.912A13.847,13.847,0,0,1,42.084,1H36.792a13.167,13.167,0,0,1-1.61-.084v1.54a15.642,15.642,0,0,1,1.624-.07Zm-7.238,1.33A28.9,28.9,0,0,0,35.126.6L33.586.058a10,10,0,0,1-.742,2.366,12.055,12.055,0,0,1-2.268,3.444,6.808,6.808,0,0,1,.784,1.568,11.451,11.451,0,0,0,1.106-1.554c-.028.574-.042.882-.042,1.568v3.906a17.024,17.024,0,0,1-.084,1.806h1.638c-.042-.518-.07-1.05-.07-1.806ZM39.872,4.9a10.633,10.633,0,0,1,.042-1.092,9.612,9.612,0,0,1-1.078.042H36.4A7.976,7.976,0,0,1,35.28,3.8a8.732,8.732,0,0,1,.056,1.134V9.214a6.891,6.891,0,0,1-.07,1.106h1.47V9.312h2.1a9.612,9.612,0,0,1,1.078.042,10.633,10.633,0,0,1-.042-1.092Zm-3.136.266H38.5V7.982H36.736ZM56.336,2.7a14.558,14.558,0,0,1,1.75.084V1.136a11.333,11.333,0,0,1-1.75.1H49.882c.364-.742.364-.742.49-.98L48.692,0a2.564,2.564,0,0,1-.308.882A10.174,10.174,0,0,1,45.85,4.048,5.76,5.76,0,0,1,46.942,5.14,13.1,13.1,0,0,0,49.028,2.7Zm-1.568,8.918c-.882-.784-1.582-1.358-2.436-2.03a11.562,11.562,0,0,0,.91-1.162c.308-.42.462-.63.6-.784l-1.5-.714a5.113,5.113,0,0,1-1.218,1.792c-.994-.672-1.456-.966-2.478-1.554l-1.022.938a24.59,24.59,0,0,1,2.436,1.6,15.633,15.633,0,0,1-3.878,2.128,5.369,5.369,0,0,1,1.05,1.316,17.138,17.138,0,0,0,4.046-2.52,30.7,30.7,0,0,1,2.436,2.156Zm.322-4.844a12.967,12.967,0,0,0,.644,4.522c.392,1.064,1.106,1.792,1.736,1.792.854,0,1.288-.9,1.512-3.094a4.188,4.188,0,0,1-1.2-.84,4.617,4.617,0,0,1-.336,2.072,1.807,1.807,0,0,1-.49-.952,13.772,13.772,0,0,1-.392-3.6,9.584,9.584,0,0,1,.07-1.274,14.339,14.339,0,0,1-1.638.056H47.88a6.917,6.917,0,0,1-1.2-.07v1.47a11.81,11.81,0,0,1,1.61-.084ZM48.622,4.692a11.634,11.634,0,0,1,1.33-.056h5.586a10.448,10.448,0,0,1,1.484.07V3.32a11.717,11.717,0,0,1-1.484.07H49.672a8.82,8.82,0,0,1-1.05-.056ZM64.75.394a14.3,14.3,0,0,1-.42,2.436c-.308.014-.546.014-.714.014a9.721,9.721,0,0,1-1.89-.126v1.6l.742.014c.294.014.378.014.56.014s.252,0,.882-.014a21.538,21.538,0,0,1-1.316,3.3,12.744,12.744,0,0,1-1.358,2.24l1.61.9c.084-.168.084-.168.266-.5.532-.98.658-1.232.98-1.918a26.873,26.873,0,0,0,1.54-4.06c.868-.07,1.722-.168,2.226-.252a2.73,2.73,0,0,1,.448-.07l-.042-1.61a12.008,12.008,0,0,1-2.24.392c.154-.616.224-.9.294-1.232a7.008,7.008,0,0,1,.224-.938Zm8.96,3.64a22.1,22.1,0,0,0-3.948-1.876l-.84,1.358a17.135,17.135,0,0,1,4.032,1.96Zm-.056,6.314a2.507,2.507,0,0,1-.21-.2,5.162,5.162,0,0,0-.49-.378,8.747,8.747,0,0,0-2.212-1.288,14.864,14.864,0,0,1-.126-1.918,4.666,4.666,0,0,1,.168-1.414L69.16,5.07a7.426,7.426,0,0,0-.112,1.414c0,.42.028.966.07,1.61a6.954,6.954,0,0,0-1.3-.126c-1.778,0-3.024.994-3.024,2.408s1.2,2.352,3.052,2.352a3.232,3.232,0,0,0,2.324-.784,2.237,2.237,0,0,0,.6-1.484c0-.056-.014-.154-.028-.28a8.467,8.467,0,0,1,2.142,1.736Zm-4.48-.77s.028.336.028.476c0,.784-.462,1.176-1.414,1.176-.868,0-1.372-.336-1.372-.91s.588-.966,1.5-.966A3.529,3.529,0,0,1,69.174,9.578ZM77.1,1.71a6.69,6.69,0,0,1,.056.9c.056,3.878.308,5.908.882,7.308.56,1.344,1.316,2.03,2.254,2.03,1.19,0,2-1.134,2.73-3.864a6.911,6.911,0,0,1-1.4-1.274,10.321,10.321,0,0,1-.742,2.534c-.168.392-.364.6-.574.6-.448,0-.9-.9-1.134-2.352A26.2,26.2,0,0,1,78.9,3.838a16.275,16.275,0,0,1,.112-2.128Zm7.07,1.33a12.22,12.22,0,0,1,1.988,3.444,14.193,14.193,0,0,1,.9,4.046l1.736-.658a13.958,13.958,0,0,0-3.15-7.532Zm8.694,8.274a14.685,14.685,0,0,1-.084,1.694h1.666v-.84h6.51v.84h1.694a14.183,14.183,0,0,1-.084-1.694V2.27a12.65,12.65,0,0,1,.07-1.428,11.265,11.265,0,0,1-1.512.07H94.346a12.359,12.359,0,0,1-1.554-.07c.042.462.07.952.07,1.5ZM94.444,2.4h6.51V5.644h-6.51Zm0,4.718h6.51V10.7h-6.51Zm17.57-4.984h-.994A10.277,10.277,0,0,0,109.9.366l-1.484.42a6.862,6.862,0,0,1,.938,1.344h-1.176a11.971,11.971,0,0,1-1.372-.056,11.587,11.587,0,0,1,.056,1.26v.924a8.109,8.109,0,0,1-.056,1.008h1.54V3.446h9.044V5.294h1.54a5.634,5.634,0,0,1-.07-.994V3.39a10.913,10.913,0,0,1,.056-1.316,11.989,11.989,0,0,1-1.5.056h-1.162c.224-.294.252-.336.658-.938a2.634,2.634,0,0,1,.224-.35L115.626.408A8.19,8.19,0,0,1,114.6,2.13h-1.078V1.276A6.964,6.964,0,0,1,113.6.268h-1.652a6.965,6.965,0,0,1,.07,1.008Zm-.028,5.292v.826h-3.038a11.308,11.308,0,0,1-1.288-.056,9.4,9.4,0,0,1,.056,1.148V11.2a13.775,13.775,0,0,1-.07,1.442H109.3a9.065,9.065,0,0,1-.07-1.4V9.592h2.758V11.72a11.453,11.453,0,0,1-.07,1.484h1.666a10.94,10.94,0,0,1-.07-1.484V9.592h3.01v1.386c0,.238-.1.294-.5.294a10.258,10.258,0,0,1-1.344-.1,3.606,3.606,0,0,1,.336,1.386c.686.042.756.042.938.042,1.722,0,2.086-.224,2.086-1.246v-1.9a9.359,9.359,0,0,1,.056-1.26,10.5,10.5,0,0,1-1.372.056h-3.206V7.422h1.946c.532,0,.966.014,1.4.042a10.849,10.849,0,0,1-.042-1.176V5.294c0-.518.014-.812.042-1.134-.364.028-.756.042-1.33.042H110.25c-.5,0-.966-.014-1.344-.042.028.294.042.658.042,1.12V6.288a11.4,11.4,0,0,1-.042,1.176c.378-.028.756-.042,1.33-.042Zm3.36-2.086v.938h-4.928V5.336ZM123.9,8.36a2.373,2.373,0,1,0,2.366,2.366A2.372,2.372,0,0,0,123.9,8.36Zm0,1.092a1.281,1.281,0,1,1-1.274,1.274A1.279,1.279,0,0,1,123.9,9.452Z" transform="translate(15079 9465)" fill="#fff"/><path d="M3.164,2.83a7.827,7.827,0,0,1,.9-.084,34.571,34.571,0,0,0,3.906-.308,26.959,26.959,0,0,1-4.3,3.444,7.3,7.3,0,0,1-.8.112c-.28.042-.462.056-.532.07-.336.042-.924.084-1.2.084A1.547,1.547,0,0,1,.91,6.134l.168,1.708a4.778,4.778,0,0,1,.644-.14c.938-.14,1.694-.238,2.254-.308.392-.056.91-.112,1.54-.2.672-.084,1.12-.154,1.722-.266A4.8,4.8,0,0,0,5.74,8a2.677,2.677,0,0,0-.756,1.82,2.624,2.624,0,0,0,1.974,2.45,9.138,9.138,0,0,0,2.6.392h.182c.392-.014.616-.014.714-.014.2,0,.364,0,.518.014l-.07-1.778a5.433,5.433,0,0,1-1.33.126c-1.806,0-2.814-.5-2.814-1.414,0-.756.77-1.61,1.9-2.128a9.458,9.458,0,0,1,3.892-.686h.42l-.1-1.638a2.319,2.319,0,0,1-.462.056c-.126.014-.49.042-.994.1-.322.028-.966.07-1.848.14-1.694.14-2.7.238-3.4.336a40.155,40.155,0,0,0,3.85-3.052,5.987,5.987,0,0,1,.812-.686L9.926.87a4.823,4.823,0,0,1-1.316.224c-1.092.084-2.9.154-4.158.154a9.451,9.451,0,0,1-1.372-.07Zm20.048.2a3.06,3.06,0,0,1,1.414.42,3.468,3.468,0,0,1,1.722,3.108,3.92,3.92,0,0,1-1.946,3.5,7.44,7.44,0,0,1-2.786.77,4.466,4.466,0,0,1,.854,1.638,9.153,9.153,0,0,0,2.2-.588,5.393,5.393,0,0,0,3.4-5.222c0-3.15-2.184-5.194-5.544-5.194a6.285,6.285,0,0,0-4.816,1.96,6.014,6.014,0,0,0-1.54,4.074c0,2.254,1.148,3.878,2.744,3.878,1.148,0,2.044-.826,2.842-2.632A20.254,20.254,0,0,0,23.212,3.026ZM21.5,3.04a18.451,18.451,0,0,1-1.162,4.732c-.5,1.2-.98,1.792-1.442,1.792-.616,0-1.106-.91-1.106-2.058a4.687,4.687,0,0,1,1.9-3.78A3.564,3.564,0,0,1,21.5,3.04Zm14.854-.448H32.676a10.787,10.787,0,0,1-1.26-.056,10.96,10.96,0,0,1,.056,1.218V8.038a10.492,10.492,0,0,1-.07,1.4h1.652V8.6h3.3V11.44a11.737,11.737,0,0,1-.1,1.736h1.792a11.013,11.013,0,0,1-.1-1.736V8.6h3.472v.84h1.652a9.635,9.635,0,0,1-.07-1.4V3.768a10.278,10.278,0,0,1,.056-1.232,10.012,10.012,0,0,1-1.274.056H37.954v-.91a10.265,10.265,0,0,1,.084-1.47H36.274a9.076,9.076,0,0,1,.084,1.526Zm0,1.484V7.114h-3.3V4.076Zm1.6,3.038V4.076h3.472V7.114Zm11.1,5.222c-.014-.182-.014-.294-.014-.378a11.493,11.493,0,0,1,1.246-4.242l-1.12-.5A14.278,14.278,0,0,0,48.44,9.06c.014-.35.028-.462.028-.77a23.375,23.375,0,0,1,.21-3.094A19.3,19.3,0,0,1,49.56,1.01l-1.848-.2a9.16,9.16,0,0,1-.21,1.3,26.877,26.877,0,0,0-.574,5.474,24.42,24.42,0,0,0,.364,4.186c.042.322.056.406.07.658ZM50.988,3.95a16.619,16.619,0,0,0,2.52.154,25.077,25.077,0,0,0,3-.168c.672-.084.882-.112.994-.126l-.084-1.694a15.438,15.438,0,0,1-3.808.378,10.094,10.094,0,0,1-2.59-.224Zm.966,2.31a4.573,4.573,0,0,0-1.288,2.884,2.345,2.345,0,0,0,.42,1.372c.616.826,1.736,1.218,3.472,1.218a17.264,17.264,0,0,0,2.9-.266,4.679,4.679,0,0,1,.574-.084l-.14-1.778a9.839,9.839,0,0,1-3.332.532c-1.456,0-2.226-.42-2.226-1.218A3.167,3.167,0,0,1,53.326,6.9ZM69.23,3.782a5.251,5.251,0,0,1-.28,1.064,3.964,3.964,0,0,0-.532-.028A7.747,7.747,0,0,0,66.486,5c.014-.294.028-.742.07-1.344a44.915,44.915,0,0,0,4.928-.49c.294-.042.35-.042.546-.056L71.96,1.5a25.369,25.369,0,0,1-5.306.742A8.242,8.242,0,0,1,66.906.52L65.17.436A.788.788,0,0,1,65.2.66c0,.266-.014.616-.028.8-.042.56-.042.56-.056.84h-.308a12.386,12.386,0,0,1-2.618-.21V3.656c.154-.014.28-.014.322-.014h.266c1.358.042,2.114.056,2.268.056-.028.672-.056,1.232-.056,1.68a5.786,5.786,0,0,0-1.918,1.26,4.4,4.4,0,0,0-1.386,3.136,2.211,2.211,0,0,0,2.184,2.45,5.35,5.35,0,0,0,3.668-2.016,12.356,12.356,0,0,0,2.436-3.724A2.053,2.053,0,0,1,71.54,8.416,2.351,2.351,0,0,1,69.9,10.6a5.8,5.8,0,0,1-2.674.56,4.51,4.51,0,0,1,.742,1.582A7.8,7.8,0,0,0,70.826,12a3.806,3.806,0,0,0,2.408-3.5A3.123,3.123,0,0,0,71.9,5.854a3.77,3.77,0,0,0-1.456-.686c.042-.126.056-.14.2-.532a3.233,3.233,0,0,1,.168-.406ZM65.016,6.974a15.356,15.356,0,0,0,.252,3.164,1.929,1.929,0,0,1-1.218.532c-.49,0-.8-.392-.8-1.022a2.776,2.776,0,0,1,.63-1.708A4.164,4.164,0,0,1,65.016,6.974ZM66.6,9.088a.574.574,0,0,1-.014-.154.74.74,0,0,0-.014-.182,23.281,23.281,0,0,1-.1-2.408,5.143,5.143,0,0,1,1.68-.252,3.288,3.288,0,0,1,.364.014,10.651,10.651,0,0,1-1.736,2.8,1.293,1.293,0,0,0-.154.2Zm14.518-2.9a5.5,5.5,0,0,0,.574-.364c.28-.182,1.288-.938,1.54-1.148.476-.406,1.5-1.316,2.2-1.96a3,3,0,0,1,.728-.574L85.288.912a2.063,2.063,0,0,1-.868.182c-1.358.1-3.066.168-4.256.168a12.661,12.661,0,0,1-1.652-.084l.07,1.68a4.723,4.723,0,0,1,.672-.07c2.534-.112,3.43-.168,3.962-.238l.014.014-.252.252a46.746,46.746,0,0,1-4.186,3.64,12.591,12.591,0,0,1-1.974,1.316l.952,1.512a8.626,8.626,0,0,1,5.768-2.352c1.694,0,2.772.714,2.772,1.806,0,.994-.5,1.6-1.666,2.03A3.765,3.765,0,0,0,84,9.508,3.013,3.013,0,0,0,81.578,8.36a2.155,2.155,0,0,0-2.408,2,2,2,0,0,0,.84,1.61,4.736,4.736,0,0,0,2.716.644,6.927,6.927,0,0,0,3.388-.8,3.421,3.421,0,0,0,1.9-3.094c0-1.918-1.54-3.15-3.934-3.15a6.834,6.834,0,0,0-2.94.644Zm2.016,4.984a3.789,3.789,0,0,1-.728.056c-1.036,0-1.666-.322-1.666-.882,0-.392.322-.644.826-.644C82.348,9.7,82.88,10.208,83.132,11.174ZM91.21,9.9a15.068,15.068,0,0,1,3.038,3.192l1.3-1.218a16.364,16.364,0,0,0-3.15-3.08Zm16.058-5.768h.112c.112,0,.252,0,.448.014.742.056,1.372.084,2.114.1a31.7,31.7,0,0,1-1.176,3.108,9.412,9.412,0,0,1-.658,1.26L109.8,9.2a2.374,2.374,0,0,1,1.022-.812,7.078,7.078,0,0,1,3.01-.686c1.512,0,2.352.476,2.352,1.344,0,1.12-1.316,1.834-3.346,1.834a10.653,10.653,0,0,1-3.612-.672,7.968,7.968,0,0,1,.14,1.778,12.79,12.79,0,0,0,3.57.49c3.066,0,5.068-1.344,5.068-3.416,0-1.778-1.47-2.842-3.934-2.842a6.511,6.511,0,0,0-3.528.91V7.1a18.616,18.616,0,0,0,1.106-2.842c1.75-.042,2.982-.14,5.012-.364.364-.042.49-.056.812-.07L117.39,2.13a9.551,9.551,0,0,1-1.792.322c-.924.112-2.506.224-3.57.252.084-.266.084-.266.336-1.316a7.823,7.823,0,0,1,.224-.812L110.712.422a12.011,12.011,0,0,1-.392,2.31,12.877,12.877,0,0,1-3.024-.238Zm21.308.35a9.473,9.473,0,0,1,.1-1.68l-1.638-.028a6.88,6.88,0,0,1,.056,1.036c.028,2.562.028,2.562.14,4.732a1.588,1.588,0,0,0,.028.266,4.038,4.038,0,0,0-.882-.1c-1.848,0-3.01.826-3.01,2.142a1.807,1.807,0,0,0,.63,1.4,3.3,3.3,0,0,0,2.128.616,2.631,2.631,0,0,0,2.38-.938,1.865,1.865,0,0,0,.252-1.078v-.294c.084.042.084.042.1.056a1.806,1.806,0,0,0,.224.126,7.89,7.89,0,0,1,2.282,1.666l.938-1.4c-.154-.1-.224-.154-.364-.238a10.54,10.54,0,0,0-3.192-1.722c-.042-.406-.1-1.47-.126-2.45.952-.028,1.54-.07,2.52-.182.616-.07.616-.07.826-.084l-.112-1.47a13.326,13.326,0,0,1-3.276.378V4.482Zm-1.3,5.628a2.192,2.192,0,0,1,.028.406c0,.714-.322.98-1.218.98-.756,0-1.162-.238-1.162-.686,0-.49.532-.812,1.358-.812A3.867,3.867,0,0,1,127.274,10.11Zm11.172-2.8a8.842,8.842,0,0,1,1.624-.476,15.689,15.689,0,0,1,3.682-.546c1.484,0,2.3.588,2.3,1.68a2.249,2.249,0,0,1-.994,1.89,4.937,4.937,0,0,1-2.338.952,12.337,12.337,0,0,1-1.988.21h-.21a4.426,4.426,0,0,1,.6,1.6,13.763,13.763,0,0,0,3.038-.532c2.226-.7,3.542-2.212,3.542-4.074a3.175,3.175,0,0,0-.518-1.806,3.606,3.606,0,0,0-3.3-1.428,19.78,19.78,0,0,0-4.326.588,7.463,7.463,0,0,1-1.456.266ZM155.372.786a5.949,5.949,0,0,1,.224.91,35.672,35.672,0,0,0,.938,3.794,8.641,8.641,0,0,0-1.9,1.2A3.288,3.288,0,0,0,153.384,9.2a2.65,2.65,0,0,0,1.218,2.338,7.84,7.84,0,0,0,4.06.77,29.586,29.586,0,0,0,3.276-.21,8.727,8.727,0,0,1,1.134-.1l-.154-1.918a15.327,15.327,0,0,1-4.522.574c-2.254,0-3.206-.434-3.206-1.456s1.022-1.9,3.066-2.66a34.207,34.207,0,0,1,4.62-1.344l-.6-1.764a3.832,3.832,0,0,1-.532.21c-2.716.9-2.716.9-3.626,1.232a23.513,23.513,0,0,1-.924-4.382Zm13.8.028a6.964,6.964,0,0,1,.056.952c0,.2,0,.49-.014.91-.084,3.514-.112,4.914-.112,5.642,0,1.876.406,2.954,1.372,3.6a4.564,4.564,0,0,0,2.45.616,5.3,5.3,0,0,0,4.2-1.778,8.624,8.624,0,0,0,1.666-3.57A6.046,6.046,0,0,1,177.1,6.106a9.385,9.385,0,0,1-.644,2.352,3.6,3.6,0,0,1-3.388,2.394,2.217,2.217,0,0,1-1.876-.728,3.891,3.891,0,0,1-.364-2.254c0-.994.084-3.836.14-5.138a12.8,12.8,0,0,1,.168-1.89Zm13.566,3.514a2.09,2.09,0,0,1,.266-.014c.112,0,.308,0,.56.014s.378.014.448.014h.812a1.185,1.185,0,0,0,.182-.014A29.911,29.911,0,0,1,182.5,11.86l1.764.686a47.463,47.463,0,0,0,1.568-4.634c.364-1.274.714-2.758.868-3.626a19.085,19.085,0,0,0,2.3-.294c.336-.056.336-.056.448-.07l-.07-1.61a11.619,11.619,0,0,1-2.394.42c.056-.322.07-.406.14-.8A7.957,7.957,0,0,1,187.39.59L185.542.422a1.9,1.9,0,0,1,.014.252,16.994,16.994,0,0,1-.266,2.142c-.322.014-.476.014-.644.014A11.139,11.139,0,0,1,182.77,2.7Zm11.1.308c-.882-.014-1.008-.014-1.386-.014a17.967,17.967,0,0,0-4.172.448l.126,1.54a15.109,15.109,0,0,1,3.7-.406,14.575,14.575,0,0,1,1.764.1Zm-5.516,2.94A3.948,3.948,0,0,0,187.292,10a2.023,2.023,0,0,0,.994,1.722,5.685,5.685,0,0,0,2.814.56,16.292,16.292,0,0,0,2.6-.224c.322-.056.434-.07.686-.1l-.126-1.722a10.714,10.714,0,0,1-3.178.518c-1.4,0-2.1-.364-2.1-1.078a2.323,2.323,0,0,1,.728-1.54Zm12.166-6.062v.2a10.273,10.273,0,0,1-.126,1.358,17.026,17.026,0,0,1-1.316,4.8,9.434,9.434,0,0,1-2,2.982,6.137,6.137,0,0,1,1.6,1.2,13.366,13.366,0,0,0,2.478-4.326,25.047,25.047,0,0,0,1.106-4.788,5.927,5.927,0,0,1,.182-1.078Zm4.158.336a6.976,6.976,0,0,1,.2,1.008,21.929,21.929,0,0,0,1.33,5.1,14.707,14.707,0,0,0,2.38,4.116,6.034,6.034,0,0,1,1.54-1.288,13.541,13.541,0,0,1-3.122-6.048,18.122,18.122,0,0,1-.588-3.22ZM214.48.982a6.811,6.811,0,0,1,.07,1.442l-.056,7.56a4.937,4.937,0,0,1-.126,1.442l.9,1.078a4.011,4.011,0,0,1,.84-.238,12.762,12.762,0,0,0,5.1-1.918,10.437,10.437,0,0,0,3.122-3.262,6.576,6.576,0,0,1-1.33-1.428,8.273,8.273,0,0,1-2.856,3.206,10.069,10.069,0,0,1-3.822,1.54l.07-7.994A10.835,10.835,0,0,1,216.468,1Zm20.412,2.044a3.06,3.06,0,0,1,1.414.42,3.468,3.468,0,0,1,1.722,3.108,3.92,3.92,0,0,1-1.946,3.5,7.44,7.44,0,0,1-2.786.77,4.466,4.466,0,0,1,.854,1.638,9.153,9.153,0,0,0,2.2-.588,5.393,5.393,0,0,0,3.4-5.222c0-3.15-2.184-5.194-5.544-5.194a6.285,6.285,0,0,0-4.816,1.96,6.014,6.014,0,0,0-1.54,4.074c0,2.254,1.148,3.878,2.744,3.878,1.148,0,2.044-.826,2.842-2.632A20.253,20.253,0,0,0,234.892,3.026Zm-1.708.014a18.451,18.451,0,0,1-1.162,4.732c-.5,1.2-.98,1.792-1.442,1.792-.616,0-1.106-.91-1.106-2.058a4.687,4.687,0,0,1,1.9-3.78A3.564,3.564,0,0,1,233.184,3.04Zm17.738,4.69V9.858h-.154a5.7,5.7,0,0,1-.826-.042V11.23a7.364,7.364,0,0,1,1.134-.07h1.61v.8a11.247,11.247,0,0,1-.07,1.274h1.428a8.922,8.922,0,0,1-.07-1.288V11.16h.182a9.486,9.486,0,0,1,1.176.07V9.8a8.262,8.262,0,0,1-1.162.056h-.2V7.73h.14a5.349,5.349,0,0,1,.9.056V6.456a7.506,7.506,0,0,1-.9.042h-.14V6.092h1.316a7.057,7.057,0,0,1-.042-.854V4.594a8.209,8.209,0,0,1,.042-.924,9.966,9.966,0,0,1-1.106.056h-.336a11.687,11.687,0,0,0,.994-1.638l-1.442-.35a8.225,8.225,0,0,1-.98,1.988h-.6a6.357,6.357,0,0,0-.644-1.6l-1.232.35a5.784,5.784,0,0,1,.56,1.246H249.41a6.685,6.685,0,0,0-.742-1.442l-1.232.406a4.877,4.877,0,0,1,.63,1.036h-.434a6.417,6.417,0,0,1-.9-.056,5.98,5.98,0,0,1,.042.756V5.462a8.954,8.954,0,0,1-.042.9h1.246a5.988,5.988,0,0,1-1.568,2.086V2.074c0-.616.014-1.05.042-1.344-.266.014-.616.028-1.12.028h-1.484c-.406,0-.728-.014-1.036-.028.028.238.056.8.056,1.4v9.044a11.84,11.84,0,0,1-.056,1.316h1.33V11.272h1.036v.546h1.274c-.028-.35-.042-.588-.042-1.134V8.752a4.114,4.114,0,0,1,.6.8,5.376,5.376,0,0,0,.56-.532,11.2,11.2,0,0,1,.784.924,6.723,6.723,0,0,1-2.324,2.254,4.056,4.056,0,0,1,.938,1.008,9.468,9.468,0,0,0,3.668-5.474Zm-.07-1.232-.462-.518a5.384,5.384,0,0,1-.826.056h-.2c.07-.154.07-.154.224-.546l-1.26-.266a5.132,5.132,0,0,1-.28.966V5.014h5.824V5.42H252.63a6.02,6.02,0,0,1,.056.938V6.5Zm-1.3.728A7.192,7.192,0,0,1,249,8.794a7.107,7.107,0,0,0-.742-.672c.224-.336.308-.476.546-.9Zm2.576.5h.56V9.858h-.56Zm-7.98-5.614h1.036V3.81h-1.036Zm0,2.926h1.036V6.75h-1.036Zm0,2.94h1.036V9.9h-1.036Zm9.884-7.8a23.725,23.725,0,0,1-6.86.868h-.406a5.664,5.664,0,0,1,.518,1.232,44.117,44.117,0,0,0,7.35-.84,3.95,3.95,0,0,1,.448-.1Zm12.8,7.252c0-.546.014-.9.042-1.26a11.259,11.259,0,0,1-1.3.056h-3.122a11.415,11.415,0,0,1-1.3-.056c.028.378.042.77.042,1.26v3.416a9.651,9.651,0,0,1-.1,1.4h1.484v-.784h2.968c.112,0,.378,0,.784.014a5.317,5.317,0,0,1,.364,1.442c.714.042.77.042.966.042a4.264,4.264,0,0,0,1.582-.168c.5-.21.672-.574.672-1.414V2.214c0-.7.014-1.05.056-1.554a12.558,12.558,0,0,1-1.442.056h-2.688A11.978,11.978,0,0,1,264.4.66c.028.434.042.826.042,1.3V4.1c0,.6-.014.868-.042,1.274.35-.028.8-.042,1.288-.042h2.758v5.852c0,.28-.126.378-.518.378-.252,0-.756-.042-1.064-.07-.028-.364-.042-.686-.042-1.218Zm-.994-5.586h2.618v.7h-2.618Zm0,1.694h2.618v.714h-2.618ZM262.57,7.408h2.856v.84H262.57Zm0,1.974h2.856v.91H262.57Zm-2.926-4.046h2.534c.49,0,.924.014,1.288.042-.028-.308-.042-.63-.042-1.274V1.962c0-.546.014-.854.042-1.3a11.829,11.829,0,0,1-1.428.056H259.56A12.715,12.715,0,0,1,258.118.66a15.524,15.524,0,0,1,.056,1.568V11.37a12.515,12.515,0,0,1-.084,1.736h1.638a12.144,12.144,0,0,1-.084-1.722Zm0-3.486h2.408v.7h-2.408Zm0,1.694h2.408v.714h-2.408ZM275.1,8.36a2.373,2.373,0,1,0,2.366,2.366A2.372,2.372,0,0,0,275.1,8.36Zm0,1.092a1.281,1.281,0,1,1-1.274,1.274A1.279,1.279,0,0,1,275.1,9.452Z" transform="translate(15080.022 9515.5)" fill="#fff"/><path d="M11.438,8.7V11.1c0,.364-.1.434-.588.434a9.3,9.3,0,0,1-1.442-.154,4.774,4.774,0,0,1,.378,1.582c.378.014.882.028,1.12.028,1.624,0,2.044-.322,2.044-1.568V2.312a13.426,13.426,0,0,1,.056-1.54,13.331,13.331,0,0,1-1.512.056H8.47C7.728.828,7.406.814,6.916.772c.07.588.1,1.624.1,3.486A16.142,16.142,0,0,1,6.5,9.312a5.21,5.21,0,0,1-2,2.786,4.407,4.407,0,0,1,1.232,1.134A6.7,6.7,0,0,0,7.462,10.95,9.235,9.235,0,0,0,8.19,8.7Zm0-3.318V7.324H8.358c.07-.672.112-1.274.126-1.946Zm0-1.316H8.512V2.228h2.926ZM1.12,9.018a13.361,13.361,0,0,1-.084,1.666h1.54V9.648H4.55v.518H5.992c-.014-.308-.028-.672-.028-1.428V2.382c0-.658.014-.938.042-1.274-.364.028-.63.042-1.2.042H2.59c-.8,0-1.134-.014-1.526-.042A13.362,13.362,0,0,1,1.12,2.55Zm1.442-6.5H4.55V4.636H2.562Zm0,3.416H4.55V8.3H2.562Zm14.7,5.376a14.685,14.685,0,0,1-.084,1.694h1.666v-.84h6.51v.84h1.694a14.183,14.183,0,0,1-.084-1.694V2.27a12.65,12.65,0,0,1,.07-1.428,11.265,11.265,0,0,1-1.512.07H18.746a12.359,12.359,0,0,1-1.554-.07c.042.462.07.952.07,1.5ZM18.844,2.4h6.51V5.644h-6.51Zm0,4.718h6.51V10.7h-6.51ZM35.252,4.958a.246.246,0,0,1,.084-.014.643.643,0,0,1,.14.014,2.085,2.085,0,0,1,.238.014c.07,0,.224.014.42.014.658.056,1.218.07,1.736.07.364,0,.7-.014,1.26-.028.056,1.946.07,2.632.112,2.982A3.328,3.328,0,0,0,38,7.814c-1.694,0-2.884.952-2.884,2.31,0,1.428,1.12,2.3,2.954,2.3,1.358,0,2.338-.49,2.66-1.316a2.449,2.449,0,0,0,.112-.784v-.2c.084.056.406.266.882.574a5.245,5.245,0,0,1,1.05.9L43.442,9.9a2.664,2.664,0,0,1-.392-.238,11.162,11.162,0,0,0-2.2-1.274c-.14-2.352-.14-2.38-.14-3.164V4.916c.742-.084,1.47-.21,1.946-.308a2.419,2.419,0,0,1,.406-.07l-.056-1.582-.112.028c-.224.084-.224.084-.308.112a14.075,14.075,0,0,1-1.89.336V2.788A13.7,13.7,0,0,1,40.8.73l-1.75.042a3.916,3.916,0,0,1,.042.672c0,.574.014,1.274.014,2.1-.49.028-.8.028-1.288.028a10.089,10.089,0,0,1-2.534-.224Zm4.018,4.48v.378a1.175,1.175,0,0,1-.182.756,1.376,1.376,0,0,1-1.134.434c-.784,0-1.288-.35-1.288-.868,0-.574.56-.924,1.456-.924A2.931,2.931,0,0,1,39.27,9.438ZM33.8,12.42a2.743,2.743,0,0,1-.028-.378,11.681,11.681,0,0,1,1.386-4.284L33.992,7.24a2.668,2.668,0,0,1-.168.434c-.14.336-.14.336-.266.63-.07.224-.14.378-.168.476-.1.252-.1.252-.168.406h-.014a2.383,2.383,0,0,0,.014-.294V8.668c0-.224,0-.224.014-.728A22.5,22.5,0,0,1,34.356.912l-1.89-.2V.772a7.515,7.515,0,0,1-.154,1.036C32,3.39,32,3.39,31.934,3.81a25.024,25.024,0,0,0-.266,3.71,26.549,26.549,0,0,0,.378,4.452,5.109,5.109,0,0,1,.07.546ZM45.85,9.9a15.068,15.068,0,0,1,3.038,3.192l1.3-1.218a16.364,16.364,0,0,0-3.15-3.08ZM64.526.926a7.557,7.557,0,0,1,.224.924,34.7,34.7,0,0,0,.938,3.794,8.655,8.655,0,0,0-1.9,1.19A3.332,3.332,0,0,0,62.538,9.34a2.633,2.633,0,0,0,1.218,2.338,7.84,7.84,0,0,0,4.06.77,29.586,29.586,0,0,0,3.276-.21c.742-.07.84-.084,1.134-.1l-.154-1.9a15.869,15.869,0,0,1-4.522.56c-2.254,0-3.206-.434-3.206-1.456s1.022-1.89,3.066-2.646A32.279,32.279,0,0,1,72.03,5.35l-.6-1.764a5.177,5.177,0,0,1-.994.364c-1.764.56-2.3.742-3.164,1.078A24.211,24.211,0,0,1,66.346.646Zm5.488.21a9.449,9.449,0,0,1,1.47,2.086l.98-.518A9.073,9.073,0,0,0,70.994.646Zm4.116.658A8.1,8.1,0,0,0,72.674-.18l-.938.49a10.315,10.315,0,0,1,1.428,2.03Zm5.838,5.012c.308-.658.924-2.184,1.722-4.228a13.489,13.489,0,0,1,.686-1.61L80.486.492c-.1.574-.1.574-3.318,9.52-.448,1.218-.574,1.554-.77,1.96l1.806.588A16.06,16.06,0,0,1,79.38,9.354c.686-1.26,1.47-1.96,2.226-1.96a.693.693,0,0,1,.63.322,1.911,1.911,0,0,1,.112.826c0,.14,0,.476-.014.98v.14a4.057,4.057,0,0,0,.238,1.554,2.191,2.191,0,0,0,2.2,1.218c2.114,0,3.486-1.456,4.088-4.354a4.378,4.378,0,0,1-1.54-1.05,8.774,8.774,0,0,1-.532,2.226c-.406.98-1.008,1.5-1.75,1.5a1.176,1.176,0,0,1-.742-.2c-.252-.21-.308-.49-.308-1.5,0-1.61-.07-2.114-.35-2.562a1.9,1.9,0,0,0-1.568-.8,2.619,2.619,0,0,0-1.806.826L80,6.834ZM94.99.394a14.3,14.3,0,0,1-.42,2.436c-.308.014-.546.014-.714.014a9.721,9.721,0,0,1-1.89-.126v1.6l.742.014c.294.014.378.014.56.014s.252,0,.882-.014a21.537,21.537,0,0,1-1.316,3.3,12.743,12.743,0,0,1-1.358,2.24l1.61.9c.084-.168.084-.168.266-.5.532-.98.658-1.232.98-1.918a26.873,26.873,0,0,0,1.54-4.06c.868-.07,1.722-.168,2.226-.252a2.73,2.73,0,0,1,.448-.07L98.5,2.354a12.008,12.008,0,0,1-2.24.392c.154-.616.224-.9.294-1.232a7.008,7.008,0,0,1,.224-.938Zm8.96,3.64A22.1,22.1,0,0,0,100,2.158l-.84,1.358a17.135,17.135,0,0,1,4.032,1.96Zm-.056,6.314a2.509,2.509,0,0,1-.21-.2,5.162,5.162,0,0,0-.49-.378,8.747,8.747,0,0,0-2.212-1.288,14.864,14.864,0,0,1-.126-1.918,4.666,4.666,0,0,1,.168-1.414L99.4,5.07a7.426,7.426,0,0,0-.112,1.414c0,.42.028.966.07,1.61a6.954,6.954,0,0,0-1.3-.126c-1.778,0-3.024.994-3.024,2.408s1.2,2.352,3.052,2.352a3.232,3.232,0,0,0,2.324-.784,2.237,2.237,0,0,0,.6-1.484c0-.056-.014-.154-.028-.28a8.467,8.467,0,0,1,2.142,1.736Zm-4.48-.77s.028.336.028.476c0,.784-.462,1.176-1.414,1.176-.868,0-1.372-.336-1.372-.91s.588-.966,1.5-.966A3.529,3.529,0,0,1,99.414,9.578Zm12.572-4.662V5.49h-3.962a11.576,11.576,0,0,1-1.47-.084V6.694c.462-.042.924-.07,1.47-.07h9.688c.56,0,1.036.028,1.484.07V5.406a11.2,11.2,0,0,1-1.484.084h-4.228V4.916h3.066c.5,0,.9.014,1.288.042a9.356,9.356,0,0,1-.056-1.2V1.78a9.218,9.218,0,0,1,.056-1.2,14.759,14.759,0,0,1-1.484.056H109.34a14.02,14.02,0,0,1-1.5-.056,9.638,9.638,0,0,1,.056,1.2V3.754a10.177,10.177,0,0,1-.056,1.218,14.219,14.219,0,0,1,1.442-.056ZM109.34,1.7h7v.616h-7Zm0,1.568h7v.63h-7ZM112.182,9.9v1.526c0,.322-.1.392-.518.392a9.914,9.914,0,0,1-1.386-.1,3.9,3.9,0,0,1,.308,1.358c.5.014.924.028,1.106.028,1.638,0,2-.238,2-1.26V9.9h2.352c.588,0,.98.014,1.484.056a6.858,6.858,0,0,1-.056-1.022v-.8a7.742,7.742,0,0,1,.056-1.064c-.434.042-.882.056-1.484.056h-6.37c-.6,0-1.05-.014-1.484-.056a8.145,8.145,0,0,1,.056,1.064v.756a7.613,7.613,0,0,1-.056,1.064c.462-.042.924-.056,1.484-.056Zm3.836-1.736v.672H109.69V8.164Zm-1.2,2.548a10.788,10.788,0,0,0,3.416,2.352,4.6,4.6,0,0,1,.966-1.26,8.565,8.565,0,0,1-3.29-1.9ZM109.676,9.9a7.552,7.552,0,0,1-3.164,1.946,4.132,4.132,0,0,1,.98,1.19,10.947,10.947,0,0,0,3.416-2.394Zm19.88-5.978c.294-.322.77-.9,1.2-1.442a5.952,5.952,0,0,1,.56-.672l-.924-.756a5.023,5.023,0,0,1-1.372.084h-2.31A3.271,3.271,0,0,0,126.9.828c.168-.28.21-.336.308-.476L125.5.044a4.865,4.865,0,0,1-.91,1.582,9.752,9.752,0,0,1-3.234,2.786,3.718,3.718,0,0,1,.84,1.33,10.959,10.959,0,0,0,.91-.616v6.048c0,.84.21,1.162.882,1.358a21.575,21.575,0,0,0,4.648.28c2.618,0,3.85-.1,4.494-.378.686-.28.9-.84,1.036-2.716a5.445,5.445,0,0,1-1.61-.532c-.014,1.2-.112,1.75-.35,1.918-.294.21-1.316.294-3.612.294a25.873,25.873,0,0,1-3.4-.112c-.42-.07-.532-.182-.532-.574V8.486h7.364c.378,0,.742.014,1.232.056a8.2,8.2,0,0,1-.056-1.05V4.9a7.786,7.786,0,0,1,.056-1.05,8.755,8.755,0,0,1-1.26.07Zm-5.054,0a8.859,8.859,0,0,0,1.33-1.484h3.136a10.659,10.659,0,0,1-1.316,1.484ZM128.73,5.28h2.94V7.142h-2.94ZM127.3,7.142h-2.646V5.28H127.3Zm12.474,5.194c-.014-.182-.014-.294-.014-.378a11.494,11.494,0,0,1,1.246-4.242l-1.12-.5a14.276,14.276,0,0,0-.728,1.848c.014-.35.028-.462.028-.77A23.374,23.374,0,0,1,139.4,5.2a19.3,19.3,0,0,1,.882-4.186l-1.848-.2a9.16,9.16,0,0,1-.21,1.3,26.877,26.877,0,0,0-.574,5.474,24.419,24.419,0,0,0,.364,4.186c.042.322.056.406.07.658Zm1.932-8.386a16.619,16.619,0,0,0,2.52.154,25.077,25.077,0,0,0,3-.168c.672-.084.882-.112.994-.126l-.084-1.694a15.438,15.438,0,0,1-3.808.378,10.094,10.094,0,0,1-2.59-.224Zm.966,2.31a4.573,4.573,0,0,0-1.288,2.884,2.345,2.345,0,0,0,.42,1.372c.616.826,1.736,1.218,3.472,1.218a17.264,17.264,0,0,0,2.9-.266,4.679,4.679,0,0,1,.574-.084l-.14-1.778a9.839,9.839,0,0,1-3.332.532c-1.456,0-2.226-.42-2.226-1.218a3.167,3.167,0,0,1,.994-2.016Zm14.644-1.5h-2.772V2.494a8.236,8.236,0,0,1,.056-1.12h-1.68a7.8,7.8,0,0,1,.07,1.232V5.378c0,.322-.014.588-.042.9.336-.028.63-.042,1.008-.042h3.36v4.592h-3.29V8.556a6.918,6.918,0,0,1,.07-1.2H152.4a11.634,11.634,0,0,1,.07,1.344v2.968a10.158,10.158,0,0,1-.084,1.4h1.638v-.728h8.33v.728H164a8.84,8.84,0,0,1-.084-1.4V8.64a11.2,11.2,0,0,1,.07-1.33h-1.694a7.45,7.45,0,0,1,.07,1.19v2.324H158.9V6.232h3.612c.336,0,.672.014.98.042a7.667,7.667,0,0,1-.042-.9V2.592a8.048,8.048,0,0,1,.07-1.218h-1.68A8.409,8.409,0,0,1,161.9,2.48V4.762h-3V1.7A9.01,9.01,0,0,1,158.984.31h-1.75a8.4,8.4,0,0,1,.084,1.386ZM169.778,5.9a11.2,11.2,0,0,1,1.2-.056h4.676a10.635,10.635,0,0,1,1.26.056V4.8a14.928,14.928,0,0,0,2.394,1.274,6.234,6.234,0,0,1,.77-1.568,14.8,14.8,0,0,1-3.6-1.89A8.5,8.5,0,0,1,174.118.3h-1.666a9.219,9.219,0,0,1-2.212,2.352,13.064,13.064,0,0,1-3.514,1.946,6.5,6.5,0,0,1,.812,1.428,13.173,13.173,0,0,0,2.24-1.2ZM171,4.384c-.252,0-.336,0-.574-.014a11.952,11.952,0,0,0,2.912-2.716A11.4,11.4,0,0,0,176.26,4.37c-.266.014-.392.014-.616.014Zm.14,4.046a14.5,14.5,0,0,1-1.5,2.8c-.714.042-1.134.056-1.232.056-.2,0-.434-.014-.812-.042l.224,1.708a16.648,16.648,0,0,1,1.806-.2c.56-.042,3.332-.294,4.718-.42.518-.056,1.358-.154,2.52-.308.238.336.378.532.84,1.218l1.344-.882a28.651,28.651,0,0,0-3.234-3.738l-1.386.616c.784.812,1.022,1.064,1.47,1.554-1.96.21-1.96.21-4.438.35a15.218,15.218,0,0,0,1.456-2.716h4.816a13.026,13.026,0,0,1,1.638.084V6.89a13.182,13.182,0,0,1-1.638.084h-8.722a13.751,13.751,0,0,1-1.652-.084V8.514a13.116,13.116,0,0,1,1.652-.084ZM185,2.074a25.96,25.96,0,0,0,5.81.826l.266-1.568A20.085,20.085,0,0,1,185.5.548Zm-1.134,3.78c.462-.056.56-.07,1.078-.112.462-.042.462-.042.728-.07,1.218-.1,1.218-.1,1.414-.112.658-.056,1.022-.112,1.82-.238q-1.071,1.008-1.638,1.554c-1.05,1.008-1.3,1.246-1.624,1.54a27.715,27.715,0,0,1-3.248,2.8l1.288,1.456c.5-.588,1.26-1.4,1.974-2.086,1.134-1.092,1.764-1.484,2.422-1.484a.647.647,0,0,1,.588.294,2.276,2.276,0,0,1,.14.9c.07,1.106.182,1.442.574,1.806a2.674,2.674,0,0,0,1.96.532,12.3,12.3,0,0,0,1.96-.168c.91-.14.994-.154,1.232-.168l-.21-1.736a7.444,7.444,0,0,1-2.758.532c-.924,0-1.106-.2-1.2-1.3A2.279,2.279,0,0,0,190.05,8.5a1.261,1.261,0,0,0-1.162-.588,2.154,2.154,0,0,0-.854.168c.434-.336,1.638-1.414,2.394-2.142a9.247,9.247,0,0,1,1.19-1.05l-.938-1.2a3.484,3.484,0,0,1-1.12.224,48.082,48.082,0,0,1-4.97.308,5.921,5.921,0,0,1-.826-.042Zm17.654.336a5.494,5.494,0,0,0,.574-.364c.28-.182,1.288-.938,1.54-1.148.476-.406,1.5-1.316,2.2-1.96a3,3,0,0,1,.728-.574L205.688.912a2.063,2.063,0,0,1-.868.182c-1.358.1-3.066.168-4.256.168a12.661,12.661,0,0,1-1.652-.084l.07,1.68a4.723,4.723,0,0,1,.672-.07c2.534-.112,3.43-.168,3.962-.238l.014.014-.252.252a46.748,46.748,0,0,1-4.186,3.64,12.591,12.591,0,0,1-1.974,1.316l.952,1.512a8.626,8.626,0,0,1,5.768-2.352c1.694,0,2.772.714,2.772,1.806,0,.994-.5,1.6-1.666,2.03a3.765,3.765,0,0,0-.644-1.26,3.013,3.013,0,0,0-2.422-1.148,2.155,2.155,0,0,0-2.408,2,2,2,0,0,0,.84,1.61,4.736,4.736,0,0,0,2.716.644,6.927,6.927,0,0,0,3.388-.8,3.421,3.421,0,0,0,1.9-3.094c0-1.918-1.54-3.15-3.934-3.15a6.834,6.834,0,0,0-2.94.644Zm2.016,4.984a3.789,3.789,0,0,1-.728.056c-1.036,0-1.666-.322-1.666-.882,0-.392.322-.644.826-.644C202.748,9.7,203.28,10.208,203.532,11.174Zm8.778-6.72a2.09,2.09,0,0,1,.266-.014c.112,0,.364,0,.56.014h.994l.308.014h.14a30.189,30.189,0,0,1-2.506,7.5l1.764.686a46.56,46.56,0,0,0,2.436-8.246,19.028,19.028,0,0,0,2.3-.294l.322-.056a.615.615,0,0,0,.126-.014l-.07-1.61a12.764,12.764,0,0,1-2.394.42c.042-.252.07-.364.084-.434.042-.252.07-.448.1-.616a9.488,9.488,0,0,1,.224-1.092L215.11.548a1.9,1.9,0,0,1,.014.252,16.994,16.994,0,0,1-.266,2.142c-.322.014-.476.014-.644.014a11.139,11.139,0,0,1-1.876-.126Zm7.84-3.038A9.449,9.449,0,0,1,221.62,3.5l.98-.518A9.072,9.072,0,0,0,221.13.926Zm3.262,3.332c-.644-.014-.966-.014-1.386-.014a17.893,17.893,0,0,0-4.172.448l.126,1.554a16.293,16.293,0,0,1,5.46-.322ZM217.9,7.688a4.01,4.01,0,0,0-1.036,2.436,2.023,2.023,0,0,0,.994,1.722,5.685,5.685,0,0,0,2.814.56,15,15,0,0,0,2.6-.238c.364-.056.434-.07.686-.1l-.126-1.708a10.714,10.714,0,0,1-3.178.518c-1.4,0-2.1-.364-2.1-1.078,0-.5.168-.84.728-1.554Zm6.37-5.614A8.1,8.1,0,0,0,222.81.1l-.938.49A10.315,10.315,0,0,1,223.3,2.62Zm7.8,4.41-.042-.014a22.448,22.448,0,0,0,2.24-1.918,20.579,20.579,0,0,1,2.422-2.24l-.9-1.274a2.017,2.017,0,0,1-.77.154c-1.064.1-2.618.168-3.976.168a11.149,11.149,0,0,1-1.9-.1l.056,1.666a8.228,8.228,0,0,1,1.148-.084c1.2-.028,2.912-.126,3.472-.21a.273.273,0,0,1,.112-.014l.014.014a.83.83,0,0,1-.112.112,1.266,1.266,0,0,0-.14.154,46.943,46.943,0,0,1-4.172,3.892,12.34,12.34,0,0,1-1.834,1.316l1.078,1.456a8.449,8.449,0,0,1,5.432-2.338c1.554,0,2.478.6,2.478,1.61,0,1.232-1.358,2.058-3.388,2.058a9.322,9.322,0,0,1-3.556-.784,6.955,6.955,0,0,1,.252,1.848,11.116,11.116,0,0,0,3.374.518,6.722,6.722,0,0,0,3.486-.826,3.322,3.322,0,0,0,1.638-2.842c0-1.806-1.47-2.982-3.738-2.982a5.059,5.059,0,0,0-2.562.6Zm12.81-4.27a31.022,31.022,0,0,0,6.538.882l.238-1.722h-.392A19.192,19.192,0,0,1,245.42.562ZM243.642,6.89a19.575,19.575,0,0,1,5.544-.966c1.456,0,2.2.532,2.2,1.582a2.894,2.894,0,0,1-1.708,2.464,9.772,9.772,0,0,1-4.214,1.064,4,4,0,0,1,.728,1.75,11.459,11.459,0,0,0,4.41-1.316,4.712,4.712,0,0,0,2.66-4.018A2.882,2.882,0,0,0,251.9,4.888a5.051,5.051,0,0,0-2.646-.574,24.426,24.426,0,0,0-4.4.476,9.53,9.53,0,0,1-1.624.238ZM260.722.506V.772a21.543,21.543,0,0,1-.364,2.828c-.77.112-2.464.28-2.982.28l.168,1.652a25.1,25.1,0,0,1,2.506-.448,23.751,23.751,0,0,1-1.358,3.962,15.3,15.3,0,0,1-1.456,2.632l1.624.9c.07-.14.07-.154.112-.238l.21-.42a30.023,30.023,0,0,0,1.68-3.934,29.607,29.607,0,0,0,.854-3.038c.322-.028.532-.042.812-.042,1.106,0,1.428.378,1.428,1.666a12.44,12.44,0,0,1-.364,3.192c-.21.686-.434.952-.84.952a5.792,5.792,0,0,1-2.044-.546,5.259,5.259,0,0,1,.14,1.19c0,.14-.014.336-.028.616a6.792,6.792,0,0,0,2.156.406,1.773,1.773,0,0,0,1.554-.63c.672-.77,1.078-2.688,1.078-5.1a3.4,3.4,0,0,0-.658-2.478,2.712,2.712,0,0,0-2.072-.742c-.266,0-.462.014-.868.042.042-.182.042-.21.1-.518.2-1.05.2-1.05.238-1.344.042-.224.056-.294.084-.476A3.251,3.251,0,0,1,262.542.7Zm5.012,2.688a9.061,9.061,0,0,1,1.61,2.394,12.586,12.586,0,0,1,1.12,3.178l1.6-.812a13.589,13.589,0,0,0-2.884-5.46ZM274.54,8.36a2.373,2.373,0,1,0,2.366,2.366A2.372,2.372,0,0,0,274.54,8.36Zm0,1.092a1.281,1.281,0,1,1-1.274,1.274A1.279,1.279,0,0,1,274.54,9.452Z" transform="translate(15080 9567.5)" fill="#fff"/></g></svg>