<svg xmlns="http://www.w3.org/2000/svg" width="25.315" height="22.716" viewBox="0 0 25.315 22.716"><path d="M3956.469-816.4l-7.763-9.032,10.187-8.932a.888.888,0,0,0,.173-1.228l-.768-.894a.867.867,0,0,0-1.228,0l-10.187,8.932-7.591-8.831a.865.865,0,0,0-1.228,0l-1.018.893a.888.888,0,0,0-.173,1.228l7.591,8.832-10.188,8.931a.889.889,0,0,0-.172,1.229l.768.893a.867.867,0,0,0,1.228,0l10.187-8.932,7.762,9.032a.868.868,0,0,0,1.229,0l1.019-.893A.888.888,0,0,0,3956.469-816.4Z" transform="translate(-3933.927 836.738)" fill="#00b0e9"/></svg>