<svg xmlns="http://www.w3.org/2000/svg" width="650" height="520" viewBox="0 0 650 520"><defs><style>.a{fill:#fff;}</style></defs><path
  class="a"
  d="M220.439,543.84c3.7.125,37.22.814,73.982-13.582,22.815-8.934,42.028-21.817,57.105-38.291,19-20.757,31.07-46.786,35.886-77.368l39.674-261.434c4.814-30.58,16.887-56.611,35.884-77.366,15.077-16.474,34.29-29.358,57.105-38.291,36.762-14.4,70.28-13.708,73.982-13.582H870.439c-3.7-.126-37.22-.814-73.982,13.582-22.815,8.933-42.028,21.815-57.105,38.291-19,20.756-31.072,46.786-35.886,77.366L663.791,414.6c-4.814,30.582-16.888,56.611-35.884,77.368-15.078,16.474-34.29,29.357-57.105,38.291-36.762,14.4-70.28,13.707-73.984,13.582Z"
  transform="translate(-220.439 -23.883)"/></svg>
