<svg xmlns="http://www.w3.org/2000/svg" width="99.642" height="16.457" viewBox="0 0 99.642 16.457"><defs><style>.a{fill:#00a2e9;}</style></defs><g transform="translate(-1549.896 -771.554)"><path class="a" d="M2.8,11.011c-1.017.531-1.439,1.008-1.555,1.758-.152.989.534,1.649,1.743,1.649A3.7,3.7,0,0,0,4.213,14.2a1.379,1.379,0,0,1,.49-.092c.531,0,1,.422.933.843-.09.586-1.22,1.025-2.595,1.025-2.034,0-3.247-1.044-3.012-2.564.189-1.228,1.146-2.089,2.744-2.473C2.847,10.937,2.86,10.973,2.8,11.011ZM7,4.58a5.357,5.357,0,0,0,2.132.788,1.25,1.25,0,0,0,.413-.073,2.117,2.117,0,0,1,.281-.036.543.543,0,0,1,.6.623c-.1.659-1.107,1.355-2.795,1.96a7.026,7.026,0,0,0,.4.971c.648,1.264.724,1.484.625,2.125a2.041,2.041,0,0,1-1.8,1.667c-.256,0-.336-.073-.468-.532-.085-.274-.178-.385-.566-.6a7.837,7.837,0,0,0-1.3-.586c-.053-.019-.026-.074.03-.074a17.165,17.165,0,0,0,1.856.2c.459,0,.7-.165.761-.531a2.317,2.317,0,0,0-.231-1.118c-.111-.348-.288-.86-.385-1.191a14.12,14.12,0,0,1-3.569.567c-1.52,0-2.5-.787-2.458-2,.008-.055.046-.055.076-.019a1.922,1.922,0,0,0,1.919.861,13.873,13.873,0,0,0,3.747-.642A21.279,21.279,0,0,1,6,4.727a5.521,5.521,0,0,1-1.77.311c-1.228,0-2.079-.659-2.109-1.649.006-.036.023-.036.058-.019a2.015,2.015,0,0,0,1.412.587,6.84,6.84,0,0,0,2.361-.568c0-.476,0-.586-.02-1.3C5.92,1.117,5.7.769,5.075.769a1.061,1.061,0,0,0-.6.183c-.04.019-.073,0-.05-.036A1.8,1.8,0,0,1,6.019,0c.916,0,1.336.6,1.174,1.777-.051.33-.078.623-.142,1.154a1.765,1.765,0,0,1,1.025-.348c.513,0,.756.2.7.586-.088.568-.854.9-1.787,1.246ZM8.513,6.045C8.03,5.606,7.574,5.239,7,4.8a8.1,8.1,0,0,0,.248,1.832A4.932,4.932,0,0,0,8.513,6.045Z" transform="translate(1549.896 771.683)"/><path class="a" d="M.217,2.4A.62.62,0,0,0,.7,2.711c.256,0,.552-.128,1.608-.678A31.527,31.527,0,0,1,5.286.659,8.1,8.1,0,0,1,8.3,0a3.3,3.3,0,0,1,3.3,4.048C11.174,6.8,8.669,8.537,4.846,8.739c-.388.019-.7.019-1.154,0-.052-.019-.044-.073.014-.091a11.152,11.152,0,0,0,3.171-.953,5.17,5.17,0,0,0,3.153-3.811C10.317,2.015,9.526.733,8.06.733c-.88,0-1.719.33-3.524,1.575-.736.5-1.39.934-1.936,1.264a2.758,2.758,0,0,1-1.352.568A1.227,1.227,0,0,1,.013,2.766,1.5,1.5,0,0,1,.143,2.4C.167,2.363.186,2.363.217,2.4Z" transform="translate(1563.755 778.003)"/><path class="a" d="M3.059.027c.125.257.19.312.88.586A1.906,1.906,0,0,1,5.278,3.105c-.022.147-.111.6-.212,1.136-.152.75-.259,1.319-.3,1.612-.2,1.319-.1,1.722.467,1.722A2.665,2.665,0,0,0,6.476,7.1a1.68,1.68,0,0,1,.93-.33.869.869,0,0,1,.919.934c-.059.385-.3.6-.834.769a11.482,11.482,0,0,1-1.163.293,8.944,8.944,0,0,0-1.44.422A9.345,9.345,0,0,0,2,10.8,2.8,2.8,0,0,0,.893,12.522c-.177,1.154.695,1.8,2.417,1.8a11.159,11.159,0,0,0,2.773-.4,3.176,3.176,0,0,1,.733-.111c.567,0,.963.293.9.715-.119.769-1.685,1.3-3.774,1.3C1.1,15.82-.268,14.7.043,12.687c.249-1.612,1.415-2.876,3.971-4.361-.677-.367-.854-.88-.7-1.887.048-.311.151-.861.308-1.52.247-1.008.351-1.447.425-1.924a1.867,1.867,0,0,0,.019-.842c-.06-.2-.221-.348-.532-.586A1.3,1.3,0,0,1,2.923.321,1.761,1.761,0,0,1,2.986.027C3.01-.009,3.046-.009,3.059.027Z" transform="translate(1579.92 771.563)"/><path class="a" d="M1.922,10.753l-.169,1.1c-.074.476-.453.678-1.095.678-.586,0-.7-.2-.646-.568C.174,10.919.445,9.636,1.1,5.4c.252-1.631.486-3.261.648-4.91a12.657,12.657,0,0,1,1.735.989H5.918C6.635.751,6.8.641,6.946.641c.183,0,.331.111.915.6.275.238.364.367.342.514s-.11.238-.567.586L7.406,3.828c-.61,3.958-.959,6.815-1.1,7.713-.073.476-.437.7-1.115.7-.5,0-.692-.147-.627-.567l.141-.917Zm3.495-4.6H2.632l-.645,4.177H4.772ZM6.073,1.9H3.287L2.7,5.734H5.482ZM9.8,9.728a11.437,11.437,0,0,1-.96,2.18,10.855,10.855,0,0,1-5.262,4.544c-.1.037-.222-.11-.14-.164A12.122,12.122,0,0,0,7.406,11.67c.891-1.741,1.249-3.7,1.806-7.31.257-1.667.4-2.8.544-4.36a11.493,11.493,0,0,1,1.855,1.044h3.445c.776-.751.939-.861,1.086-.861.183,0,.313.11.943.659.272.256.362.384.34.531-.026.165-.089.22-.577.531l-.158,1.026c-1.524,9.875-1.57,10.534-1.726,11.542a1.776,1.776,0,0,1-.959,1.575,2.823,2.823,0,0,1-1.394.367c-.348,0-.395-.056-.4-.367-.013-.751-.416-.989-1.77-1.356-.089-.019-.058-.219.034-.219.981.055,1.675.072,2.389.072.256,0,.319-.054.359-.311l.7-4.506Zm.969-4.14c-.229,1.245-.476,2.492-.83,3.719h4.048l.575-3.719Zm4.428-4.122H11.4l-.116.751c-.148,1.08-.3,2.052-.455,2.949h3.793Z" transform="translate(1593.149 771.554)"/><path class="a" d="M2.05,14.033l-.13.842c-.082.532-.479.733-1.212.733-.568,0-.763-.164-.695-.6.231-1.5.576-3.022,1.508-9.069.306-1.978.593-3.957.825-5.935A9.427,9.427,0,0,1,4.311,1.044H11.4C12.3.219,12.462.11,12.609.11c.183,0,.313.11.968.733.284.293.375.422.352.567-.029.184-.176.312-.64.587l-.322,2.088c-.853,5.533-1.331,9.343-1.526,10.607-.082.531-.519.751-1.253.751-.586,0-.76-.183-.694-.6l.124-.806Zm8.563-6.448H3.045l-.93,6.027H9.683Zm.944-6.12H3.988l-.879,5.7h7.569Z" transform="translate(1614.057 771.976)"/><path class="a" d="M3.444.128A1.18,1.18,0,0,1,3.977,0,1.762,1.762,0,0,1,5.653,1.96a2.308,2.308,0,0,1-.343.916c-.236.459-.457.825-.669,1.246.651.055.97.366.888.9-.066.421-.2.567-.865.732-.247.056-.493.111-.853.184C3.335,7.126,3.025,7.951,2.546,9.27a4.182,4.182,0,0,0,.967-.092,1.639,1.639,0,0,1,.449-.055c.6,0,.91.275.842.715-.091.585-.969.933-2.313.97a3.306,3.306,0,0,1-.381-.018c-.108.458-.165.714-.216,1.044-.28,1.814.468,2.785,2.1,2.785A3.144,3.144,0,0,0,7.146,12c.24-1.558-.551-3.206-2.3-4.8a.061.061,0,0,1,.07-.092c2.624,1.283,4.038,3.28,3.734,5.258a4.677,4.677,0,0,1-4.66,3.72c-2.4,0-3.534-1.447-3.138-4.013a10.958,10.958,0,0,1,.309-1.41A1.927,1.927,0,0,1,.035,8.445a2.287,2.287,0,0,1,.22-.714.046.046,0,0,1,.088.019c-.009.9.313,1.3,1.256,1.484.38-1.154.666-1.943,1.083-3.1a11.585,11.585,0,0,0-1.67.6c-.058.019-.088-.019-.046-.055A10.55,10.55,0,0,1,2.922,5.4a2.546,2.546,0,0,1-1.53-.532,1.247,1.247,0,0,1-.268-1.117,2.1,2.1,0,0,1,.1-.4c.023-.037.043-.037.055,0a.827.827,0,0,0,.508.623A4.134,4.134,0,0,0,3.4,4.122a14.3,14.3,0,0,0,.7-2.29A1.382,1.382,0,0,0,3.432.2C3.4.183,3.4.147,3.444.128Z" transform="translate(1632.319 771.683)"/><path class="a" d="M0,.164A.2.2,0,0,1,.192,0,7.784,7.784,0,0,1,3.2,1.264a1.948,1.948,0,0,1,.887,1.851A1.285,1.285,0,0,1,2.817,4.251c-.514,0-.744-.4-.844-.825A5.1,5.1,0,0,0,.1.348.193.193,0,0,1,0,.164Z" transform="translate(1645.427 783.59)"/></g></svg>