<svg xmlns="http://www.w3.org/2000/svg" width="51.133" height="106.85" viewBox="0 0 51.133 106.85"><defs><style>.a{fill:#00a2e9;}</style></defs><g transform="translate(-667.9 -163.729)"><path class="a" d="M-489.245,136.42c7.1-3.912,11.187-7.764,14.987-13.663A26.846,26.846,0,0,0-470,112.7c.185-1.2.052-1.5-1.1-1.865-.514-.18-.736-.3-.69-.6a2.122,2.122,0,0,1,1.036-1.264,4.6,4.6,0,0,1,2.218-.723c2.527,0,4.656,3.371,4.145,6.682-.427,2.769-3.008,7.4-6.152,11.015-4.48,5.238-9.7,8.246-18.584,10.834A.192.192,0,1,1-489.245,136.42Zm35.022-32.743c5.791,1.866,9.863,5.116,12.5,9.871a24.274,24.274,0,0,1,2.7,14.505c-.436,2.829-2.248,4.815-4.354,4.815a1.831,1.831,0,0,1-1.993-1.5,8.31,8.31,0,0,1,.01-3.19c.59-5.778.25-10.595-1.294-14.627a20.048,20.048,0,0,0-7.8-9.511C-454.671,103.857-454.513,103.617-454.222,103.677Z" transform="translate(1157.565 60.342)"/><path class="a" d="M-489.185,137.07a.473.473,0,0,1-.47-.365.48.48,0,0,1,.282-.534,43.58,43.58,0,0,0,8.671-6.043,37.408,37.408,0,0,0,6.209-7.522l0-.006a26.743,26.743,0,0,0,4.213-9.938,1.78,1.78,0,0,0-.015-1.067c-.1-.182-.353-.319-.888-.488l-.008,0c-.428-.15-.962-.337-.874-.908a2.387,2.387,0,0,1,1.169-1.462,4.835,4.835,0,0,1,2.363-.763,3.9,3.9,0,0,1,2.918,1.5,7.008,7.008,0,0,1,1.5,5.5c-.437,2.827-3.052,7.519-6.218,11.156-4.481,5.239-9.729,8.3-18.717,10.92l-.012,0A.554.554,0,0,1-489.185,137.07Zm15.161-14.158a37.772,37.772,0,0,1-14.4,13.37c8.4-2.534,13.4-5.52,17.673-10.518,3.106-3.568,5.666-8.141,6.088-10.875a6.433,6.433,0,0,0-1.376-5.049,3.357,3.357,0,0,0-2.493-1.309,4.308,4.308,0,0,0-2.068.68l-.011.007a1.874,1.874,0,0,0-.9,1.064c-.009.056-.017.11.5.292,1.331.42,1.482.888,1.285,2.174A27.342,27.342,0,0,1-474.023,122.912Zm30.643,10.237a2.114,2.114,0,0,1-2.265-1.714,8.646,8.646,0,0,1,0-3.287c.606-5.93.188-10.673-1.276-14.5a19.778,19.778,0,0,0-7.7-9.378l-.027-.02a.49.49,0,0,1-.168-.546.515.515,0,0,1,.5-.317.72.72,0,0,1,.144.015l.03.008c5.828,1.878,9.968,5.15,12.658,10a24.551,24.551,0,0,1,2.73,14.684,6.994,6.994,0,0,1-1.62,3.614A4.085,4.085,0,0,1-443.38,133.149Zm-10.519-29.07a20.245,20.245,0,0,1,7.5,9.365c1.5,3.914,1.927,8.741,1.312,14.76a8.07,8.07,0,0,0-.017,3.095,1.553,1.553,0,0,0,1.721,1.29,3.533,3.533,0,0,0,2.6-1.255,6.43,6.43,0,0,0,1.481-3.323,23.949,23.949,0,0,0-2.665-14.324A20.4,20.4,0,0,0-453.9,104.079Z" transform="translate(1157.565 60.342)"/><path class="a" d="M-445.683,156.119a62.827,62.827,0,0,1-21.327,19.261c-5.607,3.19-11.937,5.6-14.705,5.6a3.733,3.733,0,0,1-3.933-3.371,24.649,24.649,0,0,1,.405-3.791c.44-3.251.816-6.079,1.3-9.209.5-3.251.892-5.778,1.427-8.849.4-2.227.789-4.333,1.351-7.584.194-1.264.1-1.444-.857-1.866-.564-.24-.777-.421-.738-.661a3.938,3.938,0,0,1,1.323-1.564,3.889,3.889,0,0,1,2.238-.844,4.852,4.852,0,0,1,3.34,1.746,3.7,3.7,0,0,1,1.2,2.769,2.183,2.183,0,0,1-.754,1.384,2.462,2.462,0,0,0-.969,1.986c-1.286,6.381-1.888,9.511-3.058,17.095a47.412,47.412,0,0,0-.673,5.537c-.047,1.084.216,1.325.938,1.325,1.986,0,8.377-2.408,13.808-5.236a77.886,77.886,0,0,0,19.366-13.963C-445.789,155.637-445.516,155.818-445.683,156.119Z" transform="translate(1158.472 69.943)"/><path class="a" d="M-479.2,142.958a5.09,5.09,0,0,1,3.543,1.832l.012.013a3.945,3.945,0,0,1,1.261,2.993,2.457,2.457,0,0,1-.828,1.535l-.01.01-.019.018c-.6.564-.687.651-.866,1.807l0,.013c-1.3,6.446-1.9,9.588-3.056,17.082a46.158,46.158,0,0,0-.67,5.5v.006c-.021.489.025.786.142.909.082.085.241.123.516.123,1.962,0,8.354-2.432,13.679-5.2a77.467,77.467,0,0,0,19.294-13.909.568.568,0,0,1,.414-.2.435.435,0,0,1,.38.215.55.55,0,0,1-.024.554l-.013.021a58.944,58.944,0,0,1-9.3,10.652,69.261,69.261,0,0,1-12.12,8.7c-5.646,3.212-12.028,5.635-14.844,5.635a4.017,4.017,0,0,1-4.213-3.641c0-.006,0-.011,0-.017a24.961,24.961,0,0,1,.408-3.826l.115-.848c.4-2.955.744-5.507,1.184-8.364l.058-.376c.478-3.086.855-5.524,1.369-8.478l.117-.645c.357-1.967.726-4,1.233-6.936a2.3,2.3,0,0,0,.026-1.085c-.072-.154-.246-.271-.72-.479s-.982-.462-.9-.962a4.11,4.11,0,0,1,1.428-1.741l.007-.006A4.173,4.173,0,0,1-479.2,142.958Zm3.132,2.214a4.554,4.554,0,0,0-3.132-1.653,3.622,3.622,0,0,0-2.069.787,3.906,3.906,0,0,0-1.215,1.382c0,.014,0,.118.571.361,1.094.482,1.237.785,1.025,2.167v.005c-.508,2.938-.877,4.974-1.234,6.943l-.117.643c-.513,2.947-.89,5.382-1.367,8.466l-.058.376c-.439,2.852-.784,5.4-1.183,8.354l-.115.85v.005a24.578,24.578,0,0,0-.4,3.746,3.463,3.463,0,0,0,3.652,3.094c2.732,0,8.994-2.391,14.567-5.561a68.7,68.7,0,0,0,12.022-8.624,58.55,58.55,0,0,0,8.746-9.874,78.063,78.063,0,0,1-18.865,13.455c-5.482,2.855-11.865,5.267-13.936,5.267a1.23,1.23,0,0,1-.921-.3,1.72,1.72,0,0,1-.3-1.317,46.547,46.547,0,0,1,.677-5.571c1.158-7.5,1.759-10.65,3.059-17.1a2.716,2.716,0,0,1,1.033-2.122l.014-.014a1.909,1.909,0,0,0,.675-1.228A3.458,3.458,0,0,0-476.07,145.172Z" transform="translate(1158.472 69.943)"/><path class="a" d="M-464.77,178.507a.653.653,0,0,1,.625-.542c3.662.842,7.43,2.167,9.891,4.154,2.31,1.806,3.248,3.912,2.914,6.079a4.222,4.222,0,0,1-4.186,3.732c-1.685,0-2.444-1.325-2.772-2.709a16.951,16.951,0,0,0-6.032-10.052C-464.644,178.868-464.816,178.807-464.77,178.507Z" transform="translate(1163.536 78.369)"/><path class="a" d="M-464.144,177.685a.28.28,0,0,1,.063.007c3.056.7,7.273,2,10,4.209,2.33,1.821,3.374,4.014,3.015,6.34a4.865,4.865,0,0,1-1.411,2.77,4.324,4.324,0,0,1-3.052,1.2c-1.539,0-2.592-1.011-3.045-2.925v-.006a16.62,16.62,0,0,0-5.933-9.892l-.018-.016c-.062-.059-.119-.109-.169-.154a.756.756,0,0,1-.354-.754A.933.933,0,0,1-464.144,177.685Zm8.619,13.965a3.773,3.773,0,0,0,2.664-1.043,4.3,4.3,0,0,0,1.245-2.451c.326-2.113-.646-4.124-2.81-5.815-2.094-1.69-5.462-3.1-9.745-4.093a.374.374,0,0,0-.321.3c-.013.085-.013.086.17.248.052.046.111.1.177.161A16.8,16.8,0,0,1-460.3,183.3a18.792,18.792,0,0,1,2.28,5.855C-457.632,190.811-456.791,191.649-455.526,191.649Z" transform="translate(1163.536 78.369)"/></g></svg>