<svg xmlns="http://www.w3.org/2000/svg" width="79.854" height="29.128" viewBox="0 0 79.854 29.128"><defs><style>.a{fill:#00a2e9;}</style></defs><g transform="translate(-1572.521 -801.318)"><path class="a" d="M.093,21.652A24.945,24.945,0,0,0,10,12.62a17.73,17.73,0,0,0,2.816-6.645c.123-.8.034-.995-.725-1.233-.339-.12-.487-.2-.456-.4a1.4,1.4,0,0,1,.686-.836A3.047,3.047,0,0,1,13.79,3.03c1.671,0,3.078,2.228,2.741,4.416-.282,1.831-1.989,4.895-4.068,7.283C9.5,18.191,6.051,20.18.175,21.892A.127.127,0,1,1,.093,21.652ZM23.25.006a13.752,13.752,0,0,1,8.265,6.525,16.053,16.053,0,0,1,1.783,9.59c-.288,1.871-1.485,3.184-2.878,3.184a1.212,1.212,0,0,1-1.319-1,5.463,5.463,0,0,1,.007-2.108,21,21,0,0,0-.856-9.669A13.254,13.254,0,0,0,23.094.245C22.953.125,23.057-.034,23.25.006Z" transform="translate(1572.521 803.023)"/><path class="a" d="M26.426,8.515a41.529,41.529,0,0,1-14.1,12.733c-3.708,2.109-7.893,3.7-9.723,3.7A2.469,2.469,0,0,1,0,22.721a16.494,16.494,0,0,1,.267-2.507c.292-2.149.541-4.019.86-6.088.332-2.149.589-3.82.942-5.849.266-1.472.522-2.865.893-5.014.128-.835.068-.955-.566-1.233-.373-.159-.515-.278-.489-.437A2.618,2.618,0,0,1,2.783.557,2.577,2.577,0,0,1,4.262,0a3.211,3.211,0,0,1,2.21,1.154,2.45,2.45,0,0,1,.792,1.831,1.454,1.454,0,0,1-.5.915,1.625,1.625,0,0,0-.64,1.313C5.274,9.431,4.875,11.5,4.1,16.514a31.218,31.218,0,0,0-.446,3.661c-.031.716.143.876.62.876,1.313,0,5.539-1.592,9.13-3.462A51.491,51.491,0,0,0,26.213,8.356C26.357,8.2,26.538,8.317,26.426,8.515Z" transform="translate(1616.407 801.318)"/><path class="a" d="M0,.358A.431.431,0,0,1,.418,0a16.857,16.857,0,0,1,6.54,2.745,4.231,4.231,0,0,1,1.927,4.02A2.792,2.792,0,0,1,6.116,9.232C5,9.232,4.5,8.356,4.283,7.441A11.061,11.061,0,0,0,.221.756.418.418,0,0,1,0,.358Z" transform="translate(1643.447 821.214)"/></g></svg>