<svg xmlns="http://www.w3.org/2000/svg" width="102.152" height="34.222" viewBox="0 0 102.152 34.222"><defs><style>.a{fill:#00a2e9;}</style></defs><g transform="translate(-1662.133 -796.224)"><path class="a" d="M.066,21.448A35.607,35.607,0,0,0,6.31,15.28a47.233,47.233,0,0,0,5.2-8.157A22.665,22.665,0,0,0,13.46,2.468c.068-.438-.128-.716-.715-1.035a.31.31,0,0,1-.224-.358c.031-.2.313-.477.833-.756A3.266,3.266,0,0,1,14.756,0a3.176,3.176,0,0,1,2.167.915c.784.6,1.124,1.234,1.037,1.792-.055.358-.245.556-.658.915a3.465,3.465,0,0,0-1.045,1.353,23.067,23.067,0,0,1-1.6,2.905c1.166-.08,1.775-.16,3.312-.319,1.663-.2,2.476-.319,3.4-.4a3.094,3.094,0,0,0,1.6-.557,1.938,1.938,0,0,1,.924-.318A3.129,3.129,0,0,1,25.828,7.68a2.672,2.672,0,0,1,.841,2.029,1.347,1.347,0,0,1-.659.916,2.231,2.231,0,0,0-.9,1.194,46.282,46.282,0,0,1-8.923,13.211A32.834,32.834,0,0,1,.358,33.744c-.165.04-.22-.12-.083-.24A41.36,41.36,0,0,0,14.113,23a44.032,44.032,0,0,0,7.511-12.057,4.79,4.79,0,0,0,.417-1.154c.036-.239-.145-.359-.621-.359-.717,0-1.73.12-3.75.319-1.775.16-3.073.319-4.371.477a30.52,30.52,0,0,1-5.917,6.884A25.2,25.2,0,0,1,.154,21.647C.029,21.687-.071,21.568.066,21.448Z" transform="translate(1662.133 796.224)"/><path class="a" d="M2.663,10.067a1.47,1.47,0,0,0,1.644.955,35.882,35.882,0,0,0,4.245-.437c2.728-.4,5.118-.676,7.6-1.035a9.032,9.032,0,0,0,3.285-.915A2.733,2.733,0,0,1,20.62,8.2a4.519,4.519,0,0,1,2.443,1.712,2.408,2.408,0,0,1,.719,1.791,1.156,1.156,0,0,1-.613.875c-.487.319-.585.437-1.075,1.552a35.963,35.963,0,0,1-8.5,11.739A29.543,29.543,0,0,1,.183,32.589c-.205.04-.248-.2-.076-.278A32.8,32.8,0,0,0,12.07,23.635a38.247,38.247,0,0,0,6.19-9.947,11.325,11.325,0,0,0,.641-1.831c.036-.239-.071-.319-.309-.319a14.415,14.415,0,0,0-2.067.24A95.342,95.342,0,0,0,7.1,13.568a12.614,12.614,0,0,1-2.905.517A2.338,2.338,0,0,1,1.87,11.34a2.791,2.791,0,0,1,.594-1.273C2.562,9.948,2.6,9.948,2.663,10.067ZM6.07,1.91a3.388,3.388,0,0,0,2.076.477,42.677,42.677,0,0,0,6.826-.915C17.149,1.035,17.44.955,18.414.319A2.467,2.467,0,0,1,19.617,0,5.023,5.023,0,0,1,21.8.517a1.335,1.335,0,0,1,.78,1.392C22.42,2.984,21.733,3.3,18.807,3.7c-.689.08-1.543.2-2.676.319-1.424.2-2.482.358-3.985.557a20.343,20.343,0,0,1-2.789.279A3.306,3.306,0,0,1,5.933,2.029C5.912,1.91,6,1.87,6.07,1.91Z" transform="translate(1695.255 797.658)"/><path class="a" d="M26.426,8.515a41.528,41.528,0,0,1-14.1,12.733c-3.708,2.109-7.893,3.7-9.723,3.7A2.469,2.469,0,0,1,0,22.721a16.493,16.493,0,0,1,.267-2.507c.292-2.149.54-4.019.86-6.088.332-2.149.589-3.82.942-5.849.267-1.472.522-2.865.893-5.014.128-.835.067-.955-.566-1.233-.374-.159-.515-.278-.49-.437A2.629,2.629,0,0,1,2.783.557,2.575,2.575,0,0,1,4.262,0a3.21,3.21,0,0,1,2.21,1.154,2.45,2.45,0,0,1,.792,1.831,1.453,1.453,0,0,1-.5.915,1.625,1.625,0,0,0-.64,1.313C5.274,9.431,4.875,11.5,4.1,16.514a31.208,31.208,0,0,0-.446,3.661c-.031.716.143.876.62.876,1.313,0,5.539-1.592,9.13-3.462A51.49,51.49,0,0,0,26.213,8.356C26.357,8.2,26.538,8.317,26.426,8.515Z" transform="translate(1730.221 801.318)"/><path class="a" d="M9.968,4.934a5.982,5.982,0,0,1-5.7,4.974A4.16,4.16,0,0,1,.059,4.934,5.98,5.98,0,0,1,5.8,0,4.106,4.106,0,0,1,9.968,4.934Zm-8.6,0a3.018,3.018,0,0,0,3.1,3.661A4.345,4.345,0,0,0,8.655,4.934,3,3,0,0,0,5.593,1.312,4.343,4.343,0,0,0,1.373,4.934Z" transform="translate(1754.256 820.538)"/></g></svg>