<svg xmlns="http://www.w3.org/2000/svg" width="54.288" height="177.149" viewBox="0 0 54.288 177.149"><defs><style>.a{fill:#00a2e9;}</style></defs><g transform="translate(-643.386 -279.827)"><path class="a" d="M-498.252,229.54a53.844,53.844,0,0,0,9.444-9.33,71.364,71.364,0,0,0,7.862-12.339,34.374,34.374,0,0,0,2.952-7.042c.1-.662-.194-1.082-1.082-1.566a.465.465,0,0,1-.339-.541c.047-.3.472-.722,1.26-1.144a4.944,4.944,0,0,1,2.12-.481,4.805,4.805,0,0,1,3.278,1.384c1.184.9,1.7,1.865,1.568,2.709-.084.542-.37.842-1,1.384a5.236,5.236,0,0,0-1.579,2.047,34.555,34.555,0,0,1-2.423,4.394c1.764-.122,2.685-.241,5.009-.482,2.515-.3,3.745-.481,5.148-.6a4.663,4.663,0,0,0,2.417-.841,2.927,2.927,0,0,1,1.4-.482c.783,0,1.866.783,2.925,2.106a4.034,4.034,0,0,1,1.271,3.071,2.03,2.03,0,0,1-1,1.384,3.37,3.37,0,0,0-1.361,1.806,70.011,70.011,0,0,1-13.5,19.983,49.648,49.648,0,0,1-23.938,13.182c-.25.061-.334-.18-.127-.36a62.568,62.568,0,0,0,20.928-15.891,66.643,66.643,0,0,0,11.359-18.238,7.123,7.123,0,0,0,.63-1.745c.056-.362-.215-.542-.938-.542-1.084,0-2.617.18-5.671.481-2.685.241-4.649.482-6.611.722a46.12,46.12,0,0,1-8.949,10.413,38.1,38.1,0,0,1-10.928,6.862C-498.308,229.9-498.461,229.72-498.252,229.54Z" transform="translate(1155.389 83.011)"/><path class="a" d="M-497.885,248.428a.435.435,0,0,1-.422-.279.536.536,0,0,1,.186-.583.281.281,0,0,1,.063-.041,65.638,65.638,0,0,0,11.414-6.923,60.752,60.752,0,0,0,9.422-8.9,66.586,66.586,0,0,0,11.313-18.162l0-.005a6.861,6.861,0,0,0,.61-1.675.128.128,0,0,0-.01-.1c-.017-.02-.131-.122-.651-.122-.86,0-2.055.12-4.035.319l-1.608.16c-2.625.236-4.586.475-6.478.706a46.327,46.327,0,0,1-8.926,10.362,38.25,38.25,0,0,1-11.006,6.91l-.021.007a.526.526,0,0,1-.159.025.434.434,0,0,1-.416-.275.476.476,0,0,1,.172-.53l.013-.011a53.835,53.835,0,0,0,9.395-9.281,71.257,71.257,0,0,0,7.832-12.292l0-.005a34.193,34.193,0,0,0,2.922-6.951c.07-.456-.057-.794-.928-1.27a.742.742,0,0,1-.494-.836c.089-.566.918-1.088,1.4-1.349l.015-.007a5.23,5.23,0,0,1,2.238-.507,5.061,5.061,0,0,1,3.457,1.449c1.224.937,1.816,1.99,1.666,2.968a2.529,2.529,0,0,1-1.09,1.554l-.011.009a4.976,4.976,0,0,0-1.5,1.956,38.257,38.257,0,0,1-2.125,3.943c1.026-.078,1.8-.161,2.964-.285.429-.046.909-.1,1.47-.155.831-.1,1.522-.186,2.131-.262,1.208-.151,2.08-.26,3.022-.341a4.4,4.4,0,0,0,2.3-.8,3.151,3.151,0,0,1,1.54-.521c.873,0,2.018.8,3.142,2.209a4.312,4.312,0,0,1,1.332,3.292,2.3,2.3,0,0,1-1.112,1.571c-.618.44-.742.577-1.267,1.695a83.336,83.336,0,0,1-6.118,10.931,60.87,60.87,0,0,1-7.434,9.13,48.27,48.27,0,0,1-10.847,8.174,53.836,53.836,0,0,1-13.221,5.082A.6.6,0,0,1-497.885,248.428Zm32.494-34.67A67.153,67.153,0,0,1-476.8,232.072a61.305,61.305,0,0,1-9.507,8.977,65.909,65.909,0,0,1-10.727,6.6,52.726,52.726,0,0,0,12.239-4.813,47.716,47.716,0,0,0,10.722-8.08,60.307,60.307,0,0,0,7.364-9.046,82.772,82.772,0,0,0,6.076-10.858,3.644,3.644,0,0,1,1.452-1.915,1.768,1.768,0,0,0,.881-1.2,3.868,3.868,0,0,0-1.208-2.847l0-.006c-.987-1.234-2.024-2-2.706-2a2.653,2.653,0,0,0-1.259.445,4.923,4.923,0,0,1-2.527.877c-.935.081-1.8.19-3.005.34-.61.076-1.3.162-2.138.263l-1.473.155c-1.329.142-2.207.235-3.55.328a.281.281,0,0,1-.262-.14.28.28,0,0,1,.011-.3,34.252,34.252,0,0,0,2.4-4.36l.008-.015a5.516,5.516,0,0,1,1.646-2.126c.625-.541.83-.779.9-1.211.117-.767-.4-1.634-1.461-2.443l-.017-.014a4.532,4.532,0,0,0-3.091-1.312,4.678,4.678,0,0,0-1.995.452c-.83.447-1.088.808-1.108.937-.012.08-.024.156.171.239l.025.012c.837.455,1.365.945,1.225,1.855A34.051,34.051,0,0,1-480.7,208a71.8,71.8,0,0,1-7.892,12.385,54.872,54.872,0,0,1-8.817,8.853,38.217,38.217,0,0,0,10.035-6.473,46.075,46.075,0,0,0,8.9-10.357.28.28,0,0,1,.2-.121l.07-.009c1.914-.234,3.892-.476,6.55-.714l1.6-.16c2.066-.208,3.2-.322,4.092-.322a1.348,1.348,0,0,1,1.077.318.654.654,0,0,1,.138.547A7.31,7.31,0,0,1-465.391,213.758Z" transform="translate(1155.389 83.011)"/><path class="a" d="M-498.963,260.566a2.221,2.221,0,0,0,2.485,1.444,54.24,54.24,0,0,0,6.421-.661c4.124-.6,7.74-1.024,11.5-1.566a13.665,13.665,0,0,0,4.968-1.384,4.136,4.136,0,0,1,1.787-.662c.842,0,2.31,1.024,3.693,2.588a3.643,3.643,0,0,1,1.087,2.709,1.743,1.743,0,0,1-.927,1.325c-.736.481-.885.661-1.627,2.347a54.383,54.383,0,0,1-12.85,17.756,44.689,44.689,0,0,1-20.286,10.172c-.309.061-.374-.3-.116-.421a49.581,49.581,0,0,0,18.094-13.122,57.836,57.836,0,0,0,9.362-15.048,16.96,16.96,0,0,0,.969-2.769c.055-.36-.1-.481-.467-.481a21.969,21.969,0,0,0-3.125.36,144.713,144.713,0,0,0-14.259,2.709,19.051,19.051,0,0,1-4.394.783,3.537,3.537,0,0,1-3.512-4.153,4.219,4.219,0,0,1,.9-1.926C-499.116,260.385-499.055,260.385-498.963,260.566Zm5.152-12.339a5.128,5.128,0,0,0,3.14.722,64.435,64.435,0,0,0,10.323-1.384c3.293-.662,3.733-.783,5.205-1.746a3.738,3.738,0,0,1,1.819-.481,7.6,7.6,0,0,1,3.31.783,2.022,2.022,0,0,1,1.179,2.106c-.251,1.625-1.289,2.106-5.714,2.709-1.043.119-2.335.3-4.047.481-2.152.3-3.754.543-6.027.844a30.966,30.966,0,0,1-4.219.421,5,5,0,0,1-5.178-4.273C-494.051,248.227-493.922,248.168-493.811,248.227Z" transform="translate(1154.264 94.716)"/><path class="a" d="M-473.324,245.058a7.841,7.841,0,0,1,3.437.813l.02.011a2.283,2.283,0,0,1,1.309,2.387,2.318,2.318,0,0,1-1.449,1.949,16.624,16.624,0,0,1-4.5,1h-.006c-.378.043-.8.1-1.245.152-.8.1-1.711.214-2.8.329-.753.105-1.442.2-2.109.3-1.253.179-2.437.349-3.913.544a30.05,30.05,0,0,1-4.258.424,5.573,5.573,0,0,1-3.681-1.279,5.292,5.292,0,0,1-1.774-3.23.466.466,0,0,1,.09-.386.4.4,0,0,1,.31-.143.458.458,0,0,1,.216.056l.014.008a4.9,4.9,0,0,0,2.993.68A64.047,64.047,0,0,0-480.4,247.29c3.252-.654,3.658-.758,5.107-1.706l.019-.011A4.03,4.03,0,0,1-473.324,245.058Zm3.173,1.308a7.371,7.371,0,0,0-3.173-.747,3.474,3.474,0,0,0-1.675.441c-1.522.995-2.007,1.119-5.294,1.78a64.574,64.574,0,0,1-10.378,1.39,5.607,5.607,0,0,1-3.023-.609,4.712,4.712,0,0,0,4.853,3.781,31.4,31.4,0,0,0,4.177-.418h.005c1.474-.2,2.657-.364,3.909-.543.669-.1,1.36-.195,2.115-.3h.009c1.086-.114,1.993-.228,2.794-.328.446-.056.867-.109,1.248-.152,4.516-.615,5.26-1.106,5.471-2.473A1.731,1.731,0,0,0-470.151,246.366Zm-1.656,11.091c.93,0,2.462,1.053,3.9,2.683l0,0a3.9,3.9,0,0,1,1.15,2.933,2.02,2.02,0,0,1-1.042,1.51l-.009.006c-.677.443-.792.563-1.523,2.226l0,.008a54.749,54.749,0,0,1-12.917,17.845,42.93,42.93,0,0,1-9.278,6.3,48.833,48.833,0,0,1-11.131,3.936l-.009,0a.628.628,0,0,1-.121.012.475.475,0,0,1-.478-.371.531.531,0,0,1,.311-.592l.006,0a49.4,49.4,0,0,0,17.994-13.049,57.7,57.7,0,0,0,9.315-14.974,17.439,17.439,0,0,0,.951-2.7.344.344,0,0,0,0-.132.47.47,0,0,0-.193-.026,21.955,21.955,0,0,0-3.079.356l-.011,0a143.93,143.93,0,0,0-14.233,2.7,19.052,19.052,0,0,1-4.456.79,3.828,3.828,0,0,1-2.916-1.32,3.916,3.916,0,0,1-.873-3.156,4.451,4.451,0,0,1,.953-2.053l.006-.008a.528.528,0,0,1,.389-.239.443.443,0,0,1,.377.286c.6,1.1.936,1.294,2.237,1.294a52.627,52.627,0,0,0,6.382-.658c2.18-.319,4.23-.588,6.212-.849,1.807-.237,3.514-.462,5.282-.717a13.445,13.445,0,0,0,4.874-1.353A4.393,4.393,0,0,1-471.807,257.457Zm3.481,3.052c-1.3-1.467-2.729-2.491-3.481-2.491a3.959,3.959,0,0,0-1.657.63,13.872,13.872,0,0,1-5.055,1.413c-1.775.256-3.483.481-5.292.718-1.98.26-4.028.529-6.206.848a52.984,52.984,0,0,1-6.461.664,2.443,2.443,0,0,1-2.648-1.44,3.8,3.8,0,0,0-.761,1.684,3.356,3.356,0,0,0,.744,2.705,3.225,3.225,0,0,0,2.491,1.125,18.78,18.78,0,0,0,4.329-.775,144.469,144.469,0,0,1,14.282-2.713,22.422,22.422,0,0,1,3.167-.363.788.788,0,0,1,.62.22.69.69,0,0,1,.125.583,17.176,17.176,0,0,1-.987,2.832l0,.007a58.26,58.26,0,0,1-9.408,15.121,49.767,49.767,0,0,1-17.6,12.931,47.817,47.817,0,0,0,10.353-3.736,42.375,42.375,0,0,0,9.158-6.219,54.2,54.2,0,0,0,12.781-17.663c.739-1.679.917-1.935,1.723-2.462.644-.459.741-.7.808-1.136A3.38,3.38,0,0,0-468.326,260.509Z" transform="translate(1154.264 94.716)"/><path class="a" d="M-469.145,308.2a62.839,62.839,0,0,1-21.327,19.261c-5.608,3.19-11.937,5.6-14.705,5.6a3.733,3.733,0,0,1-3.934-3.371,24.721,24.721,0,0,1,.406-3.791c.439-3.251.816-6.079,1.3-9.209.5-3.251.891-5.778,1.424-8.849.4-2.227.79-4.333,1.351-7.584.2-1.264.1-1.444-.856-1.866-.564-.24-.778-.421-.739-.661a3.97,3.97,0,0,1,1.323-1.566,3.9,3.9,0,0,1,2.238-.842,4.85,4.85,0,0,1,3.34,1.746,3.7,3.7,0,0,1,1.2,2.769,2.176,2.176,0,0,1-.754,1.384,2.462,2.462,0,0,0-.968,1.986c-1.287,6.381-1.889,9.511-3.058,17.095a47.271,47.271,0,0,0-.675,5.537c-.046,1.084.216,1.325.939,1.325,1.986,0,8.375-2.408,13.807-5.236a77.815,77.815,0,0,0,19.366-13.963C-469.251,307.721-468.979,307.9-469.145,308.2Z" transform="translate(1152.779 106.843)"/><path class="a" d="M-502.665,295.042a5.085,5.085,0,0,1,3.543,1.832l.011.013a3.945,3.945,0,0,1,1.261,2.993,2.452,2.452,0,0,1-.829,1.535l-.01.01-.022.021c-.594.563-.685.65-.862,1.8l0,.013c-1.3,6.439-1.9,9.58-3.056,17.082a46.012,46.012,0,0,0-.672,5.5v.006c-.021.49.026.787.143.909.082.085.241.123.516.123,1.961,0,8.353-2.432,13.677-5.2a77.4,77.4,0,0,0,19.294-13.909.569.569,0,0,1,.415-.2.435.435,0,0,1,.38.215.551.551,0,0,1-.022.554l-.013.021a58.979,58.979,0,0,1-9.3,10.652,69.252,69.252,0,0,1-12.12,8.7c-5.648,3.212-12.029,5.635-14.844,5.635a4.018,4.018,0,0,1-4.214-3.641c0-.006,0-.011,0-.017a25.068,25.068,0,0,1,.409-3.825l.074-.551c.413-3.062.77-5.707,1.226-8.661.494-3.208.885-5.742,1.425-8.854l.144-.791c.351-1.931.713-3.928,1.207-6.792a2.294,2.294,0,0,0,.027-1.083c-.071-.154-.246-.271-.72-.479s-.983-.463-.9-.962a4.144,4.144,0,0,1,1.427-1.742l.008-.006A4.186,4.186,0,0,1-502.665,295.042Zm3.132,2.214a4.549,4.549,0,0,0-3.132-1.653,3.635,3.635,0,0,0-2.069.786,3.943,3.943,0,0,0-1.215,1.385c0,.013,0,.117.572.36,1.094.482,1.237.785,1.024,2.167-.495,2.871-.858,4.869-1.209,6.8l-.143.789c-.539,3.1-.929,5.636-1.423,8.841-.455,2.949-.812,5.591-1.224,8.651l-.075.553v.005a24.692,24.692,0,0,0-.4,3.746,3.463,3.463,0,0,0,3.654,3.093c2.73,0,8.993-2.391,14.567-5.561A68.691,68.691,0,0,0-478.59,318.6a58.585,58.585,0,0,0,8.749-9.877,78,78,0,0,1-18.868,13.458c-5.482,2.855-11.864,5.267-13.934,5.267a1.232,1.232,0,0,1-.921-.3,1.723,1.723,0,0,1-.3-1.318,46.4,46.4,0,0,1,.678-5.571c1.158-7.511,1.759-10.657,3.059-17.1a2.712,2.712,0,0,1,1.029-2.119l.017-.016a1.9,1.9,0,0,0,.675-1.228A3.458,3.458,0,0,0-499.534,297.256Z" transform="translate(1152.779 106.843)"/><path class="a" d="M-473.689,334.607a9.048,9.048,0,0,1-8.623,7.524,6.293,6.293,0,0,1-6.363-7.524A9.046,9.046,0,0,1-480,327.144,6.21,6.21,0,0,1-473.689,334.607Zm-13,0a4.563,4.563,0,0,0,4.682,5.537,6.57,6.57,0,0,0,6.331-5.537,4.538,4.538,0,0,0-4.631-5.478A6.568,6.568,0,0,0-486.688,334.607Z" transform="translate(1157.716 114.564)"/><path class="a" d="M-480,326.864a6.626,6.626,0,0,1,5.14,2.242,6.774,6.774,0,0,1,1.448,5.545,9.216,9.216,0,0,1-3.087,5.488,8.879,8.879,0,0,1-5.812,2.274,6.664,6.664,0,0,1-5.165-2.271,6.816,6.816,0,0,1-1.476-5.576,9.072,9.072,0,0,1,3.115-5.459A9.017,9.017,0,0,1-480,326.864Zm-2.311,14.987a8.319,8.319,0,0,0,5.443-2.135,8.655,8.655,0,0,0,2.9-5.151,6.222,6.222,0,0,0-1.32-5.094A6.074,6.074,0,0,0-480,327.424a8.457,8.457,0,0,0-5.472,2.107,8.512,8.512,0,0,0-2.926,5.119,6.264,6.264,0,0,0,1.347,5.126A6.112,6.112,0,0,0-482.312,341.851Zm2.006-13a4.944,4.944,0,0,1,3.837,1.663,5.055,5.055,0,0,1,1.071,4.138,6.862,6.862,0,0,1-2.288,4.111,6.6,6.6,0,0,1-4.32,1.664,5.007,5.007,0,0,1-3.89-1.671,5.116,5.116,0,0,1-1.069-4.19,6.737,6.737,0,0,1,2.289-4.06A6.721,6.721,0,0,1-480.306,328.849Zm-1.7,11.015a6.3,6.3,0,0,0,6.054-5.3,4.5,4.5,0,0,0-.942-3.687,4.392,4.392,0,0,0-3.412-1.467,6.3,6.3,0,0,0-6.105,5.24,4.565,4.565,0,0,0,.941,3.739A4.456,4.456,0,0,0-482.006,339.864Z" transform="translate(1157.716 114.564)"/></g></svg>