<svg xmlns="http://www.w3.org/2000/svg" width="37.17" height="179.024" viewBox="0 0 37.17 179.024"><defs><style>.a{fill:#00a2e9;}</style></defs><g
  transform="translate(-730.473 -135.393)"><path class="a"
                                                 d="M-417.81,97.3c-1.538.8-2.177,1.525-2.352,2.662-.23,1.5.809,2.494,2.638,2.494a5.581,5.581,0,0,0,1.853-.333,2.084,2.084,0,0,1,.742-.138c.8,0,1.51.637,1.412,1.275-.137.886-1.848,1.552-3.927,1.552-3.077,0-4.912-1.581-4.557-3.881.286-1.856,1.735-3.159,4.153-3.74C-417.737,97.186-417.719,97.241-417.81,97.3Zm6.351-9.727a8.13,8.13,0,0,0,3.226,1.192,1.893,1.893,0,0,0,.628-.112,3.284,3.284,0,0,1,.425-.055.821.821,0,0,1,.907.942c-.154,1-1.674,2.052-4.227,2.966a10.6,10.6,0,0,0,.605,1.469c.979,1.912,1.095,2.245.946,3.216a3.087,3.087,0,0,1-2.718,2.521c-.388,0-.509-.111-.708-.8-.129-.415-.271-.582-.856-.915A11.926,11.926,0,0,0-415.2,97.1c-.078-.029-.039-.112.046-.112a25.884,25.884,0,0,0,2.808.3c.692,0,1.062-.249,1.148-.8a3.473,3.473,0,0,0-.348-1.69c-.169-.526-.436-1.3-.583-1.8a21.393,21.393,0,0,1-5.4.859c-2.3,0-3.78-1.192-3.72-3.021.012-.083.068-.083.114-.029.626.971,1.381,1.3,2.905,1.3a20.976,20.976,0,0,0,5.665-.97,32.3,32.3,0,0,1-.4-3.354,8.364,8.364,0,0,1-2.678.471c-1.858,0-3.145-1-3.191-2.494.009-.055.036-.055.087-.027a3.051,3.051,0,0,0,2.136.887,10.329,10.329,0,0,0,3.57-.86c0-.719,0-.887-.03-1.967-.021-1.469-.357-2-1.3-2a1.621,1.621,0,0,0-.9.276c-.06.029-.112,0-.076-.055a2.732,2.732,0,0,1,2.4-1.386c1.387,0,2.022.915,1.776,2.688-.077.5-.118.943-.214,1.747a2.668,2.668,0,0,1,1.55-.527c.777,0,1.146.3,1.056.887-.133.859-1.291,1.357-2.7,1.884Zm2.291,2.217c-.728-.665-1.419-1.219-2.286-1.885a12.258,12.258,0,0,0,.377,2.772A7.454,7.454,0,0,0-409.168,89.785Z"
                                                 transform="translate(1173.904 54.754)"/><path class="a"
                                                                                               d="M-423.429,111.192a.942.942,0,0,0,.731.471c.388,0,.834-.194,2.432-1.026a47.734,47.734,0,0,1,4.506-2.078,12.236,12.236,0,0,1,4.562-1c3.327,0,5.517,2.688,4.987,6.125-.641,4.157-4.429,6.791-10.214,7.1-.585.027-1.058.027-1.746,0-.078-.029-.067-.111.021-.139a16.77,16.77,0,0,0,4.8-1.441c2.729-1.33,4.39-3.3,4.772-5.763.436-2.828-.762-4.768-2.981-4.768-1.33,0-2.6.5-5.33,2.383-1.111.749-2.1,1.414-2.926,1.912a4.2,4.2,0,0,1-2.047.86,1.855,1.855,0,0,1-1.868-2.079,2.22,2.22,0,0,1,.2-.554C-423.5,111.136-423.476,111.136-423.429,111.192Z"
                                                                                               transform="translate(1173.489 61.286)"/><path
  class="a"
  d="M-423.458,123.35c.19.388.287.471,1.333.887,1.871.8,2.344,1.69,2.024,3.769-.035.221-.169.915-.321,1.719-.232,1.136-.391,2-.46,2.438-.307,2-.152,2.606.707,2.606a4.019,4.019,0,0,0,1.885-.721,2.549,2.549,0,0,1,1.407-.5,1.317,1.317,0,0,1,1.39,1.415c-.091.58-.446.913-1.261,1.163-.322.111-.667.194-1.758.442a13.643,13.643,0,0,0-2.178.639,14.112,14.112,0,0,0-4.368,2.438,4.221,4.221,0,0,0-1.676,2.606c-.27,1.746,1.049,2.716,3.655,2.716a16.912,16.912,0,0,0,4.2-.609,4.761,4.761,0,0,1,1.108-.168c.859,0,1.456.444,1.357,1.081-.179,1.164-2.549,1.967-5.709,1.967-4.3,0-6.365-1.69-5.894-4.738.375-2.439,2.14-4.352,6.007-6.6-1.024-.553-1.292-1.33-1.056-2.854.073-.471.229-1.3.466-2.3.374-1.525.532-2.19.642-2.91a2.81,2.81,0,0,0,.03-1.275c-.091-.3-.334-.527-.805-.887a1.967,1.967,0,0,1-.93-1.885,2.827,2.827,0,0,1,.1-.442C-423.533,123.294-423.477,123.294-423.458,123.35Z"
  transform="translate(1172.438 65.107)"/><path class="a"
                                                d="M-433.456,164.56l-.256,1.663c-.111.721-.685,1.025-1.655,1.025-.887,0-1.061-.3-.975-.86.244-1.579.654-3.519,1.642-9.921.38-2.468.733-4.933.978-7.428a19.057,19.057,0,0,1,2.627,1.5h3.687c1.085-1.108,1.332-1.275,1.555-1.275.277,0,.5.167,1.383.915.416.36.552.554.518.775s-.166.36-.859.887l-.345,2.245c-.923,5.986-1.453,10.31-1.663,11.667-.111.721-.66,1.054-1.686,1.054-.748,0-1.046-.221-.948-.859l.214-1.386Zm5.289-6.958h-4.214l-.975,6.32h4.214Zm.992-6.429h-4.215l-.892,5.792h4.213Zm5.63,11.835a17.262,17.262,0,0,1-1.451,3.3,16.422,16.422,0,0,1-7.963,6.873c-.147.055-.334-.165-.21-.25a18.3,18.3,0,0,0,6.011-6.984c1.35-2.633,1.89-5.6,2.733-11.059.389-2.521.6-4.24.823-6.6a17.428,17.428,0,0,1,2.807,1.581h5.212c1.173-1.137,1.419-1.3,1.643-1.3.276,0,.473.166,1.425,1,.411.388.548.583.513.8-.039.25-.134.332-.872.8l-.239,1.551c-2.306,14.939-2.376,15.938-2.612,17.462a2.682,2.682,0,0,1-1.449,2.383,4.275,4.275,0,0,1-2.109.554c-.527,0-.6-.082-.606-.554-.02-1.136-.629-1.5-2.678-2.05-.135-.027-.088-.333.051-.333,1.484.083,2.534.112,3.615.112.388,0,.483-.084.543-.472l1.053-6.817Zm1.465-6.264a56.9,56.9,0,0,1-1.256,5.627h6.127l.867-5.627Zm6.7-6.237h-5.738l-.175,1.137c-.225,1.635-.451,3.1-.688,4.462h5.737Z"
                                                transform="translate(1170.431 71.168)"/><path class="a"
                                                                                              d="M-435.036,193.229l-.2,1.276c-.124.8-.726,1.108-1.834,1.108-.859,0-1.153-.25-1.05-.915.35-2.273.871-4.573,2.283-13.72.461-2.992.895-5.986,1.248-8.979a14.33,14.33,0,0,1,2.971,1.579h10.729c1.357-1.246,1.6-1.413,1.825-1.413.276,0,.473.167,1.463,1.108.432.444.568.637.534.859-.043.277-.267.472-.968.887l-.488,3.16c-1.291,8.369-2.014,14.135-2.309,16.047-.124.8-.785,1.136-1.895,1.136-.885,0-1.148-.277-1.05-.915l.188-1.22Zm12.954-9.755h-11.45l-1.407,9.118h11.448Zm1.427-9.258H-432.1l-1.331,8.62h11.448Z"
                                                                                              transform="translate(1170 76.921)"/><path
  class="a"
  d="M-434.046,195.927a1.785,1.785,0,0,1,.806-.2A2.667,2.667,0,0,1-430.7,198.7a3.524,3.524,0,0,1-.519,1.386c-.355.693-.691,1.248-1.012,1.885.984.083,1.468.554,1.343,1.358-.1.637-.3.86-1.307,1.108-.374.083-.747.167-1.29.277-.723,1.8-1.192,3.049-1.916,5.045a6.338,6.338,0,0,0,1.463-.139,2.468,2.468,0,0,1,.678-.083c.915,0,1.378.415,1.276,1.08-.138.887-1.466,1.415-3.5,1.47a4.93,4.93,0,0,1-.578-.027c-.161.692-.25,1.08-.326,1.579-.424,2.744.708,4.213,3.175,4.213a4.756,4.756,0,0,0,4.769-3.963c.363-2.356-.831-4.851-3.482-7.262a.092.092,0,0,1,.1-.138c3.971,1.94,6.109,4.961,5.648,7.954a7.073,7.073,0,0,1-7.049,5.625c-3.631,0-5.345-2.188-4.746-6.069a16.383,16.383,0,0,1,.469-2.135,2.911,2.911,0,0,1-1.7-3.353,3.443,3.443,0,0,1,.332-1.081.072.072,0,0,1,.135.027c-.016,1.358.472,1.968,1.9,2.245.574-1.747,1.008-2.939,1.638-4.685a17.6,17.6,0,0,0-2.526.915c-.087.029-.133-.027-.07-.082a15.939,15.939,0,0,1,2.961-1.941,3.869,3.869,0,0,1-2.316-.8,1.9,1.9,0,0,1-.405-1.691,3.358,3.358,0,0,1,.15-.61c.036-.055.065-.055.084,0a1.242,1.242,0,0,0,.768.942,6.224,6.224,0,0,0,2.434.222,21.9,21.9,0,0,0,1.06-3.464,2.092,2.092,0,0,0-1.005-2.467C-434.114,196.01-434.107,195.954-434.046,195.927Z"
  transform="translate(1169.729 82.68)"/><path class="a"
                                               d="M-430.866,219.782a.3.3,0,0,1,.288-.25,11.733,11.733,0,0,1,4.555,1.912,2.946,2.946,0,0,1,1.342,2.8,1.944,1.944,0,0,1-1.929,1.719c-.775,0-1.125-.61-1.275-1.248a7.821,7.821,0,0,0-2.78-4.629C-430.809,219.948-430.887,219.92-430.866,219.782Z"
                                               transform="translate(1171.763 88.454)"/></g></svg>
