<svg xmlns="http://www.w3.org/2000/svg" width="161.037" height="26.597" viewBox="0 0 161.037 26.597"><path d="M340.118,379.741c-1.644.859-2.325,1.629-2.513,2.841-.246,1.6.863,2.664,2.817,2.664a5.983,5.983,0,0,0,1.98-.354,2.229,2.229,0,0,1,.793-.149c.859,0,1.612.681,1.507,1.363-.146.947-1.972,1.657-4.194,1.657-3.287,0-5.248-1.687-4.868-4.144.3-1.984,1.852-3.376,4.436-4C340.195,379.622,340.216,379.681,340.118,379.741Zm6.786-10.393a8.658,8.658,0,0,0,3.446,1.273,2.019,2.019,0,0,0,.668-.119,3.43,3.43,0,0,1,.455-.059.877.877,0,0,1,.97,1.007c-.165,1.066-1.789,2.19-4.517,3.167a11.356,11.356,0,0,0,.645,1.57c1.048,2.043,1.171,2.4,1.01,3.434a3.3,3.3,0,0,1-2.9,2.694c-.414,0-.543-.119-.757-.86-.138-.443-.288-.621-.914-.976a12.669,12.669,0,0,0-2.1-.947c-.086-.03-.042-.12.048-.12a27.749,27.749,0,0,0,3,.327c.742,0,1.138-.267,1.229-.859a3.744,3.744,0,0,0-.374-1.807c-.18-.563-.465-1.39-.621-1.924a22.82,22.82,0,0,1-5.768.917c-2.457,0-4.038-1.271-3.973-3.226.013-.089.074-.089.123-.03.669,1.036,1.473,1.391,3.1,1.391a22.422,22.422,0,0,0,6.055-1.037,34.381,34.381,0,0,1-.426-3.581,8.923,8.923,0,0,1-2.861.5c-1.984,0-3.359-1.066-3.409-2.664.009-.059.038-.059.093-.03a3.256,3.256,0,0,0,2.282.949,11.055,11.055,0,0,0,3.816-.919c0-.77,0-.947-.032-2.1-.024-1.57-.383-2.133-1.39-2.133a1.715,1.715,0,0,0-.962.3c-.065.03-.119,0-.081-.059a2.914,2.914,0,0,1,2.568-1.48c1.48,0,2.158.977,1.9,2.872-.083.533-.126,1.007-.23,1.866a2.853,2.853,0,0,1,1.657-.563c.829,0,1.222.326,1.127.947-.143.919-1.379,1.452-2.888,2.014Zm2.448,2.369c-.781-.71-1.518-1.3-2.444-2.013a13.1,13.1,0,0,0,.4,2.96A7.971,7.971,0,0,0,349.353,371.716Z" transform="translate(-335.594 -361.739)" fill="#fff"/><path d="M350.866,372.63a1,1,0,0,0,.781.5c.414,0,.892-.207,2.6-1.1a50.95,50.95,0,0,1,4.814-2.22,13.085,13.085,0,0,1,4.872-1.066c3.554,0,5.9,2.871,5.329,6.543-.684,4.442-4.733,7.255-10.912,7.58-.627.03-1.13.03-1.866,0-.084-.03-.071-.119.023-.147a18.02,18.02,0,0,0,5.125-1.54c2.914-1.422,4.689-3.524,5.1-6.159.465-3.02-.814-5.093-3.182-5.093-1.423,0-2.778.533-5.695,2.546-1.189.8-2.247,1.51-3.128,2.043a4.457,4.457,0,0,1-2.186.919,1.983,1.983,0,0,1-2-2.222,2.426,2.426,0,0,1,.21-.591C350.785,372.57,350.816,372.57,350.866,372.63Z" transform="translate(-328.117 -358.329)" fill="#fff"/><path d="M372.864,361.862c.2.416.308.5,1.423.947,2,.86,2.505,1.807,2.163,4.027-.036.237-.18.977-.342,1.836-.246,1.213-.419,2.131-.491,2.606-.329,2.131-.164,2.783.755,2.783a4.307,4.307,0,0,0,2.014-.77,2.716,2.716,0,0,1,1.5-.533,1.4,1.4,0,0,1,1.486,1.51c-.1.621-.477.977-1.348,1.243a18.561,18.561,0,0,1-1.879.474,14.446,14.446,0,0,0-2.327.681,15.1,15.1,0,0,0-4.667,2.606,4.52,4.52,0,0,0-1.791,2.783c-.287,1.864,1.123,2.9,3.906,2.9a18.033,18.033,0,0,0,4.482-.651,5.133,5.133,0,0,1,1.184-.179c.917,0,1.557.474,1.45,1.156-.192,1.243-2.723,2.1-6.1,2.1-4.592,0-6.8-1.807-6.3-5.063.4-2.606,2.286-4.649,6.418-7.047-1.094-.593-1.381-1.422-1.13-3.05.078-.5.245-1.391.5-2.457.4-1.629.567-2.339.688-3.11a3.017,3.017,0,0,0,.031-1.361c-.1-.326-.357-.563-.86-.947a2.1,2.1,0,0,1-.992-2.013,2.856,2.856,0,0,1,.1-.474C372.785,361.8,372.843,361.8,372.864,361.862Z" transform="translate(-319.397 -361.803)" fill="#fff"/><path d="M385.27,379.187,385,380.964c-.12.77-.732,1.1-1.77,1.1-.947,0-1.133-.326-1.043-.919.261-1.687.7-3.76,1.753-10.6.407-2.636.785-5.27,1.048-7.936a20.449,20.449,0,0,1,2.8,1.6h3.939c1.159-1.183,1.424-1.361,1.662-1.361.3,0,.534.179,1.479.977.444.384.588.593.552.83s-.177.384-.916.947l-.371,2.4c-.986,6.4-1.551,11.015-1.774,12.466-.119.77-.707,1.124-1.8,1.124-.8,0-1.118-.237-1.013-.917l.228-1.482Zm5.648-7.43h-4.5l-1.042,6.75h4.5Zm1.06-6.87h-4.5l-.955,6.189h4.5Zm6.016,12.643a18.485,18.485,0,0,1-1.552,3.523,17.544,17.544,0,0,1-8.5,7.343c-.158.06-.359-.179-.227-.266a19.591,19.591,0,0,0,6.423-7.462c1.439-2.813,2.019-5.982,2.918-11.815.416-2.694.641-4.53.88-7.046a18.574,18.574,0,0,1,3,1.687H406.5c1.253-1.213,1.518-1.391,1.755-1.391.3,0,.506.179,1.524,1.066.44.414.585.621.549.859-.042.267-.144.356-.932.859l-.255,1.659c-2.463,15.959-2.538,17.025-2.789,18.653a2.87,2.87,0,0,1-1.549,2.546,4.563,4.563,0,0,1-2.253.593c-.563,0-.638-.09-.648-.593-.021-1.214-.672-1.6-2.861-2.191-.144-.03-.093-.354.056-.354,1.585.089,2.706.117,3.861.117.414,0,.516-.087.581-.5l1.124-7.283Zm1.566-6.692c-.371,2.013-.77,4.027-1.342,6.01h6.543l.929-6.01Zm7.157-6.662h-6.13l-.188,1.214c-.239,1.746-.482,3.316-.736,4.766h6.13Z" transform="translate(-312.261 -361.808)" fill="#fff"/><path d="M407.988,384.941l-.21,1.361c-.132.86-.775,1.184-1.959,1.184-.919,0-1.234-.266-1.123-.977.374-2.427.931-4.884,2.438-14.656.494-3.2.958-6.394,1.333-9.592a15.238,15.238,0,0,1,3.175,1.687H423.1c1.45-1.333,1.714-1.51,1.951-1.51.3,0,.506.177,1.564,1.184.459.473.606.681.569.917-.047.3-.284.5-1.034.949l-.521,3.374c-1.379,8.942-2.151,15.1-2.466,17.143-.132.859-.839,1.214-2.025,1.214-.947,0-1.228-.3-1.121-.977l.2-1.3Zm13.84-10.422H409.6l-1.5,9.74h12.23Zm1.525-9.89H411.121l-1.42,9.209h12.232Z" transform="translate(-300.982 -361.581)" fill="#fff"/><path d="M429.9,362.153a1.906,1.906,0,0,1,.862-.207,2.848,2.848,0,0,1,2.709,3.167,3.73,3.73,0,0,1-.554,1.48c-.381.742-.739,1.333-1.081,2.014,1.052.089,1.567.591,1.435,1.451-.107.68-.32.917-1.4,1.183-.4.09-.8.179-1.378.3-.772,1.924-1.273,3.257-2.046,5.389a6.759,6.759,0,0,0,1.563-.149,2.647,2.647,0,0,1,.725-.089c.977,0,1.471.444,1.361,1.156-.147.946-1.566,1.509-3.738,1.567a5.341,5.341,0,0,1-.615-.029c-.174.74-.267,1.154-.35,1.687-.452,2.932.757,4.5,3.392,4.5a5.082,5.082,0,0,0,5.1-4.234c.387-2.517-.89-5.182-3.721-7.757a.1.1,0,0,1,.113-.149c4.24,2.073,6.527,5.3,6.034,8.5a7.559,7.559,0,0,1-7.531,6.012c-3.88,0-5.711-2.339-5.072-6.486a17.709,17.709,0,0,1,.5-2.279,3.114,3.114,0,0,1-1.816-3.583,3.7,3.7,0,0,1,.356-1.154.075.075,0,0,1,.143.03c-.015,1.45.506,2.1,2.029,2.4.614-1.866,1.076-3.14,1.75-5a18.725,18.725,0,0,0-2.7.977c-.093.03-.143-.03-.075-.089a17.052,17.052,0,0,1,3.163-2.073,4.116,4.116,0,0,1-2.472-.86,2.015,2.015,0,0,1-.432-1.806,3.386,3.386,0,0,1,.159-.65c.038-.06.069-.06.089,0a1.336,1.336,0,0,0,.821,1.007,6.68,6.68,0,0,0,2.6.236,23.111,23.111,0,0,0,1.133-3.7c.2-1.3-.21-2.28-1.073-2.634C429.829,362.242,429.84,362.183,429.9,362.153Z" transform="translate(-291.13 -361.739)" fill="#fff"/><path d="M438.454,375.033a.322.322,0,0,1,.308-.266,12.579,12.579,0,0,1,4.868,2.043,3.148,3.148,0,0,1,1.433,2.992A2.078,2.078,0,0,1,443,381.637c-.83,0-1.2-.653-1.364-1.333a8.237,8.237,0,0,0-3.023-4.974A.312.312,0,0,1,438.454,375.033Z" transform="translate(-284.059 -355.315)" fill="#fff"/></svg>