<svg xmlns="http://www.w3.org/2000/svg" width="165.093" height="55.307" viewBox="0 0 165.093 55.307"><g transform="translate(-144.827 0)"><path d="M456.545,423.033a57.55,57.55,0,0,0,10.091-9.968,76.336,76.336,0,0,0,8.4-13.184,36.638,36.638,0,0,0,3.154-7.523c.11-.708-.207-1.157-1.156-1.672a.5.5,0,0,1-.362-.579c.049-.321.506-.772,1.346-1.222a5.278,5.278,0,0,1,2.265-.515,5.133,5.133,0,0,1,3.5,1.479c1.267.967,1.816,1.995,1.677,2.9-.089.578-.4.9-1.064,1.479a5.6,5.6,0,0,0-1.689,2.187,37.275,37.275,0,0,1-2.588,4.7c1.884-.129,2.868-.258,5.353-.515,2.687-.323,4-.516,5.5-.644a5,5,0,0,0,2.583-.9,3.132,3.132,0,0,1,1.494-.513c.836,0,1.993.836,3.127,2.25,1.142,1.351,1.487,2.444,1.358,3.28a2.177,2.177,0,0,1-1.064,1.48,3.605,3.605,0,0,0-1.456,1.929,74.8,74.8,0,0,1-14.42,21.351,53.064,53.064,0,0,1-25.582,14.084c-.267.065-.356-.194-.134-.387a66.846,66.846,0,0,0,22.364-16.977,71.163,71.163,0,0,0,12.139-19.486,7.739,7.739,0,0,0,.674-1.864c.059-.386-.234-.579-1-.579-1.159,0-2.8.194-6.061.515-2.868.258-4.967.515-7.064.772a49.329,49.329,0,0,1-9.563,11.126,40.726,40.726,0,0,1-11.68,7.331C456.485,423.419,456.323,423.227,456.545,423.033Z" transform="translate(-311.611 -388.37)" fill="#fff"/><path d="M496.4,406.183a2.375,2.375,0,0,0,2.657,1.543,57.994,57.994,0,0,0,6.861-.707c4.409-.644,8.272-1.093,12.284-1.672a14.6,14.6,0,0,0,5.309-1.479,4.416,4.416,0,0,1,1.909-.708c.9,0,2.469,1.094,3.948,2.766a3.892,3.892,0,0,1,1.162,2.894,1.869,1.869,0,0,1-.991,1.414c-.786.515-.946.707-1.738,2.508-3.9,8.167-8.44,14.276-13.731,18.972A47.746,47.746,0,0,1,492.4,442.581c-.332.065-.4-.321-.123-.449a53.016,53.016,0,0,0,19.335-14.021,61.813,61.813,0,0,0,10-16.076,18.307,18.307,0,0,0,1.036-2.959c.059-.386-.114-.515-.5-.515a23.293,23.293,0,0,0-3.34.387,154.092,154.092,0,0,0-15.239,2.893,20.388,20.388,0,0,1-4.7.836,3.779,3.779,0,0,1-3.753-4.437,4.512,4.512,0,0,1,.961-2.058C496.24,405.991,496.3,405.991,496.4,406.183ZM501.909,393a5.475,5.475,0,0,0,3.355.772,68.972,68.972,0,0,0,11.033-1.479c3.518-.707,3.988-.836,5.563-1.864a3.987,3.987,0,0,1,1.944-.515,8.119,8.119,0,0,1,3.536.836A2.157,2.157,0,0,1,528.6,393c-.267,1.737-1.376,2.252-6.106,2.894-1.114.129-2.493.321-4.325.515-2.3.321-4.011.578-6.441.9a32.872,32.872,0,0,1-4.508.45,5.342,5.342,0,0,1-5.533-4.566C501.654,393,501.791,392.935,501.909,393Z" transform="translate(-293.743 -387.597)" fill="#fff"/><path d="M572.457,407.616a67.117,67.117,0,0,1-22.79,20.579c-5.992,3.409-12.756,5.982-15.714,5.982a3.991,3.991,0,0,1-4.2-3.6,26.655,26.655,0,0,1,.432-4.051c.471-3.473.874-6.495,1.39-9.839.536-3.473.952-6.174,1.522-9.453.431-2.379.844-4.631,1.444-8.1.207-1.349.108-1.543-.914-1.993-.6-.257-.832-.449-.792-.707a4.249,4.249,0,0,1,1.415-1.672,4.16,4.16,0,0,1,2.391-.9,5.189,5.189,0,0,1,3.571,1.866c.979,1.157,1.409,2.122,1.28,2.959a2.348,2.348,0,0,1-.807,1.479,2.626,2.626,0,0,0-1.034,2.122c-1.375,6.816-2.019,10.16-3.268,18.263a50.46,50.46,0,0,0-.72,5.917c-.05,1.157.231,1.416,1,1.416,2.123,0,8.952-2.573,14.755-5.594a83.214,83.214,0,0,0,20.7-14.922C572.344,407.1,572.637,407.3,572.457,407.616Z" transform="translate(-274.88 -385.623)" fill="#fff"/><path d="M571.737,422.522a9.668,9.668,0,0,1-9.215,8.04,6.724,6.724,0,0,1-6.8-8.04,9.665,9.665,0,0,1,9.27-7.974A6.636,6.636,0,0,1,571.737,422.522Zm-13.892,0a4.877,4.877,0,0,0,5,5.917,7.022,7.022,0,0,0,6.765-5.917,4.849,4.849,0,0,0-4.949-5.853A7.02,7.02,0,0,0,557.845,422.522Z" transform="translate(-261.914 -375.254)" fill="#fff"/></g></svg>