<svg xmlns="http://www.w3.org/2000/svg" width="124" height="472" viewBox="0 0 124 472"><g transform="translate(1 -5)"><path d="M0,0V470" transform="translate(122 476) rotate(180)" fill="none" stroke="#fff" stroke-linecap="square" stroke-width="2" stroke-dasharray="4 8"/><path d="M0,0V470" transform="translate(61 476) rotate(180)" fill="none" stroke="#fff" stroke-linecap="square" stroke-width="2" stroke-dasharray="4 8"/><path d="M0,0V470" transform="translate(0 476) rotate(180)" fill="none" stroke="#fff" stroke-linecap="square" stroke-width="2" stroke-dasharray="4 8"/><g transform="translate(-4554.257 3120.615)"><path d="M4578.329-3099.6c-.16,0-.176,0-.176-.16,0-.112.033-.768.033-4.338v-2.545c0-2.529-.033-3.233-.033-3.329,0-.16.016-.176.176-.176.112,0,.481.032,1.617.032h1.857c1.136,0,1.5-.032,1.616-.032.16,0,.177.016.177.176,0,.1-.033.768-.033,2.865v2.753c0,3.394.033,4.034.033,4.129,0,.161-.017.177-.177.177h-1.2c-.176,0-.193-.016-.193-.177v-.784h-2.272v1.249c0,.16-.017.16-.192.16Zm1.425-9.076v2.337h2.272v-2.337Zm2.272,6.211v-2.433h-2.272v2.433Zm9.268,1.824c0,.753.032,1.569.032,2.209a1.54,1.54,0,0,1-.464,1.313,3.353,3.353,0,0,1-2.144.416c-.5,0-.5,0-.609-.5a4.232,4.232,0,0,0-.448-1.2c.544.047,1.072.064,1.376.064.5,0,.625-.144.625-.561v-3.073h-3.281a7.406,7.406,0,0,1-2.85,5.138c-.192.16-.288.24-.384.24-.08,0-.176-.1-.352-.288a4.245,4.245,0,0,0-.977-.8c2.434-1.761,3.186-3.17,3.186-8.548v-1.969c0-1.408-.032-2.128-.032-2.24,0-.161.016-.177.192-.177.1,0,.512.032,1.793.032h2.385c1.264,0,1.7-.032,1.793-.032.176,0,.191.016.191.177,0,.1-.032.832-.032,2.24Zm-1.632-2.8v-2.1h-3.01c-.015.769-.048,1.473-.095,2.1Zm-3.01-5.634v2.065h3.01v-2.065Z" fill="#fff"/><path d="M4579.786-3079.489c-.16,0-.177-.016-.177-.176,0-.112.033-1.057.033-5.7v-3.09c0-3.105-.033-4.081-.033-4.177,0-.177.017-.193.177-.193.111,0,.656.032,2.209.032h5.489c1.553,0,2.114-.032,2.209-.032.161,0,.177.016.177.193,0,.1-.032,1.072-.032,3.7v3.554c0,4.593.032,5.538.032,5.634,0,.16-.016.176-.177.176h-1.423c-.161,0-.177-.016-.177-.176v-.785h-6.706v.865c0,.16-.017.176-.177.176Zm1.6-8.068h6.706v-3.649h-6.706Zm6.706,5.443v-3.874h-6.706v3.874Z" fill="#fff"/><path d="M4581.435-3075.142c.175.1.24.192.24.32a.817.817,0,0,1-.112.352,3.253,3.253,0,0,0-.289.881,31.8,31.8,0,0,0-.8,5.826c0,.64,0,1.376.048,2.049.32-.737.657-1.425.993-2.225a4.211,4.211,0,0,0,.559,1.008.341.341,0,0,1,.1.224.457.457,0,0,1-.1.256,9.485,9.485,0,0,0-.815,2.433,3.034,3.034,0,0,0-.017.849c.017.112-.048.16-.192.208a6.7,6.7,0,0,1-1.2.272c-.176.048-.241.032-.321-.192a14.926,14.926,0,0,1-.687-4.882,34.815,34.815,0,0,1,.656-6.067,8,8,0,0,0,.111-1.888A12.543,12.543,0,0,1,4581.435-3075.142Zm5.5,4.274a32.335,32.335,0,0,1-3.3-.016c-.208,0-.273-.049-.289-.208a9.833,9.833,0,0,1-.112-1.457,23.151,23.151,0,0,0,3.65.048c0-.576-.016-1.088-.016-1.681a6.649,6.649,0,0,0-.208-1.568,8.914,8.914,0,0,1,1.936.3c.176.048.289.128.289.272a.7.7,0,0,1-.1.272,1.809,1.809,0,0,0-.129.56c-.031.545-.031.961-.031,1.7.752-.064,1.584-.176,2.272-.288.193-.048.225.016.256.192a6.4,6.4,0,0,1,.1,1.137c0,.144-.065.224-.177.239a18,18,0,0,1-2.465.337c0,1.792.032,2.913.112,4.289a10.509,10.509,0,0,1,2.658,1.537c.143.1.16.144.08.32a8.73,8.73,0,0,1-.737,1.233.191.191,0,0,1-.144.1.222.222,0,0,1-.144-.08,9.448,9.448,0,0,0-1.728-1.281c-.129,1.345-1.041,2.081-2.93,2.081-1.841,0-2.865-.864-2.865-2.241,0-1.313,1.184-2.257,2.8-2.257a6.675,6.675,0,0,1,1.28.128C4586.973-3068.436,4586.957-3069.6,4586.94-3070.868Zm-1.295,4.978c-.753,0-1.2.272-1.2.768s.353.8,1.3.8c.8,0,1.313-.464,1.313-1.04a2.234,2.234,0,0,0-.016-.32A4.458,4.458,0,0,0,4585.645-3065.89Z" fill="#fff"/><path d="M4588.653-3059.319a.347.347,0,0,1,.241-.128.326.326,0,0,1,.208.1,11.927,11.927,0,0,1,3.185,2.929c.1.129.111.176.111.24,0,.08-.031.144-.159.256l-.976.833c-.113.1-.177.144-.225.144-.08,0-.143-.032-.224-.16a11.961,11.961,0,0,0-3.025-3.058c-.1-.063-.144-.111-.144-.16s.032-.1.112-.192Z" fill="#fff"/><path d="M4583.5-3041.023c.192.048.288.128.288.256,0,.224-.111.448-.111.672,0,.321.048.705.079,1.073a22.545,22.545,0,0,0,.513,2.753c.8-.432,1.377-.736,2.272-1.216a3.967,3.967,0,0,0,1.1-.865,8.167,8.167,0,0,1,1.168,1.505.646.646,0,0,1,.113.336c0,.16-.1.288-.321.32a7.715,7.715,0,0,0-1.537.48,22.272,22.272,0,0,0-3.76,1.873c-1.393.912-1.89,1.665-1.89,2.417,0,.928.656,1.344,2.657,1.344a28.484,28.484,0,0,0,4.771-.368c.175-.032.256,0,.288.193a14.036,14.036,0,0,1,.16,1.488c.016.176-.1.256-.288.272a34.243,34.243,0,0,1-4.771.24c-3.025,0-4.626-.992-4.626-3.073,0-1.777,1.169-2.945,3.042-4.13a24.45,24.45,0,0,1-.833-3.905,7.1,7.1,0,0,0-.416-1.857A9.261,9.261,0,0,1,4583.5-3041.023Zm5.234.192c.08-.064.144-.048.241.032a7.376,7.376,0,0,1,1.52,1.713.16.16,0,0,1-.048.256l-.673.5a.166.166,0,0,1-.271-.048,7.95,7.95,0,0,0-1.617-1.857Zm1.425-1.041c.1-.064.144-.047.24.033a6.687,6.687,0,0,1,1.521,1.649.186.186,0,0,1-.048.288l-.641.5a.164.164,0,0,1-.272-.049,7.549,7.549,0,0,0-1.6-1.84Z" fill="#fff"/><path d="M4582.171-3016.771a3.175,3.175,0,0,1,1.952-.816c1.73,0,2.161,1.488,2.338,3.025.128,1.168.319,1.7.928,1.7a2.049,2.049,0,0,0,1.5-.768,7.914,7.914,0,0,0,1.616-2.609,3.872,3.872,0,0,0,.928,1.328.442.442,0,0,1,.176.337.561.561,0,0,1-.063.272,8.679,8.679,0,0,1-1.377,1.985,4,4,0,0,1-2.945,1.344c-1.617,0-2.305-.848-2.513-3.1-.145-1.6-.5-2.065-1.057-2.065a2.793,2.793,0,0,0-2.016,1.361,18.49,18.49,0,0,0-1.873,3.553c-.1.224-.176.256-.384.192a5.158,5.158,0,0,1-1.233-.688.28.28,0,0,1-.144-.208.478.478,0,0,1,.08-.224c2.337-4.578,3.809-7.635,4.69-9.636a9.6,9.6,0,0,0,.8-2.337,9.287,9.287,0,0,1,1.793.9.418.418,0,0,1,.224.337.5.5,0,0,1-.176.319,4.188,4.188,0,0,0-.5.689c-1.025,1.969-1.889,3.649-2.77,5.09Z" fill="#fff"/><path d="M4585.516-3004.709c.144-.048.209-.048.24.128a8.689,8.689,0,0,1,.144,1.3c0,.144-.064.176-.192.192-.864.176-1.648.288-2.641.432a44.132,44.132,0,0,1-3.121,6.867c-.064.112-.112.16-.176.16a.453.453,0,0,1-.192-.08,7.538,7.538,0,0,1-1.1-.817c-.08-.064-.113-.112-.113-.176a.306.306,0,0,1,.08-.192,32.205,32.205,0,0,0,2.769-5.586c-.607.032-1.1.032-1.6.032-.351,0-.479,0-.88-.016-.16,0-.192-.048-.224-.256a8.337,8.337,0,0,1-.16-1.361c.656.048,1.024.064,1.489.064.624,0,1.1-.016,1.841-.08.191-.672.3-1.216.416-1.793a6.18,6.18,0,0,0,.1-1.3,14.835,14.835,0,0,1,1.873.336c.16.032.255.128.255.24a.392.392,0,0,1-.143.3,1.765,1.765,0,0,0-.257.593c-.111.384-.239.88-.384,1.36A17.2,17.2,0,0,0,4585.516-3004.709Zm.448,4.29a5.519,5.519,0,0,0-.128-1.137,8.561,8.561,0,0,1,1.745.3.244.244,0,0,1,.224.255,2.015,2.015,0,0,1-.1.337,1.661,1.661,0,0,0-.064.656,20.933,20.933,0,0,0,.176,2.721,12.49,12.49,0,0,1,2.881,1.489c.16.112.176.176.1.336a9.715,9.715,0,0,1-.736,1.3c-.048.08-.1.112-.144.112s-.1-.032-.16-.1a11.905,11.905,0,0,0-1.953-1.344c0,1.6-1.153,2.337-2.977,2.337-1.761,0-2.945-.9-2.945-2.273,0-1.393,1.152-2.337,2.961-2.337a8.239,8.239,0,0,1,1.264.1C4586.013-2998.69,4585.98-2999.667,4585.964-3000.419Zm-1.136,4.033c-.8,0-1.425.321-1.425.929,0,.512.449.768,1.361.768.864,0,1.392-.464,1.392-1.136a2.031,2.031,0,0,0-.015-.321A4.118,4.118,0,0,0,4584.828-2996.386Zm2.977-7.7c.1-.16.176-.176.337-.112a12.517,12.517,0,0,1,3.136,1.505c.1.064.145.112.145.176a.387.387,0,0,1-.065.192,9.8,9.8,0,0,1-.671,1.184c-.049.08-.1.113-.145.113a.223.223,0,0,1-.144-.064,13.8,13.8,0,0,0-3.313-1.745C4587.356-3003.316,4587.6-3003.8,4587.805-3004.085Z" fill="#fff"/><path d="M4579.657-2983.108c-1.408,0-1.888.032-1.984.032-.144,0-.16-.016-.16-.176v-1.024c0-.177.016-.192.16-.192.1,0,.576.031,1.984.031h4.162v-.816h-2.033c-1.552,0-2.112.032-2.224.032-.161,0-.176-.016-.176-.176,0-.112.032-.448.032-1.28v-1.553c0-.848-.032-1.2-.032-1.3,0-.177.015-.193.176-.193.112,0,.672.032,2.224.032h5.891c1.568,0,2.129-.032,2.224-.032.177,0,.193.016.193.193,0,.095-.032.448-.032,1.3v1.553c0,.832.032,1.184.032,1.28,0,.16-.016.176-.193.176-.095,0-.656-.032-2.224-.032h-2.225v.816h4.354c1.409,0,1.873-.031,1.968-.031.145,0,.161.015.161.192v1.024c0,.16-.016.176-.161.176-.095,0-.559-.032-1.968-.032Zm2.706,4.53a.283.283,0,0,1,.192.256c0,.1-.1.16-.208.224a2.09,2.09,0,0,0-.432.352,11.327,11.327,0,0,1-2.609,1.761.913.913,0,0,1-.368.144c-.113,0-.176-.112-.353-.352a4.436,4.436,0,0,0-.752-.9,9.558,9.558,0,0,0,2.689-1.441,2.278,2.278,0,0,0,.56-.624C4581.547-2978.962,4581.963-2978.77,4582.363-2978.578Zm4.9-3.826c1.552,0,2.1-.032,2.193-.032.176,0,.192.017.192.176,0,.1-.033.337-.033.961v.848c0,.64.033.881.033.976,0,.161-.016.177-.192.177-.1,0-.641-.033-2.193-.033h-1.713v.785c0,.528.032.944.032,1.408a1.27,1.27,0,0,1-.464,1.217c-.32.256-.64.336-2.081.336-.513,0-.513,0-.624-.5a4.712,4.712,0,0,0-.385-1.041c.529.049.961.064,1.377.064.384,0,.529-.095.529-.512v-1.761h-1.778c-1.551,0-2.1.033-2.192.033-.176,0-.192-.016-.192-.177,0-.111.032-.336.032-.976v-.848c0-.624-.032-.865-.032-.961,0-.159.016-.176.192-.176.1,0,.641.032,2.192.032Zm-6.259-5.538h7.476v-.624H4581Zm7.476.977H4581v.64h7.476Zm-.5,5.7h-6.546v.832h6.546Zm-.112,2.209c.16-.112.208-.1.336.016a9.741,9.741,0,0,0,3.394,1.792,3.652,3.652,0,0,0-.737.993c-.144.272-.224.384-.336.384a1.253,1.253,0,0,1-.368-.144,11.3,11.3,0,0,1-3.2-2.145c-.129-.128-.1-.16.08-.288Z" fill="#fff"/><path d="M4579.418-2967.492c-.288.224-.608.432-.929.64-.176.112-.272.192-.352.192-.1,0-.16-.128-.256-.384a2.818,2.818,0,0,0-.609-.977,12.277,12.277,0,0,0,4.258-3.857,5.685,5.685,0,0,0,.513-1.057c.592.1,1.1.208,1.553.321.159.064.223.144.223.256a.333.333,0,0,1-.175.256,1.679,1.679,0,0,0-.4.528l-.048.064h3.074a.781.781,0,0,0,.383-.048.638.638,0,0,1,.225-.048c.111,0,.24.08.64.4.368.32.448.416.448.56s-.1.208-.256.289a1.96,1.96,0,0,0-.5.5c-.448.544-.8.96-1.217,1.392h1.889c1.569,0,2.129-.032,2.225-.032.16,0,.176.016.176.176,0,.1-.032.465-.032,1.377v1.921c0,.928.032,1.312.032,1.408,0,.161-.016.176-.176.176-.1,0-.656-.032-2.225-.032h-6.8v1.889c0,.784.128,1.088.656,1.232a17.75,17.75,0,0,0,3.474.177c2.833,0,3.857-.113,4.321-.448.465-.353.481-.865.545-2.018a4.684,4.684,0,0,0,1.248.465c.513.112.5.144.448.624-.112,1.264-.416,1.921-1.056,2.337-.624.448-2.145.608-5.426.608-2.833,0-4.162-.112-4.866-.448-.672-.272-1.008-.881-1.008-2.209Zm4.657-.977a16.164,16.164,0,0,0,1.393-1.713h-3.2a12.551,12.551,0,0,1-1.633,1.713Zm-.143,3.554v-2.129h-2.85v2.129Zm4.641-2.129h-3.009v2.129h3.009Z" fill="#fff"/><path d="M4581.387-2953.861c.271.144.368.239.368.383,0,.113-.032.161-.24.481a3.743,3.743,0,0,0-.385,1.136,25.97,25.97,0,0,0-.672,5.171,15.427,15.427,0,0,0,.1,1.872c.337-.736.625-1.265,1.089-2.385a4.15,4.15,0,0,0,.56,1.009.629.629,0,0,1,.111.24.434.434,0,0,1-.08.256,15.776,15.776,0,0,0-.912,2.417,1.829,1.829,0,0,0-.048.5c0,.192.033.32.033.448,0,.112-.065.176-.208.208a7.979,7.979,0,0,1-1.313.256c-.112.017-.177-.064-.208-.176a15,15,0,0,1-.736-4.77,30.566,30.566,0,0,1,.544-5.25,12.9,12.9,0,0,0,.288-2.385A7.075,7.075,0,0,1,4581.387-2953.861Zm3.425,7.539c.127-.016.16.064.16.239.1,1.1.864,1.505,2.609,1.505a22.983,22.983,0,0,0,3.057-.208c.16-.016.192,0,.224.208a11.794,11.794,0,0,1,.1,1.377c0,.192,0,.208-.271.24a21.536,21.536,0,0,1-2.61.176c-2.369,0-3.473-.384-4.162-1.329a3.533,3.533,0,0,1-.56-2.08Zm-.9-5.987c.017-.192.064-.24.225-.272a25.549,25.549,0,0,1,3.473-.288c.96,0,1.7.032,2.368.1.337.016.369.048.369.208,0,.48,0,.912-.032,1.36-.016.144-.064.208-.208.193-.961-.064-1.793-.1-2.609-.1a19.589,19.589,0,0,0-3.634.368C4583.884-2951.637,4583.884-2952.037,4583.915-2952.309Z" fill="#fff"/><path d="M4588.781-2934.565a17.917,17.917,0,0,0-.08-2.033c.593.016,1.1.048,1.665.112.16.016.256.08.256.176a1.038,1.038,0,0,1-.08.32,4.972,4.972,0,0,0-.112,1.569v2.256c0,.961.032,1.425.032,1.521,0,.176-.016.192-.16.192h-1.328c-.176,0-.193-.016-.193-.192v-.592H4585.5v4.93h3.794v-1.216a14.443,14.443,0,0,0-.1-2.033c.609.015,1.137.048,1.681.112.144.016.24.1.24.176a1.052,1.052,0,0,1-.08.32,4.963,4.963,0,0,0-.112,1.569v1.936c0,.9.032,1.313.032,1.409,0,.144-.016.16-.176.16h-1.312c-.16,0-.176-.016-.176-.16v-.737h-9.108v.817c0,.144-.016.16-.176.16H4578.7c-.176,0-.192-.016-.192-.16,0-.112.032-.512.032-1.409v-2.113a14.345,14.345,0,0,0-.1-2.016c.609.015,1.137.048,1.681.112.16.016.272.08.272.176a1.056,1.056,0,0,1-.1.32,4.211,4.211,0,0,0-.112,1.392v1.185h3.6v-4.93H4580.7v.656c0,.16-.016.176-.176.176h-1.329c-.16,0-.175-.016-.175-.176,0-.112.032-.56.032-1.521v-2.4a14.841,14.841,0,0,0-.1-2.049c.609.016,1.137.048,1.681.112.16.016.24.1.24.192a1.325,1.325,0,0,1-.08.32,4.52,4.52,0,0,0-.1,1.408v1.746h3.089v-3.506a14.633,14.633,0,0,0-.111-2.065c.607.016,1.2.064,1.76.128.144.016.24.064.24.16a.905.905,0,0,1-.1.32,5.508,5.508,0,0,0-.08,1.473v3.49h3.281Z" fill="#fff"/><path d="M4581.547-2916.021a18.671,18.671,0,0,1-2.9,1.729,1.052,1.052,0,0,1-.383.144c-.113,0-.161-.112-.289-.4a3.736,3.736,0,0,0-.72-1.056,13.364,13.364,0,0,0,6.146-4.658,4.815,4.815,0,0,0,.561-1.041,12.26,12.26,0,0,1,1.728.336c.192.049.288.113.288.224a.263.263,0,0,1-.16.257,1.346,1.346,0,0,0-.224.144,14.4,14.4,0,0,0,6.771,4.577,4.73,4.73,0,0,0-.688,1.2c-.113.288-.16.4-.273.4a1.105,1.105,0,0,1-.368-.128,17.653,17.653,0,0,1-3.057-1.7v1.185c0,.16-.016.176-.176.176-.1,0-.529-.032-1.809-.032h-2.465c-1.28,0-1.713.032-1.808.032-.16,0-.176-.016-.176-.176Zm-1.025,4.338c-1.5,0-2.017.032-2.113.032-.176,0-.192-.016-.192-.176v-1.2c0-.161.016-.177.192-.177.1,0,.609.033,2.113.033h8.532c1.5,0,2.016-.033,2.112-.033.177,0,.192.016.192.177v1.2c0,.16-.015.176-.192.176-.1,0-.607-.032-2.112-.032h-4.947a29.608,29.608,0,0,1-1.424,3.009c1.665-.1,3.41-.24,4.93-.4-.368-.448-.736-.9-1.169-1.361-.112-.128-.095-.191.1-.288l1.024-.527c.177-.1.225-.081.337.031a28.355,28.355,0,0,1,2.977,3.714c.08.128.08.192-.08.3l-1.1.72c-.095.064-.143.1-.191.1s-.08-.032-.128-.112c-.272-.448-.545-.864-.8-1.248-2.657.336-5.922.608-8.643.816a1.413,1.413,0,0,0-.576.144.409.409,0,0,1-.273.1c-.111,0-.191-.08-.224-.224-.144-.528-.24-1.088-.336-1.649a12.69,12.69,0,0,0,1.745,0c.16,0,.337-.016.512-.016a25.956,25.956,0,0,0,1.409-3.105Zm5.474-4.465c1.072,0,1.553-.017,1.729-.033a14.524,14.524,0,0,1-3.025-2.929,14.917,14.917,0,0,1-2.929,2.929c.144.016.592.033,1.76.033Z" fill="#fff"/><path d="M4582.747-2898.917c1.232-.191,2.129-.368,2.785-.512a2.321,2.321,0,0,0,.64-.256.613.613,0,0,1,.352-.112c.1,0,.145.032.273.112a3.749,3.749,0,0,1,.944.849.6.6,0,0,1,.176.368.431.431,0,0,1-.288.368,2.453,2.453,0,0,0-.512.368c-1.184,1.121-1.841,1.793-2.914,2.945a1.994,1.994,0,0,1,.576-.08,1.821,1.821,0,0,1,1.745,1.617c.321,1.312.577,1.568,1.761,1.568a10.745,10.745,0,0,0,2.482-.288c.175-.031.255.064.288.241a8.46,8.46,0,0,1,.111,1.408c0,.16-.08.224-.288.256a13.99,13.99,0,0,1-2.353.208c-2.353,0-3.121-.624-3.457-2.208-.256-1.089-.448-1.537-1.008-1.537a2.279,2.279,0,0,0-1.5.8c-.72.737-1.889,2.145-2.433,2.817a.28.28,0,0,1-.225.112.3.3,0,0,1-.175-.064,8.75,8.75,0,0,1-1.12-.976.257.257,0,0,1-.081-.16.394.394,0,0,1,.128-.257l3.026-3.073c.624-.64,1.456-1.568,3.169-3.409-1.2.32-2.273.576-3.329.848a6.177,6.177,0,0,0-.865.289.718.718,0,0,1-.336.095c-.112,0-.192-.08-.272-.272a11.392,11.392,0,0,1-.641-1.793A17.746,17.746,0,0,0,4582.747-2898.917Zm4.466-3.425c.16.032.224.128.176.352a9.692,9.692,0,0,1-.432,1.313c-.049.128-.144.208-.272.176a24.556,24.556,0,0,1-4.466-1.345.212.212,0,0,1-.145-.288,14.376,14.376,0,0,1,.545-1.489A29.053,29.053,0,0,0,4587.213-2902.342Z" fill="#fff"/><path d="M4583.739-2879.843a4.824,4.824,0,0,1,2.545-.72,3.714,3.714,0,0,1,3.97,3.841c0,2.673-2.161,4.386-5.586,4.386-2.017,0-3.233-.865-3.233-2.353a2.123,2.123,0,0,1,2.256-1.953,2.912,2.912,0,0,1,3.009,2.337,2.411,2.411,0,0,0,1.633-2.433,2.336,2.336,0,0,0-2.513-2.417,6.512,6.512,0,0,0-4.1,1.7c-.464.416-.912.88-1.393,1.36-.112.112-.192.176-.272.176a.4.4,0,0,1-.241-.144,7.263,7.263,0,0,1-.944-1.04c-.1-.128-.048-.24.08-.369a38.283,38.283,0,0,0,3.794-3.537c.992-1.024,1.744-1.824,2.481-2.737-.96.176-2.1.4-3.089.608a4.966,4.966,0,0,0-.672.192,1.167,1.167,0,0,1-.321.08.364.364,0,0,1-.352-.272,7.715,7.715,0,0,1-.56-1.729,7.786,7.786,0,0,0,1.489.033c.976-.1,2.384-.305,3.633-.545a4.224,4.224,0,0,0,.88-.24.837.837,0,0,1,.3-.128.57.57,0,0,1,.368.128,6.029,6.029,0,0,1,1.073,1.025.556.556,0,0,1,.176.384.422.422,0,0,1-.272.384,2.563,2.563,0,0,0-.7.512c-1.168,1.137-2.242,2.257-3.457,3.425Zm.016,4.561c-.464,0-.768.273-.768.609,0,.5.432.832,1.393.832a3.5,3.5,0,0,0,.736-.064C4584.908-2874.785,4584.428-2875.282,4583.755-2875.282Z" fill="#fff"/><path d="M4585.98-2866.406c.176-.048.241.032.256.16.048.352.1.817.113,1.153.015.208-.033.256-.241.3a25.562,25.562,0,0,1-2.785.608c-1.089,3.554-1.905,6-2.929,8.66-.08.224-.176.208-.352.16-.16-.064-.944-.4-1.28-.593a.256.256,0,0,1-.129-.319,59.924,59.924,0,0,0,2.769-7.588c-.928.1-2.048.176-2.8.176-.241,0-.305-.047-.336-.256-.065-.336-.145-.88-.225-1.456a7.413,7.413,0,0,0,1.185.048,21.605,21.605,0,0,0,2.592-.16c.161-.64.288-1.345.4-2a11.031,11.031,0,0,0,.095-1.473,9.4,9.4,0,0,1,2.018.448.267.267,0,0,1,.176.257.386.386,0,0,1-.08.256,3.032,3.032,0,0,0-.336.64c-.16.576-.273,1.12-.385,1.521C4584.332-2865.974,4585.2-2866.182,4585.98-2866.406Zm-.624,7.652c.16,0,.224.064.24.224.129,1.168.913,1.5,2.449,1.5a23.911,23.911,0,0,0,2.689-.224c.128-.016.176.016.192.144a9.934,9.934,0,0,1,.129,1.393c.015.192,0,.24-.257.256a17.662,17.662,0,0,1-2.225.176c-2.049,0-3.137-.288-3.857-1.041a3.117,3.117,0,0,1-.721-2.193A8.1,8.1,0,0,1,4585.356-2858.754Zm-.176-4.242c0-.224.048-.273.288-.32a16.74,16.74,0,0,1,3.121-.369,11.53,11.53,0,0,1,1.873.161c.225.031.272.047.272.24a10.781,10.781,0,0,1,.016,1.28c0,.272-.08.336-.3.288a10.722,10.722,0,0,0-1.985-.192,17.715,17.715,0,0,0-3.217.368C4585.212-2862.1,4585.18-2862.676,4585.18-2863Zm3.7-4.562c.08-.064.144-.048.24.032a7.362,7.362,0,0,1,1.521,1.713.161.161,0,0,1-.048.256l-.672.5a.167.167,0,0,1-.272-.048,7.926,7.926,0,0,0-1.617-1.857Zm1.425-1.041c.1-.064.144-.047.24.033a6.671,6.671,0,0,1,1.521,1.648.185.185,0,0,1-.048.288l-.641.5a.163.163,0,0,1-.271-.048,7.587,7.587,0,0,0-1.6-1.84Z" fill="#fff"/><path d="M4583.419-2845.22a6.491,6.491,0,0,1,3.281-.912,3.568,3.568,0,0,1,3.859,3.633c0,2.609-2.274,4.338-6.211,4.93-.321.064-.464.08-.624-.224a3.5,3.5,0,0,0-1.1-1.216c3.873-.5,6-1.745,6-3.7,0-1.313-.976-1.969-2.305-1.969a7.606,7.606,0,0,0-4.881,2.049,16,16,0,0,0-1.569,1.585.418.418,0,0,1-.257.176.3.3,0,0,1-.208-.112,7.837,7.837,0,0,1-.927-.977.411.411,0,0,1-.113-.191.279.279,0,0,1,.128-.193c1.168-1.072,1.969-1.9,2.929-2.913.913-.992,2.129-2.369,3.7-4.226-1.1.225-2,.416-3.057.641a5.661,5.661,0,0,0-.624.208.7.7,0,0,1-.336.112c-.113,0-.225-.1-.321-.3a9.181,9.181,0,0,1-.624-1.7,18.4,18.4,0,0,0,2.113-.1c.976-.112,2.224-.288,3.089-.448a1.845,1.845,0,0,0,.865-.288.451.451,0,0,1,.288-.112.462.462,0,0,1,.288.128,4.891,4.891,0,0,1,1.072,1.072.438.438,0,0,1,.112.288.547.547,0,0,1-.336.449,3.466,3.466,0,0,0-.624.512c-1.249,1.312-2.4,2.449-3.666,3.729Z" fill="#fff"/><path d="M4581.755-2829.733a11.482,11.482,0,0,1,3.665-.8c2.144,0,3.378,1.456,3.378,3.809a6.279,6.279,0,0,1-1.3,3.826,9.045,9.045,0,0,1-3.089,2.545.721.721,0,0,1-.272.08.52.52,0,0,1-.385-.208,3.965,3.965,0,0,0-1.328-.849,8.7,8.7,0,0,0,3.521-2.672,4.693,4.693,0,0,0,.88-2.833c0-1.329-.559-2.018-1.488-2.018a5.357,5.357,0,0,0-2.513.689,7.562,7.562,0,0,0-1.36.768.587.587,0,0,1-.353.16c-.208,0-.352-.208-.448-.352a10.91,10.91,0,0,1-.816-1.681A8.28,8.28,0,0,0,4581.755-2829.733Zm5.842-3.681a.229.229,0,0,1,.208.288,13.139,13.139,0,0,1-.352,1.408c-.048.16-.1.24-.224.224a21.123,21.123,0,0,1-4.642-1.232c-.08-.032-.16-.112-.112-.32a7.569,7.569,0,0,1,.48-1.505A20.041,20.041,0,0,0,4587.6-2833.414Z" fill="#fff"/><path d="M4582.555-2814.981a10.943,10.943,0,0,0,.16-1.777,11.661,11.661,0,0,1,1.921.529.336.336,0,0,1,.256.32.339.339,0,0,1-.113.24,2.053,2.053,0,0,0-.319.608c-.208.656-.368,1.248-.576,1.921a12.034,12.034,0,0,1,1.248-.064c1.505,0,2.321,1.024,2.321,2.961a13.749,13.749,0,0,1-.864,5.138,2.292,2.292,0,0,1-2.161,1.5,5.277,5.277,0,0,1-1.585-.175.416.416,0,0,1-.288-.449,4.576,4.576,0,0,0-.3-1.488,4.806,4.806,0,0,0,1.761.352c.528,0,.767-.192,1.024-.848a12.342,12.342,0,0,0,.624-3.97c0-1.136-.208-1.488-.912-1.488a10.553,10.553,0,0,0-1.345.111,44.046,44.046,0,0,1-3.217,7.523.262.262,0,0,1-.416.144,7.231,7.231,0,0,1-1.1-.7.329.329,0,0,1-.128-.24.3.3,0,0,1,.065-.176,33.764,33.764,0,0,0,2.928-6.275c-.624.1-1.136.193-1.568.273a4.639,4.639,0,0,0-.881.256.352.352,0,0,1-.512-.208,14.679,14.679,0,0,1-.5-1.649c.7,0,1.408-.048,2.113-.112.672-.064,1.264-.144,1.888-.24C4582.331-2813.876,4582.442-2814.437,4582.555-2814.981Zm6.514,1.072c.113-.064.193-.031.305.08a10.715,10.715,0,0,1,2.656,3.89.227.227,0,0,1-.063.32,6.657,6.657,0,0,1-1.2.8c-.161.08-.321.064-.369-.129a10.83,10.83,0,0,0-2.625-4.145A13.712,13.712,0,0,1,4589.069-2813.909Z" fill="#fff"/><path d="M4592.4-2797.878a2.308,2.308,0,0,1-2.32,2.3,2.309,2.309,0,0,1-2.321-2.3,2.31,2.31,0,0,1,2.321-2.305A2.309,2.309,0,0,1,4592.4-2797.878Zm-3.649,0a1.305,1.305,0,0,0,1.329,1.329,1.3,1.3,0,0,0,1.328-1.329,1.306,1.306,0,0,0-1.328-1.329A1.306,1.306,0,0,0,4588.749-2797.878Z" fill="#fff"/></g><g transform="translate(-3877.896 3834.18)"><path d="M3963.532-3815.792c0-.528.017-1.185.032-1.825-.272.384-.56.752-.848,1.1-.128.144-.224.223-.288.223-.08,0-.128-.079-.176-.272a5.547,5.547,0,0,0-.5-1.36,14.7,14.7,0,0,0,2.753-5.17,6.3,6.3,0,0,0,.24-1.089,11.445,11.445,0,0,1,1.473.449c.175.064.256.127.256.24s-.065.176-.176.288a1.783,1.783,0,0,0-.321.64,22.786,22.786,0,0,1-.864,2.193v8.275c0,1.569.032,2.353.032,2.433,0,.161-.016.176-.176.176h-1.3c-.16,0-.177-.015-.177-.176,0-.1.032-.864.032-2.433Zm4.754,2.641c-1.585,0-2.129.032-2.224.032-.161,0-.176-.016-.176-.192v-.944c0-.177.015-.193.176-.193.095,0,.639.032,2.224.032h1.857c.032-.24.064-.48.08-.752h-1.1c-1.488,0-2,.032-2.1.032-.143,0-.16-.016-.16-.176v-.944c0-.161.017-.177.16-.177.1,0,.609.033,2.1.033h1.153v-.737h-1.552c-1.553,0-2.066.033-2.161.033-.161,0-.176-.017-.176-.177v-.944c0-.16.015-.176.176-.176.095,0,.608.032,2.161.032h.031a6.99,6.99,0,0,0-.512-.993c-.08-.128-.064-.208.176-.272l.961-.256c.176-.048.224-.016.3.128a10.175,10.175,0,0,1,.656,1.393h1.681c.144-.288.255-.56.352-.8a3.957,3.957,0,0,0,.192-.753,10.033,10.033,0,0,1,1.377.337c.175.047.272.111.272.208a.211.211,0,0,1-.128.191.867.867,0,0,0-.257.336l-.223.481c1.52,0,2.048-.032,2.144-.032.176,0,.193.016.193.176v.944c0,.16-.017.177-.193.177-.1,0-.624-.033-2.161-.033h-1.744v.737h1.408c1.489,0,1.985-.033,2.081-.033.16,0,.176.016.176.177v.944c0,.16-.016.176-.176.176-.1,0-.592-.032-2.081-.032h-1.44c-.016.256-.048.512-.08.752h2.432c1.585,0,2.129-.032,2.226-.032.143,0,.16.016.16.193v.944c0,.176-.017.192-.16.192-.1,0-.641-.032-2.226-.032h-1.84c.928,1.264,2.385,1.776,4.594,2.033a3.5,3.5,0,0,0-.465,1.056c-.128.512-.16.5-.672.4a6.272,6.272,0,0,1-4.673-2.817,3.684,3.684,0,0,1-.336.528,6.64,6.64,0,0,1-4.035,2.3c-.479.112-.479.112-.671-.368a3.546,3.546,0,0,0-.609-1.008c1.889-.289,3.121-.705,3.89-1.569a2.927,2.927,0,0,0,.384-.56Zm.16-6.819c-1.568,0-2.113.032-2.209.032-.16,0-.175-.016-.175-.176v-1.073c0-.159.015-.175.175-.175.1,0,.641.031,2.209.031h.865v-1.216a8.772,8.772,0,0,0-.1-1.553c.512.017,1.088.049,1.52.1.144.016.208.064.208.144a.594.594,0,0,1-.064.24,3.415,3.415,0,0,0-.1,1.056v1.232h.784v-1.216a8.864,8.864,0,0,0-.095-1.553c.5.017,1.088.049,1.52.1.145.016.208.064.208.144a.609.609,0,0,1-.063.24,3.357,3.357,0,0,0-.1,1.056v1.232h1.152c1.57,0,2.114-.031,2.209-.031.145,0,.161.016.161.175v1.073c0,.16-.016.176-.161.176-.095,0-.639-.032-2.209-.032Zm-.624-3.729c.176-.08.224-.049.3.064a9.864,9.864,0,0,1,.816,1.424c.08.16.033.209-.143.288l-.945.448c-.224.113-.24.1-.3-.064a9.163,9.163,0,0,0-.769-1.488c-.095-.144-.095-.176.113-.272Zm6.307.56a4.037,4.037,0,0,0,.191-.624c.465.128.929.3,1.329.448.176.08.272.128.272.24a.377.377,0,0,1-.144.208.79.79,0,0,0-.256.3c-.16.3-.3.561-.512.9-.1.192-.144.272-.256.272a1.464,1.464,0,0,1-.4-.127,8.709,8.709,0,0,0-.928-.272A6.843,6.843,0,0,0,3974.129-3823.139Z" fill="#fff"/><path d="M3970.383-3803.3a20.036,20.036,0,0,1-2,6.9,3.041,3.041,0,0,1-2.721,1.841c-1.408,0-2.833-1.5-2.833-4.114a5.894,5.894,0,0,1,1.809-4.161,7,7,0,0,1,5.2-2.049c3.842,0,6.1,2.368,6.1,5.554,0,2.977-1.681,4.85-4.93,5.826-.337.1-.481.032-.689-.288a3.393,3.393,0,0,0-1.121-1.008c2.705-.64,4.834-1.761,4.834-4.786a3.636,3.636,0,0,0-3.585-3.714Zm-4.594,1.553a4.607,4.607,0,0,0-1.248,2.961c0,1.472.592,2.289,1.088,2.289.416,0,.768-.208,1.2-.977a18.291,18.291,0,0,0,1.7-5.73A4.825,4.825,0,0,0,3965.789-3801.745Z" fill="#fff"/><path d="M3963.965-3781.536c0-.464,0-1.024.015-1.585-.32.449-.671.881-1.024,1.313-.112.128-.192.192-.272.192s-.144-.1-.208-.288a4.287,4.287,0,0,0-.624-1.376,14.208,14.208,0,0,0,3.089-5.219,8.072,8.072,0,0,0,.288-1.152,10.9,10.9,0,0,1,1.552.544c.16.1.257.144.257.273,0,.111-.048.175-.177.288-.111.08-.191.224-.351.656a21.277,21.277,0,0,1-.912,2.113v8.163c0,1.616.031,2.417.031,2.5,0,.16-.016.176-.176.176h-1.345c-.16,0-.175-.016-.175-.176,0-.1.032-.881.032-2.5Zm11.4,1.393c0,1.7.033,2.481.033,3.121,0,.736-.113,1.185-.529,1.489a4.511,4.511,0,0,1-2.529.4c-.513,0-.528.016-.608-.5a3.126,3.126,0,0,0-.4-1.153c.656.048,1.057.048,1.665.048.544,0,.7-.1.7-.592v-9.6h-4.353c-1.537,0-2.081.032-2.177.032-.16,0-.176-.016-.176-.192v-1.248c0-.161.016-.177.176-.177.1,0,.64.033,2.177.033h4.962c1.537,0,2.081-.033,2.161-.033.16,0,.176.016.176.177v1.248c0,.176-.016.192-.176.192-.065,0-.385-.016-1.1-.032Zm-3.1-1.44c0,2.208.032,2.625.032,2.72,0,.16-.017.176-.177.176h-1.183c-.16,0-.177-.016-.177-.176v-.672H3968.7v1.169c0,.144-.015.159-.176.159h-1.184c-.16,0-.176-.015-.176-.159,0-.113.032-.545.032-2.9v-1.552c0-1.425-.032-1.873-.032-1.969,0-.16.016-.176.176-.176.112,0,.448.032,1.5.032h1.76c1.057,0,1.393-.032,1.5-.032.16,0,.177.016.177.176,0,.1-.032.528-.032,1.6Zm-3.554-1.921v2.561h2.049v-2.561Z" fill="#fff"/><path d="M3965.518-3769.411a12.3,12.3,0,0,1-1.746,2.065c-.175.177-.288.272-.368.272-.095,0-.192-.095-.352-.32a2.889,2.889,0,0,0-.817-.736,9.441,9.441,0,0,0,2.786-3.521,3.48,3.48,0,0,0,.288-.849,10.7,10.7,0,0,1,1.457.353c.144.047.224.127.224.224s-.049.144-.112.208a.885.885,0,0,0-.273.352l-.24.5h7.156c1.568,0,2.1-.032,2.192-.032.177,0,.192.016.192.176v1.168c0,.16-.015.177-.192.177-.1,0-.624-.033-2.192-.033Zm-.225,5.443c.16-.144.192-.16.32-.064.689.464,1.408.96,2.145,1.52.32-.368.624-.752.929-1.168a5.2,5.2,0,0,0,.48-.9,6.092,6.092,0,0,1,1.376.657c.145.112.208.208.208.288,0,.1-.08.176-.208.256a1.539,1.539,0,0,0-.432.464,13.282,13.282,0,0,1-1.1,1.377q1.056.864,2.16,1.872a.276.276,0,0,1,.129.192.244.244,0,0,1-.1.177l-.9.928c-.1.1-.16.144-.224.144-.048,0-.1-.032-.16-.1-.672-.736-1.36-1.425-2.081-2.081a14.554,14.554,0,0,1-3.953,2.4,1.217,1.217,0,0,1-.4.128c-.112,0-.192-.1-.352-.368a3.587,3.587,0,0,0-.817-.929,12.106,12.106,0,0,0,4.323-2.256c-.673-.544-1.377-1.073-2.114-1.569-.143-.1-.143-.128.017-.288Zm.176-.833c-1.553,0-2.1.032-2.193.032-.175,0-.192-.016-.192-.176v-1.2c0-.16.017-.176.192-.176.1,0,.64.032,2.193.032h6.243c1.584,0,2.112-.032,2.209-.032.16,0,.191.032.191.192a17.7,17.7,0,0,0-.015,2.065,17.492,17.492,0,0,0,.3,3.1c.208.912.273,1.313.593,1.313.193,0,.336-.529.448-2.049a2.832,2.832,0,0,0,1.1.688c.336.128.32.176.24.688-.272,1.841-.688,2.545-1.681,2.545-.9,0-1.7-.72-2.225-2.529a18.031,18.031,0,0,1-.432-4.5Zm2.177-2.385c-1.521,0-2.033.032-2.113.032-.16,0-.176-.015-.176-.192v-1.072c0-.16.016-.176.176-.176.08,0,.592.032,2.113.032h4.514c1.5,0,2.032-.032,2.129-.032.16,0,.176.016.176.176v1.072c0,.177-.016.192-.176.192-.1,0-.625-.032-2.129-.032Z" fill="#fff"/><path d="M3970.143-3752.258c.144-.048.209-.048.24.128a8.714,8.714,0,0,1,.144,1.3c0,.144-.064.175-.192.191-.864.177-1.648.288-2.641.433a44.1,44.1,0,0,1-3.121,6.866c-.064.113-.112.16-.177.16a.442.442,0,0,1-.191-.08,7.534,7.534,0,0,1-1.1-.816c-.08-.064-.113-.112-.113-.176a.305.305,0,0,1,.08-.192,32.264,32.264,0,0,0,2.769-5.586c-.608.032-1.1.032-1.6.032-.351,0-.479,0-.88-.017-.16,0-.192-.047-.224-.255a8.374,8.374,0,0,1-.16-1.361c.656.048,1.024.064,1.489.064.624,0,1.1-.016,1.841-.08.191-.672.3-1.217.416-1.793a6.256,6.256,0,0,0,.095-1.3,14.82,14.82,0,0,1,1.874.336c.16.032.255.128.255.24a.393.393,0,0,1-.143.3,1.75,1.75,0,0,0-.257.592c-.111.385-.239.881-.384,1.361A17.2,17.2,0,0,0,3970.143-3752.258Zm.448,4.289a5.546,5.546,0,0,0-.128-1.136,8.671,8.671,0,0,1,1.745.3.246.246,0,0,1,.224.256,2.029,2.029,0,0,1-.1.337,1.66,1.66,0,0,0-.065.656,20.941,20.941,0,0,0,.177,2.721,12.543,12.543,0,0,1,2.881,1.488c.16.113.176.176.1.337a9.637,9.637,0,0,1-.737,1.3c-.047.08-.095.112-.143.112s-.1-.032-.16-.1a11.989,11.989,0,0,0-1.953-1.345c0,1.6-1.153,2.337-2.977,2.337-1.761,0-2.945-.9-2.945-2.273s1.152-2.337,2.961-2.337a8.3,8.3,0,0,1,1.264.1C3970.64-3746.24,3970.607-3747.216,3970.591-3747.969Zm-1.136,4.034c-.8,0-1.425.32-1.425.929,0,.512.449.768,1.361.768.864,0,1.392-.465,1.392-1.137a1.979,1.979,0,0,0-.015-.32A4.092,4.092,0,0,0,3969.455-3743.935Zm2.977-7.7c.1-.16.176-.176.337-.112a12.484,12.484,0,0,1,3.136,1.5c.1.065.145.113.145.177a.383.383,0,0,1-.065.191,9.668,9.668,0,0,1-.672,1.185c-.048.08-.1.112-.144.112a.224.224,0,0,1-.144-.064,13.868,13.868,0,0,0-3.313-1.745C3971.983-3750.866,3972.224-3751.346,3972.432-3751.634Z" fill="#fff"/><path d="M3965.261-3734.962c.144.064.257.176.257.288a1.4,1.4,0,0,1-.129.448,7.209,7.209,0,0,0-.144,1.569,20.171,20.171,0,0,0,.288,3.649c.224,1.265.641,2.353,1.313,2.353.511,0,.912-.56,1.536-2.224a6.143,6.143,0,0,0,1.024,1.232.489.489,0,0,1,.113.592c-.609,1.633-1.6,2.5-2.721,2.5-1.249,0-2.562-1.472-2.993-4.177a29.06,29.06,0,0,1-.385-4.659,8.584,8.584,0,0,0-.191-2.1A6.931,6.931,0,0,1,3965.261-3734.962Zm7.427,1.008a.474.474,0,0,1,.176-.064.242.242,0,0,1,.176.1,10.583,10.583,0,0,1,3.138,5.474c.048.208-.048.272-.177.352a5.411,5.411,0,0,1-1.248.64c-.192.064-.3.016-.336-.176a10.789,10.789,0,0,0-2.993-5.586C3972.032-3733.6,3972.432-3733.826,3972.688-3733.954Z" fill="#fff"/><path d="M3964.413-3706.078c-.16,0-.177-.016-.177-.175,0-.113.033-1.057.033-5.7v-3.089c0-3.1-.033-4.082-.033-4.178,0-.176.017-.192.177-.192.111,0,.656.032,2.209.032h5.489c1.553,0,2.114-.032,2.209-.032.16,0,.177.016.177.192,0,.1-.032,1.073-.032,3.7v3.553c0,4.594.032,5.538.032,5.635,0,.16-.017.175-.177.175H3972.9c-.16,0-.176-.015-.176-.175v-.785h-6.706v.865c0,.159-.017.175-.177.175Zm1.6-8.067h6.706v-3.649h-6.706Zm6.706,5.442v-3.873h-6.706v3.873Z" fill="#fff"/><path d="M3965.677-3700.819h2.737v-.656a9.161,9.161,0,0,0-.128-1.776c.593.016,1.169.047,1.713.111.144.016.256.113.256.177a.838.838,0,0,1-.112.336,3.227,3.227,0,0,0-.08,1.12v.688h1.249a8.992,8.992,0,0,0,.671-1.3,3.4,3.4,0,0,0,.273-.864,14.518,14.518,0,0,1,1.585.368c.143.048.24.111.24.224a.373.373,0,0,1-.177.272,1.934,1.934,0,0,0-.288.336c-.24.384-.4.656-.624.96h.832c1.489,0,2.018-.032,2.114-.032.16,0,.175.017.175.177,0,.095-.032.383-.032.816v.624c0,1.409.032,1.681.032,1.777,0,.16-.015.176-.175.176h-1.25c-.175,0-.191-.016-.191-.176v-2h-10.292v1.985c0,.176-.017.192-.177.192h-1.264c-.16,0-.176-.016-.176-.192,0-.1.032-.352.032-1.761v-.5c0-.561-.032-.849-.032-.944,0-.16.016-.177.176-.177.112,0,.64.032,2.113.032h.4a7.631,7.631,0,0,0-.848-1.44c-.065-.08-.1-.112-.1-.144,0-.048.063-.064.191-.112l1.153-.417c.192-.064.192-.047.3.1a8.474,8.474,0,0,1,.849,1.392c.08.144.064.176-.144.256Zm7.075,7c1.568,0,2.129-.032,2.209-.032.176,0,.192.016.192.176,0,.1-.032.545-.032,1.489v.448c0,.416.016.785.016,1.12a1.3,1.3,0,0,1-.384,1.041c-.3.24-.7.368-2.129.368-.5.016-.5.016-.592-.512a3.3,3.3,0,0,0-.3-.9c.512.048.912.064,1.28.064.32,0,.465-.111.465-.463v-1.361h-3.426v1.888c0,1.169.032,1.713.032,1.793,0,.16-.016.176-.176.176h-1.361c-.16,0-.176-.016-.176-.176,0-.1.032-.624.032-1.793v-1.888h-3.137v1.649c0,.864.032,1.264.032,1.36,0,.176-.016.192-.176.192h-1.36c-.16,0-.177-.016-.177-.192,0-.1.032-.512.032-1.457v-1.5c0-.9-.032-1.248-.032-1.345,0-.16.017-.176.177-.176.1,0,.656.032,2.224.032h2.417v-1.072h-.768c-1.425,0-1.921.032-2.017.032-.16,0-.175-.016-.175-.176,0-.1.031-.368.031-1.089v-1.248c0-.736-.031-.977-.031-1.089,0-.159.015-.176.175-.176.1,0,.592.032,2.017.032h3.393c1.425,0,1.921-.032,2.034-.032.159,0,.175.017.175.176,0,.1-.032.353-.032,1.089v1.248c0,.721.032.993.032,1.089,0,.16-.016.176-.175.176-.113,0-.609-.032-2.034-.032h-.976v1.072Zm-1.088-3.521h-4.674v1.184h4.674Z" fill="#fff"/><path d="M3977.025-3683.667a2.309,2.309,0,0,1-2.32,2.306,2.31,2.31,0,0,1-2.321-2.306,2.309,2.309,0,0,1,2.321-2.3A2.308,2.308,0,0,1,3977.025-3683.667Zm-3.649,0a1.306,1.306,0,0,0,1.329,1.329,1.305,1.305,0,0,0,1.328-1.329,1.306,1.306,0,0,0-1.328-1.328A1.306,1.306,0,0,0,3973.376-3683.667Z" fill="#fff"/><path d="M3969.486-3665.7c-2.384.624-3.905,1.2-5.265,1.68a1.864,1.864,0,0,1-.464.176.467.467,0,0,1-.32-.32,12.182,12.182,0,0,1-.529-1.312c.352-.1.5-.145.832-.257a7.763,7.763,0,0,0,1.537-.944,52.686,52.686,0,0,0,4.562-4.194c-.977.273-1.841.432-2.849.625-.24.048-.368.064-.608.128a1.7,1.7,0,0,1-.448.16c-.145,0-.273-.144-.385-.352a9.288,9.288,0,0,1-.576-1.585,10.479,10.479,0,0,0,1.585.032c1.072-.08,2.241-.272,3.649-.48a2.1,2.1,0,0,0,.849-.272.51.51,0,0,1,.3-.112c.145,0,.241.08.433.24a5.329,5.329,0,0,1,.784.8.727.727,0,0,1,.193.448c0,.16-.1.273-.29.368a3.858,3.858,0,0,0-.656.481c-1.664,1.472-3.024,2.657-4.849,4.033l.032.048a62.451,62.451,0,0,1,7.715-1.76c.208-.033.272.08.3.255a6.953,6.953,0,0,1,.176,1.3c.016.16-.08.208-.256.224a11.223,11.223,0,0,0-2.977.513c-1.857.64-2.738,1.776-2.738,2.929,0,1.536,1.681,2,4,2,.161,0,.256.08.241.288-.033.4-.16,1.057-.208,1.345-.033.256-.128.352-.353.352a9.226,9.226,0,0,1-1.057-.1c-3.008-.3-4.321-1.681-4.321-3.617a3.735,3.735,0,0,1,1.952-3.09Z" fill="#fff"/><path d="M3970.383-3652.258a20.037,20.037,0,0,1-2,6.9,3.041,3.041,0,0,1-2.721,1.841c-1.408,0-2.833-1.5-2.833-4.114a5.894,5.894,0,0,1,1.809-4.161,7,7,0,0,1,5.2-2.049c3.842,0,6.1,2.368,6.1,5.554,0,2.977-1.681,4.85-4.93,5.826-.337.1-.481.032-.689-.288a3.393,3.393,0,0,0-1.121-1.008c2.705-.64,4.834-1.761,4.834-4.786a3.636,3.636,0,0,0-3.585-3.714Zm-4.594,1.553a4.607,4.607,0,0,0-1.248,2.961c0,1.473.592,2.289,1.088,2.289.416,0,.768-.208,1.2-.977a18.291,18.291,0,0,0,1.7-5.73A4.827,4.827,0,0,0,3965.789-3650.705Z" fill="#fff"/><path d="M3968.4-3636.53a12.124,12.124,0,0,0-.127-2.049c.591.016,1.232.048,1.776.112.144.016.272.08.272.192a.727.727,0,0,1-.08.32,3.813,3.813,0,0,0-.128,1.3v1.2h3.1c1.537,0,2.065-.032,2.178-.032.159,0,.175.016.175.177,0,.095-.032.592-.032,1.984v1.857c0,2.561.032,3.025.032,3.121,0,.16-.016.176-.175.176h-1.362c-.16,0-.176-.016-.176-.176v-.672h-3.745v1.969c0,1.905.032,2.881.032,2.961,0,.16-.016.176-.176.176h-1.425c-.16,0-.176-.016-.176-.176,0-.1.032-1.04.032-2.929v-2h-3.537v.736c0,.176-.016.192-.176.192h-1.361c-.16,0-.176-.016-.176-.192,0-.1.033-.576.033-3.137v-1.649c0-1.633-.033-2.145-.033-2.24,0-.161.016-.177.176-.177.113,0,.641.032,2.177.032h2.9Zm-3.537,5.954h3.537v-3.329h-3.537Zm5.25-3.329v3.329h3.745v-3.329Z" fill="#fff"/><path d="M3966.014-3619.491c.271.144.368.24.368.384,0,.112-.032.16-.24.481a3.737,3.737,0,0,0-.385,1.136,25.944,25.944,0,0,0-.672,5.17,15.455,15.455,0,0,0,.1,1.873c.337-.737.625-1.265,1.089-2.385a4.082,4.082,0,0,0,.56,1.008.633.633,0,0,1,.111.241.436.436,0,0,1-.08.255,15.666,15.666,0,0,0-.912,2.417,1.821,1.821,0,0,0-.048.5c0,.193.033.321.033.449,0,.112-.065.176-.208.208a7.983,7.983,0,0,1-1.313.256c-.112.016-.177-.064-.208-.176a15.018,15.018,0,0,1-.736-4.77,30.572,30.572,0,0,1,.544-5.25,12.927,12.927,0,0,0,.288-2.385A7.1,7.1,0,0,1,3966.014-3619.491Zm3.424,7.539c.128-.016.161.064.161.24.1,1.1.864,1.5,2.609,1.5a22.973,22.973,0,0,0,3.057-.208c.16-.016.192,0,.224.208a11.832,11.832,0,0,1,.1,1.376c0,.192,0,.208-.272.241a21.433,21.433,0,0,1-2.609.175c-2.369,0-3.474-.384-4.162-1.328a3.534,3.534,0,0,1-.56-2.081Zm-.9-5.986c.017-.192.064-.24.225-.272a25.563,25.563,0,0,1,3.473-.289c.96,0,1.7.033,2.368.1.337.016.369.048.369.208,0,.48,0,.912-.032,1.36-.016.144-.064.208-.208.192-.961-.064-1.793-.1-2.609-.1a19.589,19.589,0,0,0-3.634.368C3968.511-3617.266,3968.511-3617.666,3968.542-3617.938Z" fill="#fff"/><path d="M3968.9-3603.251q.288.1.288.288a.353.353,0,0,1-.08.256,1.226,1.226,0,0,0-.224.577c-.049.288-.08.527-.129.8a30.794,30.794,0,0,0,4.162-.672c.192-.049.24.016.273.16a4.973,4.973,0,0,1,.16,1.088c0,.208-.16.288-.337.32a33.92,33.92,0,0,1-4.546.672c-.064.673-.1,1.057-.111,1.617a9.609,9.609,0,0,1,2.448-.352,3.87,3.87,0,0,0,.272-1.169,6.476,6.476,0,0,1,1.425.593c.192.128.288.256.288.352a.276.276,0,0,1-.1.192,1.417,1.417,0,0,0-.209.32,3.915,3.915,0,0,1,3.283,3.906c0,2.321-1.906,3.825-4.45,4.513-.353.1-.529.048-.705-.3a4.059,4.059,0,0,0-.944-.992,9.216,9.216,0,0,0,2.977-1.168,2.758,2.758,0,0,0,1.281-2.4,2.39,2.39,0,0,0-1.985-2.321,16.894,16.894,0,0,1-3.026,4.194,4.946,4.946,0,0,0,.288.72c.1.209.032.289-.128.4a5.045,5.045,0,0,1-.96.561c-.16.08-.224.08-.32-.08a3.189,3.189,0,0,1-.272-.625,5.031,5.031,0,0,1-2.786,1.153,1.744,1.744,0,0,1-1.776-1.985c0-2.049,1.776-4,3.745-4.978.017-.688.049-1.392.08-2-.944.033-1.376.016-1.648.016a6.369,6.369,0,0,1-.912-.032c-.176-.015-.273-.095-.288-.368-.048-.352-.048-.768-.08-1.216a24.376,24.376,0,0,0,3.1.064c.063-.576.128-1.3.128-1.745a3.755,3.755,0,0,0-.065-.72A8.779,8.779,0,0,1,3968.9-3603.251Zm-4.258,10.276a.546.546,0,0,0,.528.608,3.43,3.43,0,0,0,1.856-.928,20.775,20.775,0,0,1-.32-2.753A4.27,4.27,0,0,0,3964.637-3592.975Zm5.682-4.162a7.541,7.541,0,0,0-2.048.368,16.983,16.983,0,0,0,.191,2.4A14.671,14.671,0,0,0,3970.319-3597.137Z" fill="#fff"/><path d="M3968.366-3580.032a4.821,4.821,0,0,1,2.545-.72,3.715,3.715,0,0,1,3.97,3.841c0,2.673-2.161,4.386-5.586,4.386-2.017,0-3.233-.865-3.233-2.353a2.123,2.123,0,0,1,2.256-1.953,2.911,2.911,0,0,1,3.009,2.337,2.41,2.41,0,0,0,1.633-2.433,2.336,2.336,0,0,0-2.513-2.417,6.51,6.51,0,0,0-4.1,1.7c-.464.416-.912.88-1.393,1.36-.112.112-.192.176-.272.176a.4.4,0,0,1-.241-.144,7.265,7.265,0,0,1-.944-1.04c-.1-.128-.048-.24.08-.369a38.312,38.312,0,0,0,3.794-3.537c.992-1.024,1.744-1.824,2.48-2.737-.959.176-2.1.4-3.088.608a4.954,4.954,0,0,0-.672.192,1.138,1.138,0,0,1-.321.08.364.364,0,0,1-.352-.272,7.654,7.654,0,0,1-.56-1.729,7.823,7.823,0,0,0,1.489.033c.976-.1,2.384-.305,3.633-.545a4.171,4.171,0,0,0,.88-.24.836.836,0,0,1,.3-.128.568.568,0,0,1,.368.128,6.023,6.023,0,0,1,1.073,1.025.554.554,0,0,1,.176.384.423.423,0,0,1-.272.384,2.571,2.571,0,0,0-.7.512c-1.168,1.137-2.242,2.257-3.457,3.425Zm.016,4.561c-.464,0-.768.273-.768.609,0,.5.432.832,1.393.832a3.5,3.5,0,0,0,.736-.064C3969.535-3574.974,3969.055-3575.471,3968.382-3575.471Z" fill="#fff"/><path d="M3973.28-3569.427a.344.344,0,0,1,.241-.128.324.324,0,0,1,.208.1,11.923,11.923,0,0,1,3.185,2.929c.1.129.111.176.111.24,0,.081-.031.144-.159.256l-.976.833c-.113.1-.177.144-.225.144-.08,0-.144-.032-.224-.16a11.936,11.936,0,0,0-3.025-3.057c-.1-.064-.145-.112-.145-.161s.033-.095.113-.191Z" fill="#fff"/><path d="M3966.59-3554.066a5.355,5.355,0,0,0-.032-1.553,10.49,10.49,0,0,1,1.921.336c.208.064.32.16.32.288a.536.536,0,0,1-.112.256,1.642,1.642,0,0,0-.273.593c-.08.432-.143.751-.224,1.312a29.294,29.294,0,0,0,3.009-.592c.225-.064.3-.048.336.16a7.115,7.115,0,0,1,.112,1.184c0,.176-.047.224-.192.256-1.376.3-2.24.48-3.585.657-.224,1.328-.448,2.4-.736,3.521a6.924,6.924,0,0,1,4.594-1.7c2.128,0,3.569,1.377,3.569,3.026a3.589,3.589,0,0,1-1.824,3.233,10.666,10.666,0,0,1-4.082,1.28,7.443,7.443,0,0,1-1.185.113c-.16,0-.271-.08-.4-.385a3.044,3.044,0,0,0-.865-1.136,12.442,12.442,0,0,0,4.594-.881c1.234-.512,1.825-1.248,1.825-2.257,0-.832-.608-1.52-1.825-1.52a5.321,5.321,0,0,0-4.209,1.985c-.144.208-.3.4-.448.608-.112.192-.16.256-.3.24a4.506,4.506,0,0,1-1.2-.352c-.256-.112-.352-.176-.352-.32a1.1,1.1,0,0,1,.064-.32c.08-.272.144-.512.208-.753.353-1.408.576-2.592.849-4.194-.865.065-1.873.145-2.69.145a.274.274,0,0,1-.3-.224c-.047-.193-.16-.865-.224-1.393,1.249,0,2.241-.048,3.473-.144C3966.478-3553.154,3966.542-3553.683,3966.59-3554.066Z" fill="#fff"/><path d="M3972.128-3528.015c0,1.248-.961,2.033-2.673,2.033-1.681,0-2.722-.881-2.722-2.017,0-1.153,1.089-2.065,2.705-2.065a10.52,10.52,0,0,1,1.122.048c-.1-.944-.161-2.257-.208-3.538-.033-.784-.049-1.392-.065-1.984a3.585,3.585,0,0,0-.192-1.217,12.074,12.074,0,0,1,1.745.224c.143.032.256.144.256.24a.861.861,0,0,1-.064.272,2.347,2.347,0,0,0-.16.641c-.017.384-.017.928-.017,1.472a13.44,13.44,0,0,0,2.69-.528c.176-.064.256-.048.3.1a10.57,10.57,0,0,1,.288,1.057c.049.176.032.239-.128.288a14.955,14.955,0,0,1-3.121.56c.032.944.112,1.745.208,2.657a13.426,13.426,0,0,1,3.6,1.729c.145.1.128.16.065.3a6.792,6.792,0,0,1-.673,1.072c-.1.112-.176.16-.3.064a9.23,9.23,0,0,0-2.657-1.632Zm-1.537-.609a4.645,4.645,0,0,0-1.088-.111c-.832,0-1.425.288-1.425.688,0,.352.368.64,1.28.64.769,0,1.233-.384,1.233-.992Z" fill="#fff"/><path d="M3967.886-3516.849a15.737,15.737,0,0,1,4.674-.976,3.382,3.382,0,0,1,3.649,3.425,3.827,3.827,0,0,1-2.288,3.586,8.693,8.693,0,0,1-3.314,1.056c-.288.048-.416-.016-.528-.224a3.373,3.373,0,0,0-.976-1.057,11.63,11.63,0,0,0,3.857-1.1,2.5,2.5,0,0,0,1.44-2.385c0-1.137-.7-1.761-1.984-1.761a14.312,14.312,0,0,0-4.53,1.249,5.129,5.129,0,0,0-.9.5.5.5,0,0,1-.32.16c-.145,0-.257-.1-.416-.288a8.218,8.218,0,0,1-.865-1.553A17.208,17.208,0,0,0,3967.886-3516.849Z" fill="#fff"/><path d="M3968.382-3503.267c.192.048.289.128.289.256,0,.224-.112.448-.112.672,0,.32.047.705.08,1.073a22.389,22.389,0,0,0,.511,2.753c.8-.432,1.377-.737,2.274-1.217a3.974,3.974,0,0,0,1.1-.864,8.188,8.188,0,0,1,1.168,1.5.639.639,0,0,1,.113.336c0,.16-.1.288-.321.32a7.689,7.689,0,0,0-1.536.48,22.2,22.2,0,0,0-3.762,1.873c-1.392.912-1.888,1.664-1.888,2.417,0,.944.7,1.344,2.545,1.344a27.966,27.966,0,0,0,4.882-.368c.175-.032.255,0,.288.192a14.192,14.192,0,0,1,.16,1.489c.015.176-.1.256-.288.272a34.254,34.254,0,0,1-4.771.24c-3.024,0-4.625-.992-4.625-3.073,0-1.777,1.168-2.945,3.041-4.13a24.2,24.2,0,0,1-.833-3.906,7.066,7.066,0,0,0-.416-1.856A9.277,9.277,0,0,1,3968.382-3503.267Z" fill="#fff"/><path d="M3967.63-3485.827c.272.064.384.144.384.3a1.551,1.551,0,0,1-.16.528,9.594,9.594,0,0,0-.224,1.953c-.16,2.465-.24,4.1-.24,6.194,0,1.617.192,1.985,1.472,1.985a8.441,8.441,0,0,0,5.6-2.945,5.517,5.517,0,0,0,.368,1.52,1.054,1.054,0,0,1,.128.385c0,.144-.065.272-.32.5a9.145,9.145,0,0,1-6.067,2.4c-2.049,0-3.009-.816-3.009-3.265,0-2.689.144-5,.224-6.915a10.643,10.643,0,0,0-.16-2.929A16.159,16.159,0,0,1,3967.63-3485.827Z" fill="#fff"/><path d="M3970.655-3466.754c.176-.048.241.032.256.16.048.352.1.817.112,1.153.016.208-.032.256-.24.3a25.5,25.5,0,0,1-2.785.608c-1.088,3.553-1.9,6-2.929,8.659-.08.224-.176.209-.352.161-.16-.064-.945-.4-1.28-.593a.257.257,0,0,1-.128-.32,60.26,60.26,0,0,0,2.768-7.587c-.928.1-2.049.176-2.8.176-.24,0-.3-.048-.336-.256-.064-.336-.144-.88-.224-1.457a7.222,7.222,0,0,0,1.184.049,21.868,21.868,0,0,0,2.593-.16c.16-.641.288-1.345.4-2a11.032,11.032,0,0,0,.1-1.473,9.365,9.365,0,0,1,2.017.448.268.268,0,0,1,.176.257.381.381,0,0,1-.08.255,3.075,3.075,0,0,0-.336.641c-.161.576-.273,1.12-.385,1.521C3969.007-3466.322,3969.871-3466.53,3970.655-3466.754Zm-.624,7.651c.16,0,.224.064.24.225.128,1.168.913,1.5,2.449,1.5a23.979,23.979,0,0,0,2.689-.224c.128-.016.176.016.193.144a10.162,10.162,0,0,1,.127,1.392c.016.192,0,.241-.255.257a19.317,19.317,0,0,1-2.178.176c-2.1,0-3.185-.288-3.9-1.041a3.117,3.117,0,0,1-.72-2.193A8.158,8.158,0,0,1,3970.031-3459.1Zm-.177-4.241c0-.224.049-.273.289-.321a16.717,16.717,0,0,1,3.122-.368,11.659,11.659,0,0,1,1.872.16c.224.032.272.048.272.241a11.327,11.327,0,0,1,.016,1.28c0,.272-.08.336-.3.288a10.7,10.7,0,0,0-1.984-.192,17.719,17.719,0,0,0-3.218.368C3969.887-3462.448,3969.854-3463.024,3969.854-3463.344Z" fill="#fff"/><path d="M3965.581-3446.433a8,8,0,0,0,.721-2.369,15.834,15.834,0,0,1,1.984.816.275.275,0,0,1,.193.256.477.477,0,0,1-.161.32,3.09,3.09,0,0,0-.56.977,17.665,17.665,0,0,1-3.425,5.378.605.605,0,0,1-.448.24.538.538,0,0,1-.368-.16,4.476,4.476,0,0,0-1.41-.689A14.17,14.17,0,0,0,3965.581-3446.433Zm5.986-2.177a.384.384,0,0,1,.225-.1.326.326,0,0,1,.24.128,20.158,20.158,0,0,1,4.018,5.874.4.4,0,0,1,.063.225.309.309,0,0,1-.16.255,9.549,9.549,0,0,1-1.328.849c-.208.1-.32.064-.385-.145a20.914,20.914,0,0,0-3.953-6.226C3970.863-3448.13,3971.3-3448.434,3971.567-3448.61Z" fill="#fff"/><path d="M3966.781-3424.447a26.286,26.286,0,0,0,4.082-2.017,19.755,19.755,0,0,0,4.242-3.265,7.2,7.2,0,0,0,.256,1.856.506.506,0,0,1-.16.641,25.933,25.933,0,0,1-4,2.753,36.038,36.038,0,0,1-3.921,1.985,3.68,3.68,0,0,0-.9.512.47.47,0,0,1-.288.128.428.428,0,0,1-.273-.128,4.914,4.914,0,0,1-.976-1.089.388.388,0,0,1-.1-.256.649.649,0,0,1,.08-.272,3.156,3.156,0,0,0,.064-.912l.032-6.019a15.155,15.155,0,0,0-.176-2.785,16.06,16.06,0,0,1,2.081.353.306.306,0,0,1,.256.3,1.233,1.233,0,0,1-.08.337,6.585,6.585,0,0,0-.176,1.985Z" fill="#fff"/><path d="M3970.383-3414.178a20.028,20.028,0,0,1-2,6.9,3.042,3.042,0,0,1-2.721,1.841c-1.408,0-2.833-1.505-2.833-4.114a5.894,5.894,0,0,1,1.809-4.161,7,7,0,0,1,5.2-2.049c3.842,0,6.1,2.368,6.1,5.554,0,2.977-1.681,4.85-4.93,5.826-.337.1-.481.032-.689-.288a3.39,3.39,0,0,0-1.121-1.008c2.705-.64,4.834-1.761,4.834-4.786a3.635,3.635,0,0,0-3.585-3.714Zm-4.594,1.553a4.609,4.609,0,0,0-1.248,2.961c0,1.473.592,2.289,1.088,2.289.416,0,.768-.208,1.2-.977a18.287,18.287,0,0,0,1.7-5.73A4.833,4.833,0,0,0,3965.789-3412.625Z" fill="#fff"/><path d="M3968.862-3391.936a8.536,8.536,0,0,1-1.44,1.953c-.128.144-.208.208-.273.208s-.159-.08-.288-.224a3.519,3.519,0,0,0-.4-.432c0,2.368.031,2.961.031,3.025,0,.16-.015.176-.191.176h-.977c-.16,0-.176-.016-.176-.176v-.608h-1.264v1.232c0,.16-.017.176-.177.176h-1.04c-.16,0-.176-.016-.176-.176,0-.1.032-1.056.032-5.682v-3.089c0-3.106-.032-4.1-.032-4.194,0-.176.016-.192.176-.192.112,0,.368.032,1.265.032h1.136c.865,0,1.136-.032,1.233-.032.176,0,.191.016.191.192,0,.1-.031,1.008-.031,3.569v5.33a6.493,6.493,0,0,0,1.744-2.817h-.992c-.176,0-.193-.016-.193-.191,0-.081.033-.241.033-1.313v-.336c0-.352-.033-.544-.033-.657,0-.16.017-.176.193-.176.048,0,.368.032,1.072.032a5.87,5.87,0,0,0-.4-1.04c-.08-.16-.064-.192.144-.256l.8-.256c.177-.064.24-.048.32.1a8.86,8.86,0,0,1,.545,1.456h1.393a11.9,11.9,0,0,0-.448-1.344c-.08-.16-.08-.192.128-.256l.816-.24c.208-.064.239-.048.336.112a8.1,8.1,0,0,1,.592,1.728h.64a8.449,8.449,0,0,0,.7-1.472,5.768,5.768,0,0,0,.241-.865,6.6,6.6,0,0,1,1.344.352c.128.048.192.128.192.225a.218.218,0,0,1-.128.208.823.823,0,0,0-.256.336,8.378,8.378,0,0,1-.592,1.216c1.12,0,1.584-.032,1.681-.032.16,0,.176.016.176.176,0,.1-.033.305-.033.577v.416c0,1.072.033,1.232.033,1.313,0,.175-.016.191-.176.191h-1.1c-.016.144,0,.369,0,.641.609,0,.832-.032.913-.032.175,0,.192.015.192.192v1.04c0,.176-.017.192-.192.192-.081,0-.3-.016-.913-.032v2.129c.848,0,1.168-.032,1.265-.032.159,0,.176.016.176.176v1.1c0,.161-.017.177-.176.177-.1,0-.417-.016-1.265-.033v.144c0,1.313.032,1.97.032,2.065,0,.144-.016.161-.16.161h-1.056c-.16,0-.177-.017-.177-.161,0-.111.032-.752.032-2.065v-.144h-1.312c-1.216,0-1.616.033-1.713.033-.159,0-.176-.016-.176-.177v-1.1c0-.16.017-.176.176-.176.064,0,.352.032,1.057.032v-2.113a1.667,1.667,0,0,1-.224.016c-.16,0-.177-.016-.177-.192v-1.04c0-.177.017-.192.177-.192.1,0,.4.032,1.44.032h.752a9.205,9.205,0,0,0-.095-1.393,12.179,12.179,0,0,1,1.232.1v-.672h-6.579v.384c.385.1.816.192,1.121.288.208.064.271.128.271.224,0,.08-.047.144-.143.241a.943.943,0,0,0-.24.463l-.065.208h.785a.481.481,0,0,0,.272-.064.306.306,0,0,1,.177-.064c.08,0,.223.081.527.449.272.3.353.448.353.56a.308.308,0,0,1-.113.192,1.03,1.03,0,0,0-.223.48,9.032,9.032,0,0,1-3.714,5.634.66.66,0,0,1-.336.161c-.1,0-.176-.08-.3-.241a3.141,3.141,0,0,0-.8-.7,7.774,7.774,0,0,0,2.642-2.321,7.351,7.351,0,0,0-.7-.672c-.064-.048-.1-.08-.1-.128,0-.064.032-.112.128-.208l.464-.464c.16-.144.225-.144.337-.08.191.144.368.288.512.416a8.809,8.809,0,0,0,.576-1.7Zm-4.977-6.595v2.193h1.264v-2.193Zm1.264,5.587v-2.113h-1.264v2.113Zm0,3.553v-2.273h-1.264v2.273Zm2-9.988a41.946,41.946,0,0,0,6.707-.7,3.653,3.653,0,0,0,.865-.288,5.549,5.549,0,0,1,1.089.816c.095.1.143.16.143.256,0,.112-.128.192-.336.208a2.892,2.892,0,0,0-.672.128,50.014,50.014,0,0,1-6.707.865c-.5.032-.5.032-.688-.465Zm6.755,9.844v-2.129h-.688v2.129Z" fill="#fff"/><path d="M3966.941-3382.708c1.041,0,1.521-.031,1.618-.031.143,0,.16.016.16.192,0,.1-.032.56-.032,1.52v1.985c0,.977.032,1.425.032,1.521,0,.176-.017.192-.16.192-.1,0-.577-.032-1.618-.032h-2.592v5.186c0,2.209.032,3.3.032,3.409,0,.161-.017.176-.176.176h-1.361c-.16,0-.176-.015-.176-.176,0-.112.032-1.2.032-3.409v-6.931c0-2.225-.032-3.345-.032-3.441,0-.176.016-.192.176-.192.112,0,.72.031,1.888.031Zm-2.592,1.2v.944h2.769v-.944Zm2.769,2.033h-2.769v.96h2.769Zm-.608,9.78c-.16,0-.177-.016-.177-.192,0-.1.032-.529.032-2.9v-1.409c0-1.409-.032-1.889-.032-2,0-.16.017-.176.177-.176.112,0,.5.032,1.713.032h2.16c1.217,0,1.6-.032,1.713-.032.16,0,.175.016.175.176,0,.1-.031.576-.031,1.729v1.585c0,2.32.031,2.753.031,2.833,0,.16-.015.176-.175.176h-1.153c-.16,0-.175-.016-.175-.176v-.5h-2.93v.656c0,.176-.016.192-.192.192Zm1.328-4.338h2.93v-1.072h-2.93Zm2.93,2.273v-1.12h-2.93v1.12Zm5.265-2.1c0,1.121.065,2.4.065,3.186a1.739,1.739,0,0,1-.465,1.472c-.336.3-.784.432-2.288.432-.481,0-.481.016-.576-.5a5.043,5.043,0,0,0-.385-1.168,11.021,11.021,0,0,0,1.345.079c.528,0,.656-.144.656-.624v-6.386h-2.625c-1.249,0-1.665.032-1.761.032-.16,0-.176-.016-.176-.192,0-.1.031-.464.031-1.409v-2.209c0-.928-.031-1.312-.031-1.408,0-.176.016-.192.176-.192.1,0,.512.031,1.761.031h2.352c1.249,0,1.681-.031,1.778-.031.16,0,.175.016.175.192,0,.1-.032.752-.032,2.112Zm-4.609-7.651v.944h2.961v-.944Zm2.961,2.993v-.96h-2.961v.96Z" fill="#fff"/><path d="M3977.025-3363.667a2.309,2.309,0,0,1-2.32,2.306,2.31,2.31,0,0,1-2.321-2.306,2.309,2.309,0,0,1,2.321-2.3A2.308,2.308,0,0,1,3977.025-3363.667Zm-3.649,0a1.306,1.306,0,0,0,1.329,1.329,1.305,1.305,0,0,0,1.328-1.329,1.306,1.306,0,0,0-1.328-1.328A1.306,1.306,0,0,0,3973.376-3363.667Z" fill="#fff"/></g></g></svg>