<svg width="920" height="74" viewBox="0 0 920 74" fill="none" xmlns="http://www.w3.org/2000/svg">
<g clip-path="url(#clip0_131_727)">
<path d="M889.548 74H7.33582C6.28153 73.9944 5.24078 73.7627 4.28357 73.3208C3.32636 72.8789 2.47509 72.237 1.78699 71.4382C1.09889 70.6394 0.589641 69.7023 0.294315 68.6902C-0.00101098 67.6781 -0.075939 66.6145 0.0745884 65.571L6.2489 21.2351C7.0411 15.3703 9.92808 9.9898 14.3768 6.08691C18.8256 2.18403 24.5359 0.0220521 30.454 0H912.666C913.72 0.00596561 914.761 0.237849 915.718 0.679932C916.675 1.12201 917.527 1.76394 918.215 2.56274C918.903 3.36155 919.412 4.29872 919.707 5.31079C920.003 6.32286 920.078 7.38635 919.928 8.42993L913.753 52.7671C912.961 58.6317 910.074 64.0117 905.625 67.9143C901.176 71.8169 895.466 73.9784 889.548 74Z" fill="white"/>
</g>
<defs>
<clipPath id="clip0_131_727">
<rect width="920" height="74" fill="white"/>
</clipPath>
</defs>
</svg>
